<svg width="910" height="733" viewBox="0 0 910 733" fill="none" xmlns="http://www.w3.org/2000/svg">
<path d="M785.705 510.476C783.142 510.471 780.801 510.527 778.469 510.426C777.474 510.383 776.507 509.967 775.51 509.803C774.47 509.633 773.41 509.482 772.356 509.469C771.104 509.452 769.83 509.498 768.604 509.696C767.747 509.834 766.954 510.273 766.102 510.753C765.447 511.976 764.823 513.023 763.827 514.106C761.197 513.994 758.94 513.847 756.682 513.7C755.68 513.385 754.673 513.084 753.681 512.746C753.453 512.669 753.189 512.304 753.098 512.344C749.636 513.866 747.673 510.861 745.257 509.944C742.146 508.762 739.983 509.114 737.432 510.379C737.113 510.537 736.419 510.384 736.059 510.169C732.94 508.313 729.769 507.433 726.063 509.013C725.491 509.257 723.953 508.55 723.408 507.919C720.844 504.953 720.125 504.492 716.583 506.508C713.46 508.285 710.287 507.241 707.169 507.481C706.279 507.549 705.246 506.188 703.895 505.202C700.78 506.451 696.857 505.602 692.881 505.305C690.223 505.106 687.554 505.411 685.161 504.045C682.835 502.717 680.744 500.407 677.516 502.518C674.585 499.795 670.66 501.962 667.353 500.95C666.057 500.553 664.429 500.782 664.444 502.302C664.45 502.888 665.908 503.705 666.869 503.993C669.404 504.753 671.939 505.369 674.752 504.485C675.45 504.266 676.809 505.664 677.865 506.318C677.764 506.522 677.663 506.726 677.562 506.931C675.644 506.931 673.725 506.941 671.807 506.926C670.937 506.919 670.052 506.76 669.205 506.866C668.701 506.93 667.971 507.312 667.871 507.665C667.774 508.012 668.262 508.802 668.637 508.883C670.682 509.323 672.767 509.85 674.847 509.879C677.503 509.915 680.171 509.33 682.827 509.372C683.953 509.39 685.06 510.321 686.569 510.869C688.316 511.039 689.669 511.178 691.022 511.318C693.603 512.853 696.581 511.834 699.32 512.326C700.019 512.451 700.946 512.637 701.285 513.08C702.78 515.037 703.46 515.104 705.461 513.039C706.084 512.837 706.473 512.801 706.861 512.765C711.062 514.353 715.149 516.286 719.51 517.381C721.676 517.925 722.79 518.971 724.249 520.115C725.227 520.882 726.867 521.279 728.232 521.321C730.477 521.391 731.912 521.832 732.075 524.076C732.144 525.024 732.669 525.966 733.102 526.869C734.561 529.919 732.723 532.368 729.385 533.871C726.365 535.232 723.464 535.946 720.223 535.675C718.247 535.51 716.302 535.029 714.361 534.623C713.995 534.547 713.428 534.146 713.439 533.912C713.591 530.684 709.789 530.105 708.289 527.99C708.012 527.599 707.148 527.372 706.539 527.344C699.586 527.017 692.632 526.702 685.674 526.494C684.359 526.454 682.906 526.674 681.728 527.165C680.125 527.832 678.896 527.9 677.403 526.925C675.118 525.433 673.872 525.723 672.353 527.879C671.255 529.435 669.857 529.63 668.139 528.768C667.763 528.578 667.428 528.184 667.052 528.161C665.538 528.07 664.016 528.075 662.501 528.127C662.456 528.128 662.225 529.172 662.471 529.515C663.388 530.795 663.264 532.707 666.072 532.817C667.857 532.887 669.551 534.297 671.332 535.02C672.649 535.554 674.04 535.948 674.767 536.192C676.159 534.416 676.97 532.44 678.551 531.657C679.856 531.01 682.154 531.552 683.84 532.031C684.457 532.206 684.885 533.717 684.876 534.615C684.844 538.05 684.36 538.865 681.028 542.384C682.357 543.31 683.422 543.994 684.857 542.294C685.241 541.838 687.133 541.849 687.917 542.258C690.382 543.541 692.653 545.111 694.99 546.581C696.147 547.308 697.283 548.061 698.653 548.947C698.589 549.151 698.422 549.691 698.315 550.035C702.455 551.486 706.432 552.879 710.621 554.346C709.793 551.888 708.923 549.42 711.17 547.583C712.807 547.031 714.444 546.478 716.128 545.91C717.247 547.573 720.684 547.505 722.024 545.526C724.148 542.388 726.134 542.076 729.432 544.364C729.501 544.411 729.555 544.48 729.631 544.513C731.394 545.282 734.179 546.075 733.271 547.952C732.406 549.736 729.954 551.095 727.895 552.206C726.734 552.832 724.918 552.449 723.472 552.777C722.697 552.953 721.717 553.559 721.469 554.17C720.893 555.589 720.496 556.917 718.328 556.886C718.065 556.882 717.793 557.395 717.175 558.027C718.94 558.862 720.604 559.463 722.011 560.37C723.286 561.192 724.401 562.269 725.363 563.382C726.243 564.4 727.046 564.707 728.464 564.233C729.265 563.966 730.388 563.972 731.18 564.255C732.86 564.855 734.25 565.256 736.059 564.246C737.385 563.507 738.571 564.284 738.615 565.817C738.645 566.87 738.621 567.925 738.621 568.39C741.6 569.395 744.034 570.706 746.6 570.949C749.337 571.209 752.148 572.875 754.132 572.568C758.361 571.913 761.645 573.902 765.413 574.131C766.332 574.187 767.274 573.938 768.222 573.827C768.799 574.361 769.393 574.912 770.045 575.581C770.166 575.709 770.23 575.719 770.294 575.729C774.983 575.948 779.221 577.337 783.283 579.354C785.5 580.454 788.298 582.364 790.192 581.899C794.188 580.918 796.745 583.871 800.314 583.633C802.142 583.511 804.317 584.164 805.859 585.082C806.922 585.715 807.445 587.356 807.721 588.628C808.271 591.168 805.896 593.284 802.98 593.324C799.826 593.366 796.965 592.904 794.139 591.461C792.385 590.566 789.993 590.693 787.975 590.124C783.374 588.826 778.83 587.373 774.253 586.009C773.772 585.865 773.114 585.698 772.728 585.869C770.189 586.993 768.588 585.692 766.521 584.601C763.61 583.063 760.254 582.089 756.705 583.53C756.194 583.738 755.199 583.672 754.811 583.363C752.105 581.207 748.698 580.848 745.35 580.194C743.803 579.892 742.42 578.989 740.92 578.451C736.397 576.829 731.48 576.1 727.452 573.328C726.184 572.456 724.048 572.26 722.311 572.265C718.671 572.276 717.785 572.012 715.928 569.253C715.559 569.501 715.199 569.743 714.773 570.029C714.593 569.749 714.419 569.571 714.356 569.367C713.651 567.087 712.385 565.344 709.645 564.435C707.834 563.834 706.211 562.744 704.599 561.753C702.317 560.351 699.799 559.57 697.083 559.167C696.413 559.068 695.41 558.983 695.176 558.602C693.31 555.551 689.229 555.8 686.496 554.013C683.812 552.258 680.7 551.012 677.811 549.49C677.088 549.109 676.514 548.515 675.854 548.038C675.257 547.606 674.635 547.202 674.023 546.786C673.737 547.02 673.45 547.255 673.163 547.49C674.197 548.648 675.148 549.874 676.283 550.95C678.392 552.948 680.632 554.838 682.756 556.824C683.116 557.16 683.171 557.747 683.236 557.904C684.208 558.181 685.258 558.208 685.781 558.683C686.983 559.773 687.875 561.12 688.99 562.292C690.526 563.906 691.913 565.666 694.677 565.945C695.217 566 695.807 567.093 696.04 567.793C696.733 569.877 697.16 572.031 697.914 574.096C698.143 574.723 699.029 575.507 699.726 575.606C703.769 576.179 704.799 579.82 707.732 581.515C708.281 581.832 708.16 583.039 708.39 584.009C710.732 584.277 713.226 584.562 715.725 584.847C715.725 586.014 715.725 587.122 715.719 588.404C715.714 588.578 715.771 588.568 715.771 588.568C717.52 589.685 720.055 590.248 719.693 592.926C722.097 593.428 723.947 594.359 725.282 596.478C726.069 597.727 728.279 598.426 730.003 599.038C731.237 599.475 731.77 599.844 731.826 601.095C731.959 604.096 732.833 604.692 736.109 604.599C737.789 604.551 738.992 604.838 739.547 606.65C739.935 607.919 741.245 609.06 742.383 610.045C744.362 611.758 746.901 613.065 748.51 614.989C750.22 617.035 751.089 619.615 752.397 621.93C752.87 622.768 753.42 623.63 754.162 624.282C755.695 625.627 757.429 626.795 758.991 628.117C761.595 630.322 764.341 632.436 766.642 634.869C769.805 638.213 773.8 640.665 777.559 643.373C779.021 644.426 780.78 645.155 782.36 646.088C783.78 646.927 785.097 647.902 786.538 648.708C787.74 649.38 789.126 649.804 790.307 650.498C792.84 651.988 795.847 653.208 797.627 655.235C799.509 657.378 801.268 657.676 803.885 657.194C804.449 657.09 805.208 657.801 806.205 658.298C808.737 658.714 810.942 658.97 813.336 659.243C813.779 659.271 814.032 659.281 814.285 659.291C814.375 659.292 814.465 659.294 814.751 659.435C815.952 660.099 816.957 660.623 817.962 661.148C818.87 661.73 819.777 662.312 820.936 663.056C821.338 663.331 821.488 663.445 821.709 663.619C821.88 663.755 821.991 663.818 822.251 663.896C822.483 663.943 822.576 663.96 822.742 664.043C822.917 664.195 823.028 664.27 823.153 664.357C823.158 664.379 823.176 664.422 823.176 664.422C823.971 664.946 824.767 665.47 825.688 666.246C825.81 666.704 825.807 666.909 825.804 667.114C826.483 668.379 827.162 669.643 827.832 671.203C827.812 673.744 830.136 672.33 831.074 673.091C836.091 672.45 837.383 676.039 839.384 678.769C840.13 679.786 840.637 680.937 841.366 682.143C842.903 683.43 844.196 684.767 845.778 685.742C850.01 688.347 854.398 690.755 858.654 693.331C860.257 694.301 861.596 695.603 863.181 696.601C865.689 698.178 868.314 699.612 870.868 701.134C872.894 702.341 874.859 703.628 876.906 704.806C878.038 705.458 879.346 705.879 880.455 706.555C881.367 707.112 882.103 707.893 882.913 708.755C882.908 708.935 882.952 708.914 882.952 708.914C884.656 709.119 886.372 709.266 888.059 709.547C889.493 709.786 891.04 709.817 890.222 711.964C889.434 714.031 891.959 713.888 892.84 713.606C895.18 712.858 896.693 713.559 898.454 714.776C899.276 715.344 900.807 715.148 902.023 715.243C902.521 715.281 903.079 715.035 903.533 715.152C906.868 716.008 911.056 722.816 909.758 725.717C908.736 728.001 906.595 729.537 903.594 729.514C901.342 729.497 899.058 729.339 896.867 728.925C896.215 728.802 895.538 727.647 895.37 726.881C894.573 723.233 891.973 721.055 887.865 720.326C886.777 720.133 885.48 719.133 885.039 718.221C884.159 716.404 882.806 715.505 880.724 714.929C879.354 714.55 878.007 713.73 876.996 712.815C875.124 711.119 873.612 709.09 870.561 708.491C867.777 706.951 864.996 705.97 862.674 703.757C859.568 700.796 855.071 698.954 851.168 696.637C850.881 696.467 850.564 696.338 850.064 695.961C848.316 694.459 846.765 693.187 845.215 691.915C843.231 690.887 841.248 689.859 839.038 688.608C837.799 688.029 836.787 687.672 835.774 687.315C835.601 687.336 835.373 687.302 835.264 687.386C830.113 691.367 826.941 687.658 823.516 685.048C822.007 683.898 820.525 682.711 819.147 681.445C818.687 681.021 818.496 680.314 818.342 679.706C817.983 678.296 817.392 677.354 815.495 678.181C813.727 678.952 812.284 678.371 811.009 677.274C810.403 676.752 809.864 675.725 809.278 675.716C807.603 675.688 805.677 675.689 804.297 676.373C802.429 677.298 801.59 676.848 800.364 675.642C799.758 675.045 798.302 674.617 797.438 674.813C795.08 675.348 793.794 675.215 794.429 672.676C794.509 672.357 794.247 671.973 794.147 671.63C788.544 672.312 785.762 670.966 784.337 667.585C782.641 666.818 781.547 666.447 780.611 665.877C778.325 664.485 776.088 663.029 773.882 661.541C773.064 660.989 772.106 660.391 771.698 659.618C770.597 657.535 769.346 655.773 767.055 654.376C765.626 653.505 765.19 651.454 764.115 650.046C762.955 648.526 761.473 647.195 760.312 645.676C759.416 644.505 758.799 643.171 758.499 641.722C757.634 641.245 756.789 640.737 755.894 640.307C755.48 640.109 754.6 639.9 754.555 639.977C753.068 642.504 749.15 641.5 747.43 643.781C747.005 644.344 745.707 644.584 744.785 644.637C742.649 644.759 740.498 644.676 737.933 644.676C738.344 645.816 738.566 646.604 738.908 647.35C739.814 649.326 738.579 650.895 736.973 651.605C735.563 652.229 733.083 652.93 732.495 650.24C732.466 650.107 732.329 649.93 732.195 649.887C729.022 648.879 725.823 647.931 722.675 646.866C721.462 646.456 720.01 646.021 719.286 645.185C717.652 643.299 715.061 641.813 715.245 638.814C715.241 638.63 715.239 638.633 715.276 638.578C715.36 638.396 715.335 638.278 715.24 638.17L715.242 638.171C715.062 635.965 714.881 633.758 714.652 630.948C712.652 632.152 711.032 633.159 709.37 634.109C708.907 634.373 708.281 634.411 707.796 634.656C705.659 635.734 703.399 636.682 701.461 637.993C699.049 639.624 696.847 641.512 694.684 643.403C693.932 644.06 693.475 645.023 693.039 645.905C691.742 648.527 690.482 651.164 689.29 653.823C688.635 655.282 689.361 656.286 690.87 657.028C692.622 657.888 694.318 658.839 696.005 659.796C696.428 660.036 696.822 660.404 697.059 660.793C698.506 663.172 699.654 665.734 699.146 668.397C698.96 669.373 697.158 670.7 695.958 670.818C693.449 671.065 690.902 670.944 688.4 669.773C686.139 668.715 683.608 668.146 681.776 666.4C681.443 666.082 680.678 666.111 680.28 666.018C678.855 668.843 677.773 671.658 676.042 674.122C675.236 675.27 674.198 677.199 671.764 676.622C668.746 675.907 667.95 674.592 667.92 672.044C667.883 668.946 669.068 666.349 670.68 663.668C673.105 659.635 674.56 655.083 677.457 651.369C678.756 649.704 677.957 647.595 679.911 646.401C684.031 643.882 685.436 639.507 688.705 636.397C690.474 634.714 691.87 632.504 694.015 631.401C698.128 629.287 700.081 624.892 705.035 623.75C705.713 623.593 706.081 622.563 706.71 622.046C707.58 621.331 708.561 620.718 709.494 620.062C709.86 620.097 710.225 620.133 710.591 620.168C709.988 619.138 709.529 618.014 708.752 617.096C707.278 615.355 705.365 613.868 704.096 612.03C701.47 608.23 700.292 607.612 695.141 608.206C693.821 608.358 691.878 607.977 691.289 608.608C690.199 609.774 689.767 611.475 689.296 613.009C688.287 616.3 685.311 618.541 681.27 618.815C679.359 618.944 677.442 619.022 675.525 619.083C671.963 619.198 670.892 620.175 670.447 623.281C670.293 624.36 669.514 625.371 668.971 626.516C669.265 626.733 669.567 627.151 669.91 627.179C674.322 627.539 675.678 631.095 678.279 633.322C679.581 634.437 679.116 635.485 677.618 636.312C676.744 636.794 675.928 637.391 675.204 638.038C673.309 639.731 670.926 640.019 668.727 638.532C666.524 637.042 664.534 635.312 662.329 633.826C661.265 633.109 659.921 632.71 658.703 632.167C658.472 632.399 658.24 632.632 658.009 632.864C659.173 634.586 660.148 636.438 661.542 638.002C663.943 640.694 664.716 643.571 663.243 645.789C661.58 648.292 656.948 650.03 653.59 648.817C651.946 648.224 650.423 646.553 649.683 645.052C648.682 643.022 648.316 640.704 648.026 638.475C647.902 637.52 648.654 636.477 649.043 635.372C647.669 633.894 648.104 631.759 650.854 630.763C653.659 629.748 654.533 627.968 655.457 625.769C657.224 621.561 660.353 618.616 665.801 618.818C665.191 616.214 664.642 613.874 664.099 611.56C660.805 612.529 658.145 611.828 656.581 609.067C656.191 608.378 656.551 606.679 657.156 606.388C658.294 605.842 659.864 605.862 661.249 605.885C662.119 605.899 662.966 606.513 663.846 606.568C665.748 606.687 666.935 606.044 668.17 604.465C670.838 601.054 674.87 599.209 679.575 598.284C683.563 597.5 683.83 596.324 681.333 593.418C678.086 589.64 678.182 587.219 681.687 583.498C681.948 583.221 682.02 582.808 682.201 582.293C682.222 582.128 682.225 582.125 682.225 582.125C683.808 582.253 684.833 581.134 684.448 579.656C684.314 579.141 683.841 578.617 683.923 578.151C684.31 575.943 684.483 574.119 680.772 575.178C680.314 575.309 679.475 574.415 678.792 573.983C679.415 573.083 679.886 572.403 680.623 571.337C677.384 571.113 675.109 570.057 674.74 566.89C673.799 567.62 673.307 568.001 672.789 568.403C671.607 567.89 670.4 567.366 668.734 566.643C669.275 568.964 669.836 571.015 667.248 571.619C664.195 569.855 661.385 568.256 658.611 566.611C657.966 566.229 656.921 565.646 656.968 565.234C657.074 564.298 657.699 563.392 658.201 562.513C658.5 561.988 659.409 561.359 659.267 561.089C658.963 560.505 658.2 559.785 657.549 559.721C655.587 559.528 653.623 559.328 652.558 561.574C651.677 563.432 650.18 563.304 648.437 562.013C647.101 561.024 646.015 560.082 645.33 558.609C644.538 556.911 643.719 555.48 646.239 554.395C646.511 554.277 646.701 553.536 646.54 553.257C646.378 552.976 645.657 552.697 645.306 552.788C643.241 553.322 642.056 552.44 640.923 551.079C639.546 549.422 635.887 549.077 634.057 550.289C632.981 551.002 633.442 553.544 634.288 555.267C635.042 556.803 634.853 558.676 635.448 560.297C636.359 562.78 634.718 563.726 632.715 564.867C631.22 565.719 630.122 567.101 628.825 568.227C626.729 570.044 625.79 569.995 624.022 568.01C622.015 565.756 621.039 565.583 618.127 566.966C615.532 568.197 614.288 567.963 612.619 565.929C611.226 564.231 608.816 563.768 606.728 564.878C605.468 565.548 604.369 566.473 603.061 567.039C601.916 567.535 600.579 567.689 599.156 568.035C598.182 570.104 596.97 572.589 595.858 575.108C595.628 575.628 595.472 576.474 595.786 576.827C597.228 578.451 596.594 579.942 595.81 581.548C594.853 583.51 593.471 584.057 591.343 582.997C589.76 582.208 587.981 581.484 586.83 580.321C584.924 578.396 583.001 579.101 581.011 579.778C579.043 580.448 577.255 580.98 576.544 583.362C575.987 585.227 574.058 587.19 572.122 588.22C569.747 589.485 569.123 591.311 568.254 593.218C568.063 593.638 567.944 594.201 567.576 594.423C564.661 596.18 561.718 597.902 558.733 599.565C557.529 600.235 556.199 600.73 554.553 601.474C554.231 601.35 553.461 601.056 552.25 600.592C552.187 601.413 551.99 602.035 552.121 602.599C553.003 606.407 552.686 607.218 548.628 608.782C546.999 609.41 545.612 609.962 544.615 611.381C543.681 612.709 542.203 612.76 540.782 611.425C539.521 612.861 538.199 614.191 537.139 615.666C536.755 616.201 536.996 617.081 537.009 618.084C537.202 620.596 537.314 622.83 537.498 625.059C537.526 625.397 537.887 625.714 538.094 626.041C538.794 628.926 539.495 631.811 540.195 634.696C539.952 634.787 539.708 634.878 539.465 634.97C540.129 635.051 540.815 635.065 541.455 635.224C545.423 636.203 545.586 636.6 543.328 639.571C541.706 641.707 542.026 642.831 545.115 645.719C545.054 646.945 544.74 647.88 544.74 648.815C544.74 649.478 545.096 650.173 545.456 650.78C545.527 650.898 546.542 650.83 546.786 650.588C548.593 648.795 550.314 646.936 552.063 645.098C553.268 645.197 554.474 645.296 555.679 645.396C555.684 645.577 555.688 645.759 555.693 645.94C556.52 645.504 557.348 645.068 558.356 644.616C557.748 645.653 558.124 646.133 559.311 646.911C561.08 648.07 563.051 649.524 563.768 651.23C564.428 652.801 564.012 655.046 563.212 656.67C562.429 658.259 560.567 659.441 559.171 660.795C558.383 661.559 557.58 662.309 556.62 663.22C552.424 660.871 547.88 658.739 545.515 654.514C543.16 655.767 540.908 657.251 538.391 658.188C537.116 658.662 535.27 658.415 533.841 658.035C528.985 656.745 529.31 652.915 528.706 649.55C528.52 648.516 528.335 647.396 527.75 646.52C526.685 644.924 526.058 643.524 527.834 641.99C528.163 641.706 528.248 640.973 528.101 640.536C527.193 637.832 526.186 635.153 525.099 632.334C524.837 631.692 524.689 631.18 524.507 630.328C523.954 629.029 523.435 628.07 522.915 627.112C523.748 625.708 524.877 624.314 522.875 622.826C522.73 623.216 522.564 623.664 522.212 624.245C521.796 624.37 521.566 624.363 521.336 624.356C521.207 623.854 521.077 623.351 520.881 622.551C520.81 622.046 520.806 621.84 520.802 621.634C520.207 620.318 519.612 619.002 518.846 617.482C519.189 615.558 517.742 615.759 516.607 615.655C516.372 615.523 516.138 615.391 515.683 615.129C515.334 614.886 515.204 614.774 515.075 614.662C514.997 614.227 514.919 613.791 514.856 613.439C514.057 613.439 513.419 613.439 512.486 613.302C511.563 613.077 510.935 612.989 510.135 612.901C509.732 612.902 509.502 612.903 509.098 612.888C508.694 612.85 508.464 612.827 508.133 612.708C507.591 612.502 507.151 612.391 506.71 612.279C506.82 612.648 506.93 613.017 507.064 613.554C507.122 614.059 507.154 614.397 507.187 614.734C507.252 615.254 507.152 615.851 507.414 616.278C508.091 617.378 508.928 618.403 509.739 619.8C509.781 620.507 509.785 620.871 509.788 621.235C509.783 621.55 509.777 621.865 509.775 622.51C509.953 623.373 510.127 623.907 510.302 624.441C510.193 624.664 510.084 624.887 509.724 625.277C509.05 626.163 508.628 626.883 508.206 627.603C507.501 627.598 506.797 627.592 505.846 627.448C504.73 627.085 503.862 626.862 502.993 626.638C502.072 626.074 501.075 625.583 500.247 624.929C498.472 623.526 497.946 621.804 499.281 619.579C494.823 619.534 490.892 619.747 487.468 622.043C486.98 622.37 485.963 622.819 485.796 622.674C484.268 621.348 483.017 621.77 481.438 622.702C480.065 623.512 477.498 622.127 476.712 620.261C476.192 619.027 475.65 619.021 474.212 619.375C472.464 619.805 470.48 619.527 468.6 619.496C468.03 619.486 467.257 619.01 466.932 619.204C464.511 620.647 462.068 619.511 459.621 619.476C457.512 619.446 455.082 618.416 453.056 620.595C452.223 620.787 451.663 620.801 451.103 620.816C449.901 620.516 448.716 620.128 447.491 619.936C445.87 619.682 444.217 619.581 442.264 619.358C441.951 619.302 441.708 619.266 441.708 619.266C439.99 618.766 438.455 618.332 436.528 619.248C434.422 620.249 433.418 618.09 432.685 617.049C431.631 615.554 430.464 615.236 428.684 615.155C425.788 615.023 422.907 614.636 419.758 614.231C419.388 613.991 419.278 613.877 419.165 613.766C417.88 611.805 415.788 612.316 413.602 612.42C413.377 612.412 413.332 612.407 413.207 612.324C412.684 612.158 412.285 612.073 411.873 611.96C411.861 611.931 411.823 611.879 411.823 611.879C410.888 611.631 409.952 611.382 408.74 610.974C407.99 610.49 407.517 610.167 406.781 609.665C406.65 610.531 406.576 611.02 406.502 611.509C406.565 612.23 406.578 612.959 406.701 613.672C406.909 614.872 407.71 616.21 407.335 617.227C406.385 619.801 404.922 622.229 403.656 624.712C403.587 624.847 403.387 624.941 403.349 625.076C402.518 627.985 401.597 630.878 400.919 633.814C400.404 636.039 400.823 638.195 401.901 640.332C402.211 640.948 401.258 642.054 400.832 643.086C399.518 644.305 399.142 645.408 400.046 646.91C400.365 647.44 400.081 648.717 399.556 649.082C397.952 650.195 397.552 651.364 398.096 653.078C398.416 654.084 398.155 655.233 398.155 656.612C399.49 655.809 400.659 655.083 401.856 654.393C403.431 653.485 404.85 653.705 406.001 654.987C406.905 655.993 408.079 656.957 408.512 658.118C409.671 661.222 406.6 664.047 402.941 663.449C400.822 663.103 398.701 662.764 397.009 662.49C396.377 664.259 395.773 665.908 395.208 667.567C395.085 667.926 394.95 668.368 395.079 668.693C396.047 671.145 395.275 672.917 393.659 675.224C391.984 677.617 392.31 681.073 391.686 684.052C391.541 684.747 391.283 685.553 390.753 686.036C388.749 687.867 388.362 689.174 390.147 691.208C391.552 692.809 391.334 693.859 389.718 695.086C387.986 696.402 387.76 698.12 388.626 699.9C389.285 701.254 389.065 702.213 387.947 703.412C386.568 704.888 385.284 706.585 387.032 708.745C387.486 709.307 387.141 710.819 386.557 711.49C384.746 713.576 384.177 716.889 385.565 719.329C386.356 720.718 386.348 721.983 384.76 722.967C382.604 724.302 382.882 726.184 383.738 727.853C384.425 729.191 384.445 730.083 383.27 731.113C381.895 732.32 380.743 733.554 378.369 732.736C376.669 732.15 376.058 731.265 376.121 729.805C376.131 729.577 376.184 729.276 376.047 729.13C373.32 726.199 376.014 723.971 377.207 721.477C378.649 718.462 379.985 715.385 379.471 711.973C379.388 711.425 379.666 710.76 379.99 710.254C381.845 707.364 382.656 704.434 381.395 701.12C381.032 700.164 381.42 698.829 381.89 697.821C383.235 694.936 384.207 692.135 382.745 689.003C382.402 688.27 382.816 687.014 383.358 686.261C384.997 683.988 385.507 681.692 384.638 679.078C384.411 678.397 384.694 677.421 385.12 676.77C386.533 674.609 387.177 672.512 386.052 670.022C385.712 669.269 386.263 667.917 386.906 667.169C388.556 665.248 388.633 663.402 387.806 661.166C387.431 660.152 387.818 658.573 388.54 657.667C390.179 655.606 390.484 653.688 389.768 651.228C389.308 649.649 389.938 647.745 390.408 646.057C391.077 643.654 392.91 641.384 390.967 638.718C390.737 636.571 390.604 634.519 393.239 633.392C393.411 633.318 393.182 632.524 393.045 631.94C392.986 631.191 393.023 630.568 393.155 629.89C393.186 629.538 393.122 629.24 393.05 628.75C393.179 627.014 393.315 625.469 393.452 623.924C393.664 622.572 393.834 621.214 394.101 619.871C394.332 618.705 394.729 617.564 394.95 616.397C395.158 615.3 395.232 614.183 395.549 612.791C395.984 610.88 396.328 609.258 396.451 607.622C396.539 606.459 395.677 606.223 394.536 606.591C391.364 606.15 388.768 604.531 385.705 603.232C385.357 602.978 385.231 602.884 385.084 602.811C384.997 602.808 384.909 602.806 384.648 602.711C384.177 602.672 383.88 602.724 383.583 602.777C381.393 602.779 379.203 602.781 376.615 602.79C374.322 603.094 372.428 603.393 370.535 603.691C369.333 604.276 368.132 604.861 366.651 605.614C366.13 606.172 365.888 606.562 365.646 606.952C365.646 606.952 365.673 606.938 365.571 606.987C365.337 607.136 365.231 607.254 365.151 607.39C364.005 607.871 362.858 608.351 361.328 608.828C358.106 608.246 354.973 610.361 351.94 608.204C351.244 608.377 350.168 608.644 349.093 608.912C348.449 608.962 347.564 608.794 347.201 609.1C345.479 610.556 343.53 609.911 342.183 609.109C339.428 607.469 336.996 605.407 334.469 603.481C334.037 603.152 333.533 602.643 333.51 602.2C333.418 600.356 332.383 600.602 330.868 600.956C329.184 601.349 327.767 601.004 326.804 599.358C325.544 597.204 324.097 595.076 322.334 593.227C321.195 592.032 319.346 591.358 317.585 590.381C317.287 590.278 317.218 590.244 317.149 590.21C317.25 590.272 317.35 590.334 317.45 590.396C317.999 593.804 316.995 594.659 312.914 594.259C312.962 597.291 313.218 600.254 315.608 602.737C316.079 603.227 316.288 603.979 316.416 604.641C317.046 607.89 318.035 610.976 320.742 613.455C321.153 613.831 321.346 614.543 321.334 615.094C321.29 617.049 321.02 619.001 321.011 620.955C320.999 623.418 321.503 623.656 324.462 622.357C324.78 623.908 324.897 625.383 325.422 626.736C325.805 627.721 326.871 628.488 327.378 629.454C328.715 632.001 329.843 634.633 331.203 637.17C331.71 638.116 332.435 639.166 333.399 639.694C336.173 641.213 335.912 643.495 335.739 645.773C335.691 646.408 335.314 647.066 334.93 647.631C333.795 649.3 332.381 650.846 331.444 652.592C329.976 655.326 326.858 656.615 323.73 655.476C323.422 655.364 323.11 655.177 322.904 654.951C322.009 653.971 321.19 652.936 320.27 651.974C319.327 650.988 318.299 650.064 317.201 649.01C317.654 648.393 318.188 647.879 318.442 647.275C319.008 645.932 318.908 644.755 316.801 644.763C314.447 644.772 314.264 643.617 314.71 642.03C314.83 641.603 315.149 641.035 314.957 640.752C312.263 636.797 312.964 632.18 311.669 627.954C310.916 625.497 310.652 622.926 310.09 620.42C309.945 619.774 309.467 619.191 309.209 618.558C308.869 617.725 308.596 616.872 308.239 615.873C307.44 614.675 306.356 613.34 305.615 611.873C304.177 609.026 303.051 606.053 301.527 603.245C301.117 602.491 299.648 601.606 298.816 601.709C296.328 602.018 293.913 602.782 291.473 603.381C291.225 603.441 290.997 603.682 290.771 603.671C285.869 603.438 283.568 607.216 280.054 609.094C278.741 609.796 278.062 611.355 276.923 612.376C275.247 613.878 273.403 615.237 271.657 616.681C270.724 617.453 269.845 618.276 268.727 619.294C268.4 619.758 268.287 620.005 268.175 620.253C268.175 620.253 268.186 620.25 268.022 620.254C267.485 620.354 267.112 620.452 266.739 620.55C266.873 620.756 267.007 620.963 267.141 621.169C266.31 622.138 265.478 623.107 264.445 624.22C264.157 624.37 264.07 624.376 263.982 624.382C262.63 626.433 261.277 628.484 259.86 630.677C256.921 632.612 255.658 635.275 254.077 637.928C253.141 639.498 252.01 641.298 250.505 642.838C248.038 645.361 244.115 646.881 243.153 650.671C242.744 652.284 240.907 653.622 239.704 655.076C239.352 655.501 238.676 655.865 238.613 656.307C237.897 661.31 232.533 664.347 231.533 669.223C231.477 669.494 230.948 669.691 230.542 669.994C230.34 667.282 230.145 664.753 229.972 662.224C229.952 661.925 229.925 661.503 230.121 661.335C232.916 658.945 232.73 655.505 234.16 652.64C234.265 652.43 234.347 652.144 234.541 652.047C237.143 650.744 237.626 648.175 239.247 646.11C239.382 646.01 239.353 645.983 239.353 645.983C241.021 642.537 242.688 639.091 244.489 635.548C244.623 635.453 244.598 635.415 244.598 635.415C246.417 632.23 248.256 629.053 250.044 625.854C250.577 624.9 250.968 623.886 251.459 622.728C252.964 621.544 254.433 620.531 256.049 619.417C254.042 617.743 256.407 616.279 257.192 614.297C258.483 612.871 259.66 611.74 260.836 610.609C261.735 610.14 262.776 609.795 263.486 609.164C264.047 608.665 264.255 607.829 264.508 607.112C264.593 606.872 264.15 606.468 264.255 606.256C265.595 603.552 264.316 603.187 261.603 603.803C261.345 603.861 260.471 602.882 260.397 602.331C260.126 600.303 258.73 599.892 256.883 600.405C254.217 601.146 252.781 600.115 251.728 598.138C251.469 597.652 250.933 597.243 250.434 596.899C249.587 596.315 248.669 595.81 247.909 595.089C246.068 594.676 244.58 595.192 243.419 596.752C242.428 598.083 239.712 597.317 238.669 595.532C237.133 592.907 234.76 590.96 232.04 589.3C231.76 589.129 231.188 588.965 231.203 588.837C231.457 586.57 230.201 584.88 228.735 583.164C227.911 582.199 227.389 580.968 227.021 579.787C226.549 578.275 226.343 576.696 226.074 575.139C225.931 574.312 225.898 573.471 225.995 572.44C228.156 571.241 228.338 570.06 226.731 568.117C226.392 568.201 226.118 568.369 225.856 568.687C225.825 569.133 225.783 569.43 225.741 569.727C222.506 569.739 219.298 569.781 216.569 567.779C216.005 567.366 214.899 567.429 214.044 567.431C211.215 567.44 208.845 566.921 208.434 563.961C208.007 564.009 207.588 563.971 207.536 564.075C206.076 566.962 203.17 566.21 200.795 565.829C198.273 565.424 198.332 563.012 197.495 561.339C197.171 560.69 196.83 559.899 196.217 559.534C191.502 556.731 190.882 550.734 195.257 547.763C196.333 547.032 198.07 546.81 199.507 546.8C200.788 546.791 201.639 547.012 201.811 545.499C202.059 543.309 203.811 542.44 206.243 543.044C207.594 543.379 208.968 543.647 210.537 543.991C209.921 540.675 211.408 539.073 215.677 538.647C218.524 538.362 220.434 537.075 222.32 535.453C223.23 534.67 224.345 534.071 225.351 533.399C224.896 531.35 222.062 530.378 222.424 527.963C222.669 526.327 226.699 522.358 228.486 521.993C232.428 521.186 236.384 520.362 240.196 519.197C240.874 518.99 241.486 516.881 241.079 516.043C240.25 514.337 238.512 512.99 239.235 510.811C239.372 510.401 238.866 509.639 238.407 509.294C235.002 506.729 231.594 504.161 228.064 501.731C225.486 499.957 222.781 498.309 220.018 496.762C217.661 495.443 213.747 496.303 211.615 498.183C211.102 498.634 209.943 498.522 208.627 498.747C207.803 499.813 207.115 501.918 204.269 501.049C204.118 501.002 203.469 501.587 203.525 501.76C203.673 502.217 203.993 502.883 204.4 502.984C207.674 503.795 208.09 506.075 208.3 508.507C208.332 508.883 208.362 509.5 208.592 509.583C210.973 510.446 209.685 511.707 209.047 513.036C208.483 513.338 207.892 513.395 207.544 513.68C206.426 514.595 205.93 516.413 203.651 515.439C202.208 514.821 200.609 514.461 199.222 513.767C197.958 513.134 196.885 512.207 195.56 511.358C195.286 509.537 194.406 507.675 196.44 505.938C197.096 505.15 197.504 504.553 197.912 503.956C197.404 503.833 196.897 503.709 196.39 503.585C196.564 502.972 196.738 502.36 197.006 501.416C194.593 501.417 192.105 503.892 189.676 501.207C187.737 499.546 186.038 498.099 184.34 496.653C183.048 495.549 181.779 494.424 180.459 493.348C179.588 492.638 180.276 489.386 181.651 488.257C183.047 487.111 184.623 486.118 185.912 484.89C186.743 484.099 187.199 483.006 187.692 481.672C184.154 482.909 181.347 481.926 178.577 480.328C177.913 479.945 176.717 480.271 176.396 480.271C175.031 479.251 174.029 478.535 173.072 477.776C172.56 477.369 171.76 476.913 171.718 476.437C171.551 474.505 169.746 474.354 168.32 473.779C166.305 472.966 165.401 474.214 164.223 475.31C163.579 475.91 162.326 476.008 161.588 476.252C160.95 477.195 160.507 478.677 159.668 478.876C158.62 479.124 157.035 478.563 156.054 477.918C153.222 476.055 151.113 476.505 149.967 479.412C149.819 479.787 149.303 480.398 149.104 480.357C145.411 479.595 143.55 482.273 141.3 483.799C139.142 485.261 137.685 483.582 135.917 483.587C135.61 483.587 135.317 482.173 134.981 481.425C134.801 481.023 134.543 480.648 134.321 480.261C133.76 480.527 132.951 480.669 132.681 481.082C131.656 482.651 130.651 482.528 129.289 481.04C128.407 480.406 127.753 479.711 127.032 479.651C125.275 479.505 123.486 479.674 121.71 479.682C115.383 479.71 109.056 479.725 102.729 479.744C99.1603 479.902 96.9172 482.134 94.3645 483.872C93.9641 484.144 93.681 484.549 93.2107 485.029C91.2004 483.485 90.2906 484.63 89.0115 486.031C88.0125 487.125 86.1593 487.59 84.784 488.454C81.7564 490.358 78.8787 492.454 75.774 494.251C72.9375 495.893 69.4696 496.852 67.0263 498.823C63.8323 501.4 59.953 500.84 56.0058 501.766C55.017 501.94 54.4235 502.065 53.83 502.19C52.6589 501.13 51.7972 500.981 51.1479 502.661C50.936 503.209 50.0807 503.567 49.2565 503.988C48.8386 503.917 48.6963 503.941 48.5667 504.035C48.5667 504.035 48.5844 504.034 48.3603 504.018C46.8712 504.16 45.6062 504.317 44.3412 504.475C43.0001 504.606 41.659 504.737 40.0722 504.892C39.4689 505.354 38.429 506.042 37.557 506.867C37.1538 507.248 36.7093 508.08 36.913 508.393C38.4108 510.697 36.4113 511.322 34.4016 512.253C32.9172 512.515 31.7749 512.753 30.6239 512.791C28.7568 512.852 26.8841 512.783 25.0138 512.77C24.4765 512.422 23.6934 512.177 23.4408 511.711C21.4639 508.062 19.5887 504.37 17.846 500.485C18.6016 499.54 19.1932 498.802 19.7849 498.065C21.1963 497.137 22.6077 496.21 24.4151 495.023C23.7423 493.216 25.7079 491.952 27.7205 491.532C30.083 491.039 32.7746 490.031 35.1299 491.995C35.7628 492.523 36.8341 493.03 37.6338 492.957C41.4908 492.604 44.9965 492.013 47.9736 489.084C50.3238 486.771 50.9297 483.563 54.0176 481.676C55.8372 480.564 56.9827 479.989 59.0346 481.123C61.1095 482.271 63.5107 483.819 65.719 483.759C71.2641 483.611 76.8283 482.866 82.2906 481.936C85.2574 481.431 88.5604 481.017 90.5736 478.495C91.168 477.751 91.7824 477.014 92.4544 476.323C93.3563 475.396 94.3232 474.518 95.417 473.47C93.7754 471.293 96.7335 470.75 97.9773 469.34C98.7581 469.797 99.4205 470.185 100.083 470.573C98.3375 466.224 101.808 462.618 101.663 458.618C103.108 458.618 104.357 458.813 105.466 458.553C106.268 458.364 106.926 457.607 107.567 457.033C107.911 456.725 108.003 456.003 108.346 455.924C111.047 455.303 113.19 452.914 116.595 454.348C118.385 455.101 120.203 454.131 120.896 452.36C121.284 451.368 121.342 450.27 121.484 449.213C121.643 448.03 122.225 447.592 123.601 448.011C124.524 448.292 125.514 448.406 126.416 448.583C126.233 446.921 125.389 445.129 126.072 444.267C127.673 442.246 130.015 440.679 132.036 438.91C132.643 438.378 133.199 437.8 133.752 437.223C134.689 436.244 135.385 434.77 136.572 434.351C140.173 433.08 140.515 430.188 141.473 427.613C141.749 426.871 141.28 425.917 141.153 425.059C140.197 425.218 139.241 425.374 138.287 425.539C138.034 425.583 137.788 425.656 137.671 425.685C135.973 424.088 134.261 422.612 132.736 421C131.624 419.825 131.792 418.732 134.014 418.122C134.954 417.484 135.53 416.902 136.106 416.319C136.106 416.319 136.131 416.303 136.237 416.23C136.465 416.062 136.571 415.954 136.661 415.834C137.17 415.5 137.908 415.259 138.144 414.814C138.772 413.628 139.184 412.355 139.88 410.854C140.333 409.885 140.587 409.179 140.841 408.473C141.255 407.755 141.67 407.037 142.306 406.261C142.573 406.155 142.668 406.085 142.655 406.063C142.585 405.943 142.488 405.836 142.4 405.725C142.4 405.725 142.4 405.729 142.421 405.555C142.599 404.581 142.756 403.78 142.913 402.98C142.917 402.64 142.921 402.3 143.016 401.683C143.046 401.007 142.985 400.607 142.924 400.207C142.976 396.454 142.367 392.839 139.326 389.971C138.533 389.224 139.467 386.829 136.496 387.775C133.748 387.929 131.299 388.086 128.746 388.346C128.515 388.697 128.388 388.946 128.261 389.194C125.223 390.485 122.084 391 118.425 390.016C116.681 387.92 115.105 388.531 113.496 389.652C112.055 390.047 110.615 390.443 108.887 390.926C108.599 391.014 108.339 391.018 108.339 391.018C106.483 390.129 104.956 390.559 103.94 392.077C101.921 395.095 98.5239 395.581 94.7865 396.103C94.3892 396.308 94.2752 396.42 94.179 396.546C92.895 399.817 91.1611 400.201 87.7577 398.733C86.635 398.249 83.6613 398.85 83.3231 399.587C82.2197 401.989 79.718 402.248 77.438 403.374C77.1426 403.439 76.8945 403.436 76.8945 403.436C75.4386 403.999 73.9827 404.561 72.257 405.261C71.856 405.498 71.7386 405.609 71.635 405.731C71.1309 406.243 70.6267 406.755 70.1012 407.419C67.9774 407.619 65.9428 407.715 64.4515 405.896C64.034 405.387 62.7099 405.284 61.7985 405.277C56.2161 405.227 50.5095 404.641 45.0916 405.472C41.2125 406.067 36.7629 405.3 33.3345 407.871C33.0426 408.09 32.347 408.041 31.8996 407.93C29.798 407.407 28.0165 407.674 26.4509 409.14C25.9899 409.571 25.0749 409.819 24.3635 409.826C19.1304 409.881 13.8961 409.855 8.66217 409.845C8.31709 409.845 7.86781 409.881 7.6428 409.717C4.16194 407.166 -0.199249 408.262 -4.09263 407.464C-6.3503 407.002 -8.53207 406.174 -10.6648 405.346C-12.8802 404.486 -15.0421 403.496 -17.1202 402.405C-17.6203 402.143 -17.8862 401.271 -17.9299 400.661C-18.0298 399.264 -18.0386 397.844 -17.8526 396.458C-17.7722 395.858 -17.1185 395.318 -16.5384 394.742C-13.7152 396.043 -11.1044 397.466 -7.58656 396.268C-3.73382 398.583 0.571989 398.089 4.53388 398.843C4.53388 398.843 4.5503 398.854 4.69159 398.945C5.26668 399.125 5.70048 399.212 6.13429 399.3C7.19318 399.457 8.25207 399.613 9.53639 399.785C9.76183 399.8 9.78314 399.83 9.78314 399.83C12.7589 400.123 15.7292 400.592 18.7118 400.662C22.2209 400.745 25.7407 400.481 29.6234 400.209C31.452 398.765 33.1745 398.802 35.0921 399.051C38.5891 399.506 41.5053 398.376 43.8496 396.082C44.4503 395.832 45.0509 395.582 45.9201 395.267C46.1888 395.202 46.4412 395.225 46.451 395.321C46.4608 395.416 46.4722 395.609 46.653 395.712C49.0327 395.974 51.332 396.922 53.2908 395.187C53.2908 395.187 53.3162 395.182 53.4476 395.185C53.5789 395.188 53.8258 395.204 53.8258 395.204C54.8212 395.25 55.8178 395.281 56.8115 395.346C57.7886 395.411 58.7626 395.511 60.095 395.711C62.4385 396.067 64.425 396.307 66.5536 396.496C66.9555 396.179 67.2154 395.914 67.6028 395.644C67.7302 395.639 67.9849 395.626 67.9849 395.626C70.257 395.629 72.529 395.632 75.1381 395.773C77.0554 397.139 78.1262 396.504 79.0049 395.169C82.6129 395.292 84.8831 392.814 87.8403 391.672C88.632 391.366 89.3863 390.985 90.4473 390.685C92.3408 391.47 91.9373 390.313 92.0607 389.654C93.0235 389.402 94.0785 389.289 94.9221 388.858C95.7068 388.457 96.2662 387.717 96.9536 386.9C97.1773 386.462 97.3722 386.25 97.6243 386.028C97.6817 386.019 97.7954 385.996 97.944 385.942C98.37 385.615 98.6474 385.342 98.9247 385.069C99.083 384.706 99.2413 384.342 99.4403 383.676C99.9852 382.25 100.49 381.128 100.994 380.007C103.65 377.784 106.426 375.658 108.929 373.311C111.388 371.005 113.979 368.709 115.046 365.546C115.954 362.855 117.272 362.34 120.14 363.329C120.799 363.556 121.826 362.963 122.683 362.748C122.185 362.155 121.741 361.099 121.179 361.049C118.227 360.785 118.955 359.782 120.71 358.272C119.763 358.171 119.149 358.085 118.532 358.045C117.935 358.007 117.165 358.222 116.763 357.969C114.113 356.302 111.364 354.705 108.997 352.758C106.862 351.002 104.514 349.371 102.352 349.202C104.831 346.774 102.571 346.175 100.68 345.055C99.3186 344.25 98.5711 342.679 97.4269 341.545C96.9016 341.024 96.1151 340.451 95.3893 340.384C92.1448 340.087 91.7342 339.749 92.0327 336.852C92.1718 335.501 91.8068 334.684 90.1692 334.028C86.3088 332.482 82.5406 330.725 78.9052 328.806C78.0159 328.337 77.7812 326.915 77.101 325.857C77.0846 324.818 77.2127 323.852 77.4373 322.72C80.4713 320.823 83.5634 321.346 86.9912 322.224C90.3049 323.719 94.9342 323.411 96.4829 321.766C99.6386 322.775 100.873 319.675 103.387 319.276C104.124 319.159 104.807 318.63 105.527 318.608C108.458 318.519 109.941 317.28 109.838 314.616C109.743 312.165 109.975 309.701 107.767 307.582C106.632 306.493 106.326 304.744 105.624 303.301C105.46 302.963 105.303 302.514 104.987 302.358C100.651 300.214 99.3964 296.84 99.2961 292.678C99.2463 290.612 99.4396 288.768 100.571 287.018C100.963 286.412 101.646 285.949 102.393 285.413C102.591 285.405 102.566 285.375 102.566 285.375C102.82 285.02 103.074 284.665 103.17 284.532C104.279 285.15 105.301 285.574 106.119 286.203C108.269 287.855 110.43 289.515 112.365 291.351C112.945 291.901 112.794 293.041 112.921 293.643C116 293.643 119.235 294.122 122.168 293.505C124.968 292.915 127.49 291.234 130.025 289.876C130.287 289.736 129.893 288.5 129.641 287.818C129.342 287.008 128.368 286.13 128.563 285.486C129.178 283.459 128.024 282.217 126.721 280.844C126.184 280.279 125.886 279.386 125.86 278.633C125.809 277.123 126.617 275.384 126.012 274.133C124.173 270.332 125.496 266.754 126.251 263.093C126.307 262.821 126.299 262.37 126.115 262.256C123.45 260.593 125.797 259.073 126.33 257.071C125.494 256.397 124.431 255.541 123.066 254.628C122.672 254.575 122.581 254.579 122.491 254.584C122.491 254.584 122.486 254.593 122.499 254.424C122.331 253.747 122.15 253.241 121.969 252.734C121.8 251.662 121.631 250.589 121.458 249.131C121.437 246.556 121.42 244.367 121.551 242.12C121.653 241.486 121.607 240.909 121.531 240.186C121.457 239.842 121.413 239.646 121.369 239.451C121.476 238.432 121.219 237.215 121.77 236.438C122.683 235.151 124.116 234.148 125.655 233.081C127.767 233.996 129.552 234.854 131.338 235.712C132.2 236.345 132.994 237.082 133.953 237.568C134.481 237.836 135.287 237.683 136.232 237.614C138.668 236.022 138.707 234.616 136.67 231.346C136.796 230.221 136.922 229.097 137.4 227.925C138.361 227.76 139.25 227.822 139.525 227.491C140.418 226.418 139.468 222.598 138.212 221.572C138.394 220.214 138.647 218.86 138.741 217.497C138.866 215.679 139.624 214.278 141.588 213.472C143.616 212.639 144.322 211.512 142.843 209.685C142.4 209.137 142.289 208.183 142.455 207.495C142.928 205.528 142.22 204.078 140.324 203.076C139.687 202.74 138.896 202.618 138.167 202.424C137.532 202.255 136.623 202.306 136.287 201.941C134.836 200.365 133.079 200.525 131.069 200.908C130.943 200.834 130.845 200.819 130.845 200.819C129.506 200.609 128.167 200.399 126.537 200.144C125.601 201.985 124.397 201.537 122.076 200.781C119.174 199.837 118.007 197.259 115.211 196.508C114.811 196.4 114.328 195.843 114.302 195.472C114.189 193.844 113.401 192.958 111.451 192.835C111.094 192.813 110.719 192.09 110.491 191.637C110.044 190.749 109.531 189.846 109.351 188.904C109.195 188.085 109.081 186.763 109.599 186.422C112.949 184.217 112.864 180.327 115.336 177.79C117.648 175.418 120.322 173.319 122.793 171.063C124.889 169.149 127.541 168.385 130.434 168.218C132.522 168.097 134.626 168.195 136.614 168.195C137.949 164.07 137.882 164.076 134.097 162.151C132.265 161.22 130.621 160.004 128.954 158.603C129.128 156.729 129.417 155.159 129.298 153.614C129.202 152.36 128.616 151.136 128.248 149.898C127.099 147.473 125.731 145.106 124.859 142.606C123.783 139.524 123.147 136.325 122.256 133.191C122.097 132.633 121.618 132.144 121.129 131.331C120.947 129.052 120.923 127.066 120.9 125.08C120.907 124.888 120.915 124.695 121.077 124.269C122.135 122.961 123.039 121.888 124.083 120.647C122.241 119.927 121.024 120.139 120.402 121.846C118.611 121.845 116.82 121.844 114.772 121.689C113.152 120.565 111.789 119.596 110.427 118.627C109.551 117.778 108.831 116.713 107.769 116.123C105.335 114.772 104.857 112.462 103.743 110.462C103.537 110.092 103.434 109.516 103.615 109.167C105.199 106.118 106.657 102.993 108.61 100.13C109.253 99.1877 111.235 98.9465 113.299 98.0996C114.239 95.0313 117.703 94.3837 121.743 94.2573C126.035 94.123 129.926 94.706 132.921 97.6526C133.842 98.5584 134.307 99.9023 136.167 99.7584C136.433 99.7377 136.92 100.373 137.05 100.769C137.873 103.27 139.758 104.836 142.436 105.829C143.117 106.082 143.898 106.549 144.189 107.099C144.799 108.251 144.55 110.037 147.074 109.34C147.235 109.296 147.981 110.228 148.074 110.757C148.659 114.111 149.349 117.47 149.544 120.848C149.62 122.162 148.784 123.706 147.865 124.834C145.913 127.231 143.527 129.357 141.567 131.751C141.111 132.308 141.649 133.491 141.764 134.767C141.59 135.184 141.228 136.046 140.882 137.21C140.679 139.008 139.521 140.667 141.855 141.716C142.704 143.62 144.192 145.508 144.253 147.431C144.346 150.361 146.914 151.452 148.447 153.332C148.93 153.924 148.764 154.899 149.006 155.672C149.251 156.454 149.633 157.203 149.955 157.966C150.771 157.6 151.589 157.236 152.404 156.868C152.956 156.619 153.502 156.151 154.056 156.145C157.128 156.11 160.152 156.494 162.708 158.093C163.794 158.771 164.604 159.821 165.431 160.774C166.19 161.648 166.918 162.573 167.432 163.565C167.694 164.071 167.742 164.964 167.401 165.362C164.184 169.114 164.607 170.541 169.704 172.615C170.639 172.996 171.539 173.458 172.504 173.761C173.02 173.923 173.776 174.026 174.19 173.81C175.578 173.089 176.979 172.32 178.132 171.347C178.659 170.902 178.62 169.941 178.927 168.919C180.03 168.98 181.567 169.215 183.067 169.096C184.073 169.016 185.024 168.431 186.003 168.078C186.521 167.89 187.124 167.469 187.555 167.574C190.246 168.235 192.946 168.908 195.554 169.784C198.359 170.725 200.977 172.197 203.851 172.838C205.342 173.17 207.909 172.684 208.759 171.728C210.403 169.876 212.228 169.106 214.777 169.183C213.327 166.46 213.603 165.82 216.954 164.294C217.948 163.841 219.05 163.57 220.297 163.198C220.49 163.181 220.489 163.18 220.489 163.18C221.489 163.623 222.919 163.989 222.753 162.592C222.513 160.568 223.525 160.018 225.408 159.749C225.708 159.706 225.923 159.204 226.318 158.632C227.107 157.667 227.758 156.984 228.408 156.301C228.527 156.211 228.636 156.113 228.894 155.852C229.169 155.602 229.274 155.497 229.367 155.383C230.324 154.971 231.281 154.558 232.518 154.016C232.883 153.468 232.968 153.051 233.053 152.634C233.555 151.364 234.058 150.094 234.783 148.592C236.92 146.318 236.728 143.004 234.641 142.057C234.385 141.799 234.128 141.541 233.671 141.119C233.356 140.841 233.224 140.746 233.076 140.669C233.076 140.669 233.07 140.67 232.956 140.589C232.571 140.416 232.301 140.324 232.031 140.233C231.773 140.098 231.515 139.963 231.016 139.655C229.796 138.797 228.815 138.111 227.835 137.425C227.957 135.71 228.08 133.995 228.467 132.113C229.35 131.826 229.969 131.706 230.658 131.573C230.354 130.778 230.138 130.213 229.922 129.648C229.922 129.571 229.923 129.493 230.086 129.273C230.662 128.993 231.075 128.857 231.488 128.72C232.373 128.311 233.586 128.088 234.058 127.446C234.623 126.678 234.999 125.407 234.663 124.613C234.02 123.095 234.158 121.98 235.83 120.84C236.558 120.217 237.357 119.714 237.364 119.203C237.412 115.662 237.294 112.12 237.227 108.421C237.064 107.88 236.903 107.496 236.743 107.112C236.436 105.978 236.436 105.978 239.623 101.048C238.543 100.756 237.525 100.482 236.266 100.105C235.746 99.4645 235.467 98.9262 235.187 98.3879C234.842 97.2826 234.496 96.1772 234.134 94.9032C234.117 94.7345 234.109 94.7255 234.109 94.7255C236.828 93.7028 235.438 92.9082 233.883 92.1469C234.587 90.532 235.293 88.936 232.598 87.7738C231.667 86.6395 231.061 85.6308 230.455 84.6222C228.126 83.1965 228.935 81.2632 229.353 79.0004C229.345 74.8387 229.337 71.0698 229.33 67.3008C227.474 64.2257 231.049 62.7369 232.024 60.4979C232.171 60.1608 233.525 60.2275 234.449 60.2043C234.578 60.3013 234.655 60.2989 234.655 60.2989C236.853 60.3044 238.751 60.5933 239.659 62.7968C239.952 63.5068 241.205 63.9128 242.143 64.5413C241.865 65.1414 241.589 65.738 241.294 66.3754C244.949 68.927 244.035 72.4562 243.993 75.7511C243.941 79.9446 243.767 84.1387 243.53 88.3275C243.461 89.5502 242.838 90.748 242.76 91.9714C242.697 92.9628 243.072 93.9755 243.396 95.091C243.702 97.0701 244.829 98.9655 243.248 100.795C243.105 100.96 243.588 101.541 244.027 102.07C244.392 102.311 244.504 102.417 244.609 102.528C245.762 103.745 247.083 104.894 245.563 106.645C245.306 106.941 245.571 107.659 245.734 108.146C246.306 109.858 246.938 111.555 247.64 113.588C247.733 114.265 247.733 114.614 247.732 114.963C247.061 116.256 246.376 117.506 248.604 118.281C248.985 118.413 249.077 119.187 249.322 119.983C249.508 120.658 249.674 121.015 249.84 121.372C250.623 123.035 252.618 124.494 250.891 126.778C250.76 127.131 250.795 127.254 250.913 127.361C251.062 127.702 251.211 128.042 251.287 128.635C251.279 129.3 251.345 129.714 251.41 130.127C253.995 132.466 252.125 135.057 251.83 137.836C251.085 138.663 250.467 139.206 249.849 139.749C249.045 140.313 248.231 140.866 247.444 141.446C247.105 141.696 246.822 142.004 246.589 142.513C246.669 142.817 246.673 142.894 246.677 142.971C246.776 143.59 246.935 144.207 246.957 144.828C246.977 145.421 247.121 146.287 246.752 146.566C244.989 147.897 245.824 148.965 247.041 149.982C248.038 150.815 249.883 151.295 248.303 152.945C248.714 153.14 249.126 153.334 249.777 153.617C250.121 153.809 250.236 153.905 250.361 153.991C250.486 154.074 250.606 154.161 250.873 154.434C251.169 154.716 251.314 154.818 251.458 154.921C252.189 155.062 252.92 155.203 253.938 155.512C256.077 155.729 257.929 155.778 259.78 155.827C260.823 155.595 261.866 155.362 263.347 155.032C262.851 155.787 262.59 156.184 262.33 156.581C262.435 156.712 262.541 156.844 262.646 156.975C263.447 156.544 264.314 156.183 265.035 155.667C266.459 154.648 267.373 154.522 267.965 156.379C268.134 156.908 269.201 157.216 269.856 157.625C270.211 157.011 270.566 156.398 271.075 155.626C273.27 156.004 274.358 155.124 274.969 153.535C275.103 153.452 275.229 153.36 275.574 153.181C275.893 153.097 275.986 153.092 276.079 153.087C276.079 153.087 276.3 153.086 276.439 153.165C276.754 153.185 276.928 153.126 277.103 153.066C277.662 149.264 280.49 147.477 284.436 146.567C286.667 146.053 286.701 144.463 286.279 142.884C285.52 140.05 285.706 139.786 288.837 139.358C289.232 139.304 289.908 138.528 289.815 138.364C287.953 135.062 288.969 131.877 290.163 128.677C290.291 128.334 290.177 127.921 290.32 127.239C290.746 126.483 291.249 126.037 291.27 125.573C291.486 120.797 291.625 116.017 291.785 111.238C290.173 108.265 292.83 106.267 293.897 103.876C294.975 101.463 295.557 98.8719 296.725 96.4986C297.988 93.9332 299.095 90.9245 301.364 89.2422C303.264 87.8337 305.36 86.4751 307.315 85.0128C309.905 83.0744 312.606 81.2432 315.343 79.4656C315.827 79.1513 316.734 79.2323 317.425 79.2976C318.11 79.3623 318.77 79.6377 319.14 79.7388C319.621 76.2436 320.061 73.0398 320.553 69.4474C320.759 66.4577 320.912 63.8566 321.066 61.2555C322.043 60.4065 322.991 59.5294 324.005 58.7164C325.053 57.8766 327.438 58.3984 328.638 59.4468C329.494 60.195 330.581 60.8404 331.701 61.2352C333.729 61.9499 335.39 62.7286 335.899 64.8773C336.164 65.9949 337.04 67.0872 337.914 67.9873C339.133 69.244 339.255 70.3384 337.691 71.2675C333.291 73.8802 332.859 77.8495 333.228 81.8755C333.358 83.2913 334.732 84.7285 335.848 85.9366C337.07 87.261 338.65 88.3319 340.165 89.5886C339.826 90.2225 339.516 90.8028 339.237 91.3253C341.898 92.9219 344.749 94.1637 346.856 96.0452C348.518 97.5291 349.308 99.7816 350.403 101.728C351.224 103.188 351.84 104.737 352.68 106.188C353.772 108.075 354.191 109.81 352.524 111.695C351.508 112.845 350.402 114.191 351.721 116.062C351.952 117.652 352.02 119.006 352.088 120.361C351.564 122.427 351.041 124.493 350.323 126.743C349.893 126.931 349.658 126.935 349.367 126.825C348.986 126.644 348.66 126.578 348.334 126.512C348.379 126.952 348.424 127.393 348.501 128.013C349.001 129.891 349.47 131.589 349.939 133.287C350.155 133.851 350.278 134.462 350.604 134.971C352.53 137.973 352.494 138.287 349.575 140.843C349.355 142.281 349.25 143.404 349.155 144.528C349.018 146.141 348.889 147.754 348.756 149.367C348.493 150.261 348.41 151.238 347.934 152.035C346.479 154.476 345.005 156.928 343.238 159.196C342.747 159.826 341.203 160.109 340.164 160.072C337.616 159.982 337.244 160.374 337.816 162.475C338.084 163.462 337.67 164.591 337.362 165.93C337.047 166.733 336.937 167.262 336.826 167.79C337.114 168.762 337.403 169.735 337.885 170.913C338.367 171.077 338.656 171.034 338.945 170.99C339.505 170.988 340.064 170.986 340.937 171.096C342.246 172.758 343.184 171.951 344.043 171.116C345.044 170.142 345.976 169.113 347.007 168.036C346.801 167.342 346.525 166.416 346.249 165.49C347.073 164.353 347.896 163.216 348.927 161.829C349.856 160.824 350.534 160.03 351.311 159.321C353.278 157.525 355.29 155.768 357.283 153.995C359.219 153.684 361.155 153.373 363.011 153.075C362.447 150.371 361.881 147.659 361.359 144.61C361.578 141.727 361.752 139.182 361.927 136.637C363.25 135.155 364.551 133.657 365.91 132.201C366.219 131.871 366.708 131.65 367.152 131.439C368.202 130.942 369.275 130.482 370.338 130.006C370.273 129.776 370.207 129.546 370.142 129.316C371.159 129.415 372.177 129.513 373.628 129.607C375.512 129.72 376.974 129.989 378.413 129.912C379.892 129.832 382.242 130.508 381.753 127.853C382.452 126.899 383.031 125.851 383.887 125.022C384.576 124.355 385.598 123.953 386.477 123.439C386.543 123.4 386.693 123.436 386.725 123.393C388.426 121.049 390.979 120.494 393.962 120.326C394.47 120.297 394.956 118.128 395.199 116.909C395.388 115.956 394.998 114.908 395.229 113.971C395.361 113.432 396.546 112.557 396.702 112.64C399.327 114.029 401.737 108.855 404.329 112.457C404.646 112.897 404.917 113.364 405.186 113.782C408.197 113.16 411.132 112.572 414.053 111.931C414.509 111.831 414.896 111.491 415.314 111.261C417.522 110.044 419.729 108.826 422.374 107.599C426.811 107.623 430.812 107.657 434.814 107.69C436.249 108.259 437.685 108.827 439.232 109.44C438.897 110.297 438.657 110.911 438.406 111.552C438.727 111.715 438.988 111.955 439.149 111.912C440.464 111.558 441.841 111.287 443.045 110.733C445.922 109.408 448.385 109.68 451.112 111.323C452.656 112.254 454.707 112.521 456.331 113.376C457.76 114.129 458.908 115.289 460.19 116.259C460.514 116.504 460.887 116.916 461.219 116.902C463.615 116.803 464.306 117.871 463.671 119.941C466.932 119.39 467.882 120.715 468.534 123.154C468.929 124.634 470.903 125.807 472.217 127.079C475.543 130.301 472.869 136.032 469.233 137.775C468.657 138.05 468.107 138.369 468.068 138.39C469.684 140.801 471.096 143.041 472.684 145.181C473.088 145.727 474.033 146.241 474.762 146.279C478.917 146.496 483.083 146.523 487.241 146.698C489.378 146.789 491.505 147.052 493.629 147.237C494.307 143.17 495.809 142.396 500.47 142.349C502.645 142.327 504.863 141.258 506.953 140.449C508.867 139.707 510.549 138.735 512.874 139.476C513.561 139.695 515.441 138.851 515.565 138.29C515.976 136.42 517.517 136.36 519.448 136.04C522.075 136.211 524.282 136.572 526.474 136.51C527.518 136.48 528.532 135.646 529.56 135.175C532.751 136.47 534.917 135.6 537.252 133.293C538.492 132.068 541.32 132.098 543.407 131.498C544.13 131.29 544.882 130.989 545.445 130.556C546.958 129.39 548.378 128.132 549.832 126.908C550.842 126.058 551.808 125.164 552.867 124.364C553.981 123.521 555.182 122.767 555.765 122.37C556.515 120.659 557.111 119.392 557.624 118.1C558.022 117.099 558.501 116.083 558.615 115.046C558.8 113.366 557.608 111.42 560.069 110.244C560.206 110.178 559.964 109.553 559.949 109.187C559.837 106.454 559.735 103.72 559.637 100.986C559.632 100.836 559.629 100.591 559.721 100.547C562.134 99.4066 561.138 97.1322 562.066 95.4348C562.242 95.5428 562.293 95.678 562.344 95.8132C562.309 95.6008 562.275 95.3883 562.24 95.1759C562.75 93.6308 562.74 91.7605 565.371 91.4655C565.103 89.4334 565.418 87.9539 568.513 88.1262C570.515 88.2377 571.49 86.4582 570.751 84.7982C569.48 81.9431 572.276 80.8246 574.096 79.1898C574.279 79.1635 574.268 79.1094 574.268 79.1094C574.854 78.4232 575.394 77.7014 576.041 77.0632C576.472 76.6387 577.387 76.4054 577.512 75.962C577.961 74.3747 578.927 74.1149 580.747 73.8092C582.703 73.4808 584.262 71.7929 583.853 69.446C585.114 69.3275 586.238 69.222 587.401 69.1127C586.483 65.9958 586.477 65.9919 588.869 62.8999C590.37 60.9596 591.853 58.9918 594.802 58.568C595.056 58.5315 595.428 58.5294 595.535 58.3886C596.923 56.5647 598.464 54.8027 599.578 52.8543C600.692 50.9055 601.368 48.7647 602.407 46.6397C602.577 46.5714 602.604 46.4741 602.604 46.4741C603.215 44.5787 603.365 42.411 604.557 40.858C605.989 38.9923 608.283 37.6426 606.672 35.0186C608.352 33.4444 607.971 31.551 607.873 29.6486C607.793 28.1006 609.883 25.5738 611.545 24.8457C610.897 21.6112 612.954 18.3006 616.536 17.1349C616.733 17.1374 616.71 17.1005 616.71 17.1005C615.718 15.2718 616.569 13.2933 618.5 11.4243C620.944 9.05822 623.947 7.77988 627.804 7.01841C630.679 6.99308 633.12 6.99931 635.562 7.00552C635.562 7.00552 635.58 6.99949 635.677 7.08788C636.048 7.26513 636.322 7.354 636.597 7.44288C638.103 8.45433 639.498 9.65788 641.162 10.3949C641.976 10.7554 643.29 10.2479 644.957 10.0723C651.403 14.1741 651.891 15.0389 648.679 17.3211C649.749 17.7487 651.665 18.0803 651.745 18.6208C652.134 21.2419 652.084 23.9194 652.064 26.5761C652.058 27.3137 651.517 28.0369 651.41 28.7874C651.156 30.5688 650.555 31.9667 647.91 31.5936C647.902 33.411 647.266 34.5283 645.003 34.3718C644.573 34.342 643.715 35.1036 643.657 35.5589C643.345 38.013 641.375 38.3143 639.286 38.1012C637.122 37.8804 636.193 38.8168 635.222 40.2702C634.693 41.0625 633.395 42.0261 632.523 41.9697C630 41.8063 628.084 42.6321 625.994 43.6775C624.085 44.6322 621.678 44.8015 619.705 45.6853C617.844 46.519 616.263 47.6213 615.254 49.563C613.854 52.2575 615.046 55.5826 612.356 57.8586C613.753 60.9702 610.316 64.5246 613.594 67.524C614.628 68.4702 615.17 68.542 615.98 67.4956C616.664 66.6126 617.254 65.5918 618.178 64.9619C618.845 64.5077 620.021 64.421 620.908 64.537C621.214 64.5771 621.585 65.7559 621.486 66.3586C621.222 67.9556 621.205 69.8535 620.18 71.0128C619.02 72.3236 616.925 73.0714 615.097 73.7914C614.754 73.9263 613.782 72.7471 613.046 72.233C612.615 71.9319 612.013 71.4978 611.608 71.5795C611.202 71.6615 610.677 72.3068 610.67 72.7118C610.637 74.4926 610.031 76.3748 611.89 77.8955C612.222 78.1667 611.942 79.2587 611.627 79.8389C610.982 81.0253 610.13 82.126 609.346 83.2533C608.649 84.2559 608.034 85.3202 607.198 86.226C605.803 87.7364 605.135 89.2064 606.584 90.9857C607.846 92.5354 608.82 94.0596 606.781 95.8421C606.13 96.4118 606.223 97.5879 605.783 98.407C605.385 99.1484 604.724 99.7813 603.877 100.839C603.931 100.949 604.265 101.625 604.606 102.639C604.474 105.388 604.334 107.8 604.194 110.211C604.478 111.219 604.461 112.419 605.107 113.197C606.704 115.12 605.839 116.723 604.922 118.54C603.874 120.618 603.15 122.823 602.306 124.979C602.226 125.182 602.384 125.467 602.283 125.65C599.851 130.06 597.684 134.713 592.445 137.194C591.076 137.842 589.138 137.564 587.122 137.742C587.318 141.68 583.489 140.638 580.361 140.898C581.772 143.308 580.396 143.977 578.177 144.23C575.202 144.57 574.506 146.38 575.725 148.854C577.808 153.08 579.361 157.507 581.457 161.727C582.362 163.549 584.029 165.091 585.418 166.715C586.356 167.811 587.413 168.828 588.114 169.564C586.896 172.021 585.83 174.302 584.614 176.519C584.34 177.02 583.568 177.585 582.975 177.632C579.367 177.913 577.37 179.79 577.436 183.013C577.443 183.376 577.505 183.857 577.28 184.083C576.019 185.352 577.253 186.339 578.082 186.749C580.967 188.174 584.023 189.335 587.034 190.559C587.274 190.656 587.669 190.461 587.798 190.438C587.299 188.559 586.828 186.789 586.496 184.791C587.583 183.404 588.531 182.247 589.48 181.09C589.48 181.09 589.452 181.097 589.555 181.04C589.772 180.862 589.887 180.741 590.001 180.621C590.001 180.621 589.975 180.632 590.081 180.579C590.3 180.403 590.414 180.282 590.527 180.16C590.527 180.16 590.498 180.169 590.618 180.179C590.737 180.188 590.992 180.166 590.992 180.166C593.429 180.371 595.07 180.033 594.634 177.248C594.365 175.532 596.307 175.89 597.483 175.749C598.406 175.638 599.361 175.727 600.129 175.727C599.459 171.686 598.855 168.04 598.459 164.164C599.474 163.074 600.28 162.211 601.086 161.349C605.175 159.347 609.034 160.856 612.936 161.918C613.994 162.206 615.109 162.331 616.444 162.575C616.033 163.562 615.692 164.379 615.232 165.484C617.507 166.581 619.771 167.691 622.056 168.767C623.411 169.404 624.389 168.982 625.274 167.802C627.896 168.926 626.88 171.01 627.256 172.716C627.224 173.251 627.397 173.887 627.127 174.304C625.268 177.184 627.073 179.356 628.761 181.611C629.211 182.213 629.264 183.033 629.627 183.699C629.923 184.242 630.327 185.023 630.833 185.124C631.491 185.255 632.303 184.834 633.039 184.624C635.862 183.82 638.674 182.983 641.515 182.23C641.773 182.162 642.244 182.573 642.556 182.821C643.91 183.895 644.686 183.568 645.552 182.215C646.159 181.268 647.312 180.569 648.301 179.843C648.671 179.571 649.321 179.612 649.751 179.38C652.244 178.034 652.235 178.02 653.966 179.645C655.051 178.061 656.158 176.443 657.438 174.773C657.609 174.72 657.612 174.652 657.612 174.652C658.061 173.097 658.509 171.542 659.014 169.787C656.946 169.918 654.376 170.581 653.978 167.463C653.912 166.619 654.165 165.845 653.891 165.26C652.536 162.371 655.573 161.28 656.906 159.544C657.487 158.787 663.895 159.646 664.635 160.41C665.198 160.992 665.726 161.6 666.283 162.186C668.375 164.388 668.377 164.386 666.966 166.872C667.12 167.043 667.274 167.214 667.428 167.385C669.598 165.795 671.907 164.328 673.907 162.588C677.632 159.348 681.892 156.953 686.82 155.389C688.472 154.865 689.925 153.711 691.6 153.416C695.665 152.7 699.807 152.32 704.076 151.751C704.555 152.213 704.876 152.728 705.248 153.537C705.468 154.198 705.636 154.565 705.805 154.933C705.499 155.589 705.194 156.246 704.719 157.116C704.424 157.441 704.3 157.552 704.175 157.663C704.175 157.663 703.952 157.66 703.741 157.73C703.404 157.898 703.29 158.007 703.189 158.126C702.947 159.594 702.005 160.116 700.326 160.577C697.367 161.389 694.482 162.587 691.812 163.985C688.216 165.869 684.904 168.165 681.365 170.139C680.095 170.848 678.506 171.108 677.089 171.628C674.955 172.412 672.799 173.168 670.741 174.09C669.771 174.525 669.05 175.369 668.142 175.936C666.06 177.237 663.925 178.472 661.827 179.754C660.85 180.351 659.516 180.815 659.022 181.649C656.94 185.164 655.087 188.784 653.204 192.387C651.974 194.741 651.002 197.213 649.576 199.468C648.97 200.427 647.498 200.965 646.239 201.732C646.059 201.768 646.06 201.769 646.06 201.769C645.726 201.91 645.16 201.991 645.091 202.2C643.805 206.085 640.398 208.084 636.539 209.698C634.142 210.701 631.755 211.721 629.347 212.702C627.799 213.333 626.439 215.601 627.457 216.442C628.194 217.052 629.921 217.11 631.071 216.884C632.955 216.514 634.744 215.745 636.538 215.074C637.069 214.875 637.619 214.517 637.933 214.1C640.094 211.229 643.334 210.211 647.015 209.727C648.526 209.528 650.083 209.066 651.403 208.396C654.219 206.969 656.49 208.076 658.102 209.766C658.987 210.694 659.082 212.591 658.784 213.922C657.939 217.708 655.486 220.709 651.858 223.133C651.669 223.286 651.556 223.309 651.177 223.368C650.734 223.481 650.558 223.557 650.382 223.633C649.725 223.923 649.068 224.214 648.274 224.612C647.289 224.661 646.443 224.603 645.508 224.54C645.508 223.075 645.508 221.805 645.508 220.395C641.54 220.246 638.48 221.051 636.204 224.223C634.94 225.984 632.742 227.567 630.555 228.399C627.476 229.568 625.99 231.962 623.802 233.789C622.066 235.237 619.997 236.485 619.364 238.862C619.196 239.491 617.076 239.719 615.496 240.252C617.729 243.111 615.682 246.034 614.523 249.016C617.419 247.596 619.814 247.729 622.138 249.261C622.591 249.559 623.485 249.352 624.175 249.362C625.451 249.379 626.73 249.346 628.003 249.403C629.516 249.47 631.027 249.713 632.535 249.69C634.081 249.668 635.642 249.499 637.157 249.228C637.823 249.109 638.532 248.68 638.979 248.213C640.198 246.941 641.473 246.262 643.538 246.017C645.265 245.811 646.78 244.242 648.536 243.191C650.08 243.111 651.478 243.077 652.872 243.131C655.715 243.241 657.119 244.882 656.469 247.316C656.376 247.665 656.199 248.153 655.899 248.278C653.322 249.346 650.707 250.345 647.451 251.62C647.943 252.604 648.736 253.757 649.083 255.004C649.45 256.323 649.409 257.731 649.512 259.102C649.56 259.749 649.527 260.4 649.531 261.049C650.206 260.703 651.15 260.498 651.502 259.982C652.367 258.717 652.96 257.309 653.784 255.724C652.878 253.395 652.923 253.564 656.249 252.881C657.501 252.624 658.931 251.572 659.498 250.55C660.414 248.9 661.717 248.32 663.738 248.192C664.293 248.011 665.009 247.927 665.051 247.731C665.669 244.864 668.77 244.706 670.946 243.683C673.455 242.502 676.177 241.106 678.886 240.962C682.059 240.794 685.035 240.42 687.997 239.506C688.473 239.359 689.148 239.766 689.743 239.843C690.458 239.936 691.186 239.95 691.909 239.998C691.838 239.434 691.694 238.867 691.717 238.305C691.736 237.844 691.946 236.997 692.082 236.995C692.973 236.983 693.953 236.989 694.74 237.304C696.314 237.933 697.783 238.765 699.766 239.747C700.325 241.586 699.548 242.827 696.832 243.534C696.176 243.705 695.421 243.848 694.939 244.227C691.163 247.2 686.582 247.4 681.897 247.172C681.27 247.141 680.712 246.499 680.057 246.319C678.719 245.949 677.343 245.659 675.958 245.496C675.862 245.485 675.613 246.811 675.343 247.486C675.118 248.046 674.903 248.706 674.433 249.078C671.673 251.26 668.831 253.363 666.036 255.512C664.992 256.314 664.001 257.171 662.714 258.172C660.432 259.528 658.367 260.648 656.429 261.919C654.748 263.021 653.274 263.299 651.969 261.56C650.359 263.012 651.339 263.93 652.664 264.522C654.508 265.347 655.998 266.306 656.642 268.157C656.826 268.688 657.737 269.424 658.265 269.394C660.064 269.289 661.948 269.103 663.571 268.486C664.202 268.247 664.18 266.763 664.538 265.872C664.764 265.306 665.143 264.787 665.454 264.247C667.829 263.906 670.228 263.656 672.572 263.195C674.326 262.85 674.196 261.204 671.964 259.397C673.086 259.215 673.976 258.853 674.76 258.983C677.218 259.394 679.096 259.322 678.68 256.212C679.467 258.731 678.927 261.558 683.259 262.561C681.948 262.982 681.453 263.219 680.927 263.297C678.518 263.655 678.094 264.334 678.978 266.405C679.34 267.255 679.627 268.132 679.895 269.009C680.291 270.31 679.825 271.112 678.158 271.124C676.005 271.139 675.115 272.205 675.432 273.935C675.891 276.44 675.692 279.606 677.368 281.207C678.99 282.756 679.826 284.392 680.973 286.054C682.091 287.676 686.063 287.619 687.828 286.412C688.445 285.989 689.428 285.977 690.425 285.817C691.127 286.503 691.647 287.15 692.493 288.2C691.225 289.494 689.963 291.228 688.203 292.376C687.393 292.904 685.579 292.398 684.272 292.15C682.833 291.877 681.087 290.473 680.187 292.241C679.645 293.302 680.455 294.893 680.678 296.385C679.826 296.998 678.457 297.892 677.237 298.921C676.928 299.181 676.925 299.919 677.083 300.353C677.287 300.912 677.772 301.4 678.174 301.896C680.761 305.087 681.254 305.047 683.137 301.519C684.482 299 687.255 298.714 689.364 300.903C690.304 301.879 691.171 302.909 692.116 304.072C692.161 304.229 692.171 304.44 692.083 304.616C691.875 304.89 691.766 304.997 691.668 305.113C692.375 306.376 692.787 307.073 690.555 307.908C688.988 308.495 688.152 310.697 685.82 310.87C684.359 310.979 682.903 311.126 681.469 311.253C680.489 313.897 681.935 315.405 684.768 316.652C688.498 316.966 692.015 317.973 695.215 316.035C694.807 318.013 694.398 319.991 693.873 322.533C695.147 323.503 696.898 324.836 698.822 326.214C698.993 326.258 698.993 326.259 698.993 326.259C699.979 328.001 699.649 329.352 698.233 331.011C696.734 332.766 695.559 335.015 697.306 337.38C697.62 337.805 697.781 338.4 697.769 338.912C697.73 340.59 699.101 341.136 700.485 341.081C702.815 340.989 704.352 341.733 705.224 343.552C705.916 344.995 707.219 344.993 708.097 344.115C710.007 342.204 711.578 343.268 712.562 344.58C713.613 345.98 714.131 347.752 714.521 349.426C714.633 349.907 713.63 350.796 712.916 351.179C709.92 352.786 709.874 354.583 713.057 356.15C715.778 357.49 718.686 358.536 721.417 359.862C723.399 360.824 725.226 362.032 727.551 363.378C728.171 363.5 729.419 363.837 730.694 363.97C732.129 364.12 733.911 364.578 734.98 364.041C738.499 362.274 742.069 362.665 745.498 363.624C747.522 364.19 750.413 363.962 751.252 366.569C751.314 366.763 752.212 366.946 752.603 366.83C755.281 366.036 757.865 364.91 760.603 364.396C762.458 364.048 764.588 364.269 766.463 364.689C769.182 365.298 771.679 366.744 774.703 365.862C775.123 365.739 775.775 366.227 776.482 366.749C777.061 367.275 777.495 367.69 777.889 367.662C781.754 367.39 785.612 367.045 789.472 366.72C790.333 366.418 791.172 366.041 792.062 365.834C792.935 365.632 794.093 365.247 794.719 365.562C796.758 366.59 797.833 365.518 799.171 364.515C799.902 363.968 800.973 363.77 802.305 363.455C804.625 363.537 806.552 363.437 808.428 363.664C810.026 363.858 810.659 363.234 811.055 362.096C812.621 362.403 814.187 362.709 815.893 363.044C816.814 365.253 814.369 366.398 813.128 367.633C811.076 369.675 809.925 365.34 807.611 366.528C807.529 366.658 807.343 366.83 807.385 366.915C808.631 369.432 809.512 371.81 806.504 374.046C805.86 374.524 805.824 376.176 806.208 377.052C806.921 378.68 806.248 379.287 804.646 379.718C803.002 380.159 801.362 380.625 799.763 381.176C799.2 381.371 798.762 381.847 798.267 382.195C798.704 382.623 799.069 383.332 799.588 383.434C802.428 383.991 805.314 384.362 808.167 384.872C809.601 385.129 810.998 385.546 812.824 385.93C815.345 385.955 817.455 385.939 819.564 385.844C819.564 385.764 819.563 385.605 819.723 385.579C820.098 385.535 820.313 385.519 820.528 385.502C822.469 385.438 824.052 386.274 825.791 386.808C828.368 387.6 831.157 389.173 834.4 387.493C835.717 386.811 837.961 387.443 839.771 387.589C840.414 387.64 841.023 388.023 842.022 388.363C844.733 388.711 847.067 388.95 849.545 389.139C849.949 388.824 850.209 388.558 850.472 388.287C850.474 388.282 850.491 388.282 850.491 388.282C855.082 392.232 860.497 389.217 865.5 389.684C868.145 389.931 870.745 390.541 873.731 391.107C877.021 391.158 879.954 393.008 882.874 391.204C884.516 392.169 886.159 393.133 887.907 394.306C888.065 394.889 888.12 395.265 888.174 395.641C888.006 397.935 890.554 396.474 891.497 397.563C890.539 398.981 889.505 400.527 891.462 402.094C891.637 402.235 891.28 403.032 891.001 403.434C890.074 404.771 889.07 406.068 887.745 407.852C890.831 407.487 892.702 408.071 893.816 410.182C894.111 410.74 895.412 410.862 896.205 411.255C897.154 411.725 898.054 412.271 898.975 412.783C898.712 412.861 898.45 412.938 898.187 413.016C898.131 414.185 898.089 415.355 898.015 416.523C897.944 417.65 897.951 418.793 897.721 419.897C897.446 421.219 896.837 422.49 896.591 423.814C896.291 425.427 895.48 425.7 893.886 425.018C892.945 424.615 891.898 424.404 890.899 424.106C890.791 424.319 890.683 424.532 890.575 424.744C890.984 425.154 891.394 425.563 892.289 426.458C889.586 427.033 887.288 427.483 885.018 428.026C884.208 428.219 883.467 428.635 882.383 429.082C881.292 429.492 880.511 429.769 879.73 430.046C879.421 430.167 879.017 430.217 878.819 430.421C877.23 432.051 875.578 432.037 873.421 430.581C866.328 430.66 859.643 430.804 852.959 430.941C851.273 430.975 849.585 430.984 847.899 431.004C847.559 431.07 847.08 431.297 846.902 431.177C844.102 429.303 841.525 430.914 838.763 431.331C835.192 431.871 831.491 431.755 827.446 431.826C826.241 431.324 825.413 430.54 824.637 430.577C821.371 430.734 818.121 431.137 814.866 431.449C812.696 432.497 810.588 433.32 808.09 431.916C807.642 431.665 806.11 432.383 805.483 432.98C803.433 434.928 799.34 435.367 796.919 433.787C794.686 432.329 792.407 430.925 790.115 429.542C789.631 429.25 788.99 428.969 788.436 428.988C783.074 429.168 778.178 427.644 773.262 426.053C772.539 425.819 771.219 426.302 770.538 426.82C769.235 427.811 768.408 427.646 767.221 426.656C765.08 424.87 762.319 424.525 759.655 425.303C756.956 426.091 754.768 426.162 752.34 424.532C751.27 423.814 749.154 423.752 747.727 424.09C744.063 424.955 742.898 424.84 740.444 422.429C739.331 421.335 738.231 420.723 736.347 421.452C733.691 422.482 731.052 422.976 728.287 421.025C726.263 419.597 723.975 420.506 722.964 422.555C721.586 425.347 720.759 425.716 717.304 425.252C716.103 425.091 714.875 425.089 713.392 424.846C712.456 422.106 710.408 423.846 708.976 423.66C705.496 423.184 702.866 424.089 702.035 426.297C701.845 426.826 701.753 427.073 701.66 427.319C701.564 427.32 701.468 427.32 701.084 427.353C700.545 427.513 700.294 427.641 700.042 427.769C700.042 427.769 700.038 427.774 699.891 427.803C699.494 427.965 699.243 428.096 698.993 428.228C698.993 428.228 698.991 428.234 698.84 428.265C698.429 428.429 698.168 428.562 697.907 428.694C694.898 429.821 691.886 430.943 688.885 432.086C688.678 432.165 688.491 432.388 688.4 432.582C687.56 434.384 686.744 436.194 685.851 438.302C685.446 438.963 685.112 439.324 684.777 439.686C681.18 440.468 678.55 439.287 675.987 437.019C674.374 435.591 672.986 437.342 672.07 438.497C669.961 441.153 667.985 443.891 665.971 446.604C665.076 447.811 664.094 448.129 662.807 447.004C661.54 445.898 660.768 446.229 659.751 447.496C658.682 448.827 657.065 449.822 655.599 451.036C653.692 450.937 651.51 449.552 649.756 451.786C649.497 452.116 647.676 451.71 646.71 451.362C645.085 450.775 644.062 450.073 642.411 451.934C641.322 453.161 638.264 453.749 636.271 453.498C633.061 453.093 633.125 452.701 633.082 455.906C632.423 455.754 631.808 455.612 630.744 455.365C631.059 456.238 631.306 456.836 631.488 457.448C631.809 458.527 632.184 459.603 632.364 460.702C632.584 462.042 632.652 463.402 632.734 464.756C632.769 465.35 632.954 466.214 632.595 466.505C629.768 468.801 631.3 471.577 631.171 474.458C629.686 477.887 630.123 479.909 632.451 481.374C632.795 482.605 633.138 483.836 633.478 485.054C636.159 485.471 638.97 486.305 641.74 486.209C643.792 486.138 645.904 485.028 647.774 484.061C649.273 483.287 650.433 482.017 651.773 480.997C652.818 480.201 653.909 479.451 655.384 478.388C655.688 479.025 656.157 480.007 656.336 480.383C658.238 480.787 659.765 481.129 661.303 481.428C661.872 481.538 662.469 481.609 663.049 481.593C665.69 481.516 668.588 480.763 670.896 481.481C673.188 482.194 675.059 484.241 676.778 485.962C677.8 486.985 679.339 487.691 680.622 486.905C685.702 483.797 688.8 483.899 693.59 487.3C693.952 487.557 694.606 487.916 694.87 487.797C698.6 486.105 701.94 488.474 705.491 488.587C706.373 488.615 707.291 489.559 708.045 490.213C708.539 490.642 708.767 491.307 709.113 491.866C709.489 491.31 709.865 490.755 710.23 490.216C711.61 493.224 715.037 493.155 717.788 494.32C720.808 495.598 723.374 493.316 726.415 494.507C729.5 495.59 732.241 496.298 735.012 494.677C737.396 494.697 739.811 494.505 742.157 494.778C748.534 495.518 754.842 496.825 761.694 496.376C763.561 497.176 765.082 497.842 766.602 498.508C766.604 498.859 766.606 499.209 766.606 499.905C766.61 500.59 766.616 500.93 766.622 501.271C766.45 501.629 766.277 501.988 766.084 502.494C766.106 503.304 766.148 503.968 766.152 504.019C768.662 504.156 770.837 504.274 773.192 504.444C774.624 504.952 775.839 505.679 777.133 505.813C780.235 506.135 783.375 506.179 786.91 506.444C789.646 506.844 791.971 507.133 794.297 507.423C794.177 507.851 794.162 508.599 793.922 508.66C791.278 509.326 788.6 509.885 785.705 510.476ZM679.581 554.978C679.581 554.978 679.588 555.033 679.619 555.072C679.619 555.072 679.611 555.013 679.581 554.978ZM652.325 304.636C652.325 304.636 652.351 304.666 652.526 304.968C654.106 305.963 655.474 305.866 656.66 304.833C656.605 304.531 656.55 304.228 656.495 303.926C655.112 304.174 653.729 304.422 652.325 304.636ZM660.334 509.807C660.804 510.055 661.273 510.303 661.743 510.551C661.832 510.343 661.921 510.134 662.01 509.926C661.409 509.801 660.808 509.675 660.116 509.309C660.456 509.044 660.946 508.493 661.113 508.56C662.305 509.038 663.431 509.642 664.929 510.378C665.252 509.56 665.959 508.675 665.759 507.996C665.59 507.425 664.424 506.909 663.592 506.7C662.149 506.338 660.623 506.233 659.043 506.007C657.387 508.323 657.568 508.957 660.334 509.807ZM233.048 459.431C233.048 459.431 233.068 459.476 232.871 459.733C231.139 461.143 229.407 462.552 227.437 464.154C231.757 464.673 235.695 465.146 239.822 465.641C239.612 461.983 239.417 458.585 239.222 455.188C238.894 455.067 238.566 454.947 238.237 454.827C237.009 455.976 235.789 457.134 234.546 458.272C234.083 458.696 233.564 459.074 233.048 459.431ZM414.407 123.216C414.407 123.216 414.41 123.218 414.371 122.944C413.805 121.597 413.105 122.255 412.606 122.927C412.169 123.515 411.955 124.231 411.559 125.067C410.811 124.524 410.259 124.124 409.66 123.689C409.606 126.511 409.602 126.475 406.438 126.732C405.24 126.83 404.065 127.139 402.684 127.411C402.607 127.553 402.529 127.695 402.452 127.837C402.593 127.674 402.734 127.512 403.168 127.473C403.331 127.722 403.688 128.017 403.627 128.214C402.72 131.164 399.548 133.504 396.471 133.809C396.799 135.613 397.13 137.433 397.416 139.005C398.51 139.481 400.058 139.915 401.261 140.737C402.722 141.735 404.263 142.893 405.086 144.291C405.919 145.705 405.835 147.516 406.301 149.12C406.914 151.229 405.769 155.016 404.007 155.251C400.623 155.701 397.93 156.522 395.378 158.931C393.247 160.943 389.59 161.753 386.538 162.959C385.049 163.547 385.022 164.314 385.753 165.294C386.461 166.243 387.307 167.114 387.982 167.892C389.137 167.691 390.625 167.006 391.279 167.396C393.356 168.637 395.162 167.91 396.948 167.232C400.257 165.976 403.389 164.323 406.769 163.262C409.786 162.314 413.038 161.941 416.314 161.289C416.293 161.247 416.091 160.854 415.862 160.408C417.424 159.837 419.486 159.644 420.322 158.654C421.743 156.97 422.926 156.585 424.345 157.584C427.74 157.273 426.787 151.912 431.101 153.735C431.544 153.014 431.885 152.458 432.226 151.902C432.589 152.242 432.958 152.578 433.315 152.924C433.798 153.393 434.326 154.29 434.739 154.249C435.469 154.178 436.654 153.593 436.717 153.126C436.913 151.682 437.331 149.68 436.465 148.822C434.333 146.707 434.721 144.359 434.283 141.91C435.198 142.402 435.882 142.769 436.566 143.136C436.635 142.458 436.571 141.74 436.814 141.114C437.036 140.538 437.487 139.95 438.022 139.567C438.754 139.043 440.057 138.885 440.421 138.259C441.692 136.078 443.202 136.927 444.951 137.595C445.922 137.965 447.288 138.315 448.144 137.995C450.604 137.074 451.492 134.691 450.629 132.304C450.497 131.939 450.385 131.569 450.245 131.207C449.26 128.659 449.178 125.475 444.814 125.294C444.629 125.286 444.46 124.985 444.237 124.778C444.506 124.268 444.773 123.763 445.099 123.145C444.573 123.014 444.238 122.834 443.937 122.87C440.695 123.255 440.708 123.266 441.03 120.363C441.162 119.165 440.698 118.656 439.192 119.023C437.112 119.53 435.003 120.005 432.871 120.267C431.025 120.494 429.882 121.035 429.393 122.772C428.921 124.442 427.463 125.265 425.388 124.938C421.727 124.363 418.066 123.789 414.407 123.216ZM731.039 415.857C733.752 415.965 736.465 416.074 739.61 416.209C739.957 416.192 740.324 416.231 740.65 416.148C744.454 415.181 748.054 415.541 751.728 416.897C754.498 417.92 757.494 418.763 760.615 417.999C765.173 416.884 769.626 416.373 773.898 418.883C774.513 419.244 775.602 418.914 776.409 419.107C779.516 419.847 784.086 417.571 784.994 422.63C785.77 422.259 786.237 422.093 786.631 421.839C788.792 420.444 790.789 420.567 792.977 422.011C793.633 422.444 794.707 422.612 795.558 422.554C797.742 422.405 799.188 422.758 798.506 425.33C799.991 425.047 801.235 424.754 802.501 424.593C803.117 424.514 803.773 424.692 804.413 424.738C805.314 424.802 806.217 424.881 807.12 424.904C809.014 424.952 811.361 423.008 812.629 425.895C812.7 426.055 813.57 426.173 813.75 426.021C814.136 425.696 814.592 425.148 814.531 424.749C814.249 422.904 815.576 422.536 817.164 422.3C820.051 421.871 823.078 421.771 825.787 420.907C829.837 419.616 833.638 417.68 838.363 419.111C837.577 415.228 840.115 417.472 841.114 417.432C841.951 416.617 842.515 415.534 843.328 415.364C848.883 414.198 853.66 411.012 859.833 411.183C862.743 411.264 865.724 409.384 869.102 408.249C867.829 406.709 866.972 405.367 865.778 404.322C864.797 403.465 866.074 400.708 862.921 401.601C863.144 402.096 863.333 402.519 863.523 402.941C863.211 403.04 862.836 403.292 862.596 403.216C860.112 402.429 857.386 401.929 855.262 400.661C853.435 399.57 852.072 399.732 850.225 400.154C847.348 400.811 844.367 402.459 841.47 400.05C841.149 399.783 840.472 399.847 839.599 399.567C837.08 399.316 834.562 399.064 831.661 398.862C829.288 400.201 826.808 400.799 824.094 399.675C823.079 399.255 822.078 398.81 820.728 398.185C818.05 397.933 815.37 397.462 812.694 397.474C806.423 397.502 800.154 397.762 793.508 397.97C793.11 398.115 792.653 398.194 792.321 398.417C789.681 400.188 786.977 400.594 783.744 399.476C781.775 398.796 779.473 398.694 777.314 398.662C776.033 398.644 774.468 398.973 773.506 399.658C771.437 401.132 766.669 401.72 765.326 399.939C763.23 397.159 762.041 399.041 760.841 400.315C759.584 401.649 758.32 402.125 756.309 401.836C755.005 401.649 753.129 401.834 752.268 402.551C750.659 403.893 749.049 404.511 746.901 404.37C745.583 404.284 744.505 404.526 744.354 406.023C744.217 407.371 743.328 407.781 742.028 406.903C740.814 406.083 740.143 406.623 739.149 407.352C737.477 408.58 735.653 410.185 733.686 410.449C730.253 410.911 729.272 413.416 727.161 415.353C728.324 415.488 729.487 415.624 731.039 415.857ZM661.083 497.873C656.652 497.932 653.186 495.769 649.537 494.027C649.464 493.992 649.368 493.986 649.282 493.981C646.649 493.824 644.015 493.668 641.288 493.507C640.957 494.018 640.552 494.643 640.268 495.08C643.507 496.724 645.559 499.122 647.636 501.509C648.135 502.083 648.796 502.548 649.367 503.076C650.323 503.961 651.266 504.858 652.216 505.749C652.622 506.13 653.031 506.507 653.439 506.886C653.931 506.429 654.744 506.021 654.849 505.503C655.07 504.423 654.916 503.285 654.916 502.243C657.649 501.968 660.219 501.71 663.394 501.39C662.611 500.134 661.984 499.13 661.083 497.873ZM648.953 298.457C648.503 296.891 648.128 295.302 647.559 293.769C647.365 293.247 646.681 292.866 646.221 292.421C645.834 292.923 645.106 293.437 645.128 293.926C645.188 295.274 645.567 296.612 645.81 297.955C646.14 299.784 646.886 299.984 648.953 298.457ZM132.819 119.47C132.56 118.638 132.264 117.08 132.049 117.089C130.396 117.154 128.923 117.69 128.551 119.694C129.989 119.694 131.243 119.694 132.819 119.47ZM671.395 305.565C670.272 305.698 669.148 305.83 668.024 305.963C668.073 306.178 668.122 306.394 668.172 306.61C670.051 306.61 671.931 306.61 673.811 306.61C673.831 306.375 673.851 306.139 673.871 305.904C673.19 305.792 672.509 305.679 671.395 305.565ZM642.951 254.197C643.201 253.873 643.45 253.548 643.699 253.224C643.068 252.953 642.437 252.682 641.806 252.411C641.534 252.705 641.261 252.998 640.989 253.291C641.551 253.557 642.112 253.822 642.951 254.197ZM577.055 142.579C577.499 142.642 577.943 142.704 578.388 142.767C578.288 142.459 578.188 142.152 578.088 141.845C577.692 142.023 577.296 142.201 577.055 142.579ZM684.104 246.284C684.181 246.254 684.276 246.238 684.328 246.188C684.361 246.155 684.338 246.021 684.332 246.02C683.953 245.992 683.573 245.973 683.194 245.952C683.187 246.026 683.18 246.099 683.173 246.173C683.413 246.215 683.653 246.258 684.104 246.284ZM656.969 506.932C656.889 506.834 656.809 506.736 656.73 506.638C656.642 506.724 656.554 506.809 656.466 506.895C656.598 506.941 656.729 506.986 656.969 506.932ZM737.148 605.509C737.074 605.607 737 605.706 736.927 605.805C737.003 605.822 737.136 605.867 737.145 605.852C737.207 605.753 737.243 605.641 737.148 605.509ZM91.9521 482.477C92.0237 482.433 92.0953 482.389 92.1669 482.345C92.0966 482.357 92.0264 482.37 91.9521 482.477ZM136.023 479.838C136.06 479.838 136.096 479.838 136.023 479.838V479.838Z" fill="#F3224B"/>
<path d="M622.803 458.56C622.935 459.356 622.975 460.204 622.936 461.119C611.63 486.675 603.725 499.207 599.394 505.029C596.79 508.516 595.475 509.577 595.475 509.577L594.771 509.365L594.346 509.233L594.053 509.14L593.163 508.874L592.818 508.768L592.034 508.53L591.171 508.264L584.275 506.156L583.585 505.944L582.163 505.506L581.419 505.281L579.905 504.816L578.337 504.326C554.397 496.886 513.133 483.717 506.902 479.275C506.902 479.275 540.82 463.109 541.829 444.41C541.829 444.41 543.344 327.204 550.943 306.489C550.943 306.489 580.768 227.251 591.29 225.819C593.721 229.028 595.966 233.272 598.026 238.364C601.467 248.562 605.479 264.264 609.438 282.791C621.78 353.767 622.803 458.56 622.803 458.56Z" fill="#2C2C3F"/>
<path d="M599.395 505.029C603.726 499.207 611.63 486.675 622.936 461.119C622.484 471.954 610.647 490.348 599.634 505.214L599.395 505.029Z" fill="#37374F"/>
<path d="M609.439 282.791C605.48 264.264 601.468 248.562 598.027 238.364C602.637 249.69 606.384 265.206 609.439 282.791Z" fill="#37374F"/>
<path d="M595.477 509.577L514.637 527.043L331.287 566.668L263.984 527.746L324.326 516.433L347.974 512.004L348.253 511.951L420.179 498.464L429.731 496.674L506.4 482.298L578.339 504.326L579.907 504.816C580.425 504.975 580.93 505.135 581.421 505.28L582.165 505.506C582.644 505.665 583.122 505.811 583.587 505.944L584.278 506.156C587.001 507.004 589.339 507.721 591.173 508.264C591.465 508.357 591.757 508.45 592.036 508.53C592.315 508.622 592.568 508.702 592.82 508.768L593.166 508.874C593.498 508.98 593.79 509.073 594.056 509.14L594.348 509.232C594.507 509.285 594.654 509.325 594.773 509.365L595.477 509.577Z" fill="#FFE6EB"/>
<path d="M594.348 509.233L594.773 509.365C594.653 509.325 594.507 509.286 594.348 509.233Z" fill="#37374F"/>
<path d="M593.164 508.874L594.054 509.14C593.788 509.073 593.496 508.981 593.164 508.874Z" fill="#37374F"/>
<path d="M592.035 508.53L592.819 508.768C592.567 508.702 592.314 508.623 592.035 508.53Z" fill="#37374F"/>
<path d="M591.172 508.264L592.035 508.53C591.756 508.45 591.464 508.357 591.172 508.264Z" fill="#37374F"/>
<path d="M584.277 506.156L591.172 508.264C589.339 507.721 587.001 507.005 584.277 506.156Z" fill="#37374F"/>
<path d="M587.891 222.119C589.06 223.127 590.203 224.373 591.292 225.819C580.77 227.251 550.945 306.489 550.945 306.489C543.346 327.204 541.831 444.41 541.831 444.41C540.822 463.109 506.904 479.274 506.904 479.274C513.135 483.717 554.399 496.886 578.339 504.326L506.399 482.298L429.73 496.674V241.825L471.34 214.135C521.385 205.475 533.475 167.348 536.371 150.904C537.195 146.222 537.274 143.305 537.274 143.305C573.211 187.771 548.407 194.336 548.407 194.336L587.891 222.119Z" fill="#37374F"/>
<path d="M582.164 505.506L583.586 505.944C583.121 505.811 582.642 505.665 582.164 505.506Z" fill="#37374F"/>
<path d="M579.906 504.816L581.421 505.281C580.929 505.135 580.424 504.976 579.906 504.816Z" fill="#37374F"/>
<path d="M558.532 87.7388C564.098 123.611 537.276 143.305 537.276 143.305C530.845 149.392 514.505 135.242 514.505 135.242C481.106 67.5282 404.171 118.559 404.171 118.559C388.627 126.874 386.076 105.417 386.076 105.417C386.076 105.417 360.144 46.3096 423.142 14.4817C486.154 -17.3461 514.505 14.4817 514.505 14.4817C514.505 14.4817 552.965 51.8662 558.532 87.7388Z" fill="#351A13"/>
<path d="M537.275 143.305C537.275 143.305 537.195 146.223 536.371 150.904H536.291L525.956 152.15C525.956 152.15 516.085 162.879 515.075 166.486C514.065 170.08 498.933 187.639 498.933 187.639L481.862 203.141L481.41 202.651C508.658 178.037 514.384 136.117 514.504 135.242C514.504 135.242 530.844 149.392 537.275 143.305Z" fill="#BB303F"/>
<path d="M525.953 152.15L536.289 150.891C536.289 150.891 513.239 211.509 474.898 211.761L474.831 211.801L473.994 210.555C475.562 209.494 476.545 208.592 476.545 207.969L481.859 203.141L498.931 187.639C498.931 187.639 514.062 170.08 515.072 166.486C516.082 162.879 525.953 152.15 525.953 152.15Z" fill="#BB303F"/>
<path d="M514.502 135.229C514.382 136.117 508.656 178.037 481.408 202.651C473.703 209.626 464.27 215.196 452.752 218.074C452.752 218.074 432.24 215.753 417.772 191.882C410.691 180.186 405.058 163.303 404.008 138.968C404.101 138.173 404.168 137.748 404.168 137.748L403.969 137.656C403.743 131.741 403.796 125.375 404.168 118.559C404.168 118.559 481.103 67.5281 514.502 135.229Z" fill="#F0BEB3"/>
<path d="M473.994 210.555L474.831 211.801L471.337 214.135L429.728 241.825L410.557 200.794C410.411 200.542 410.238 200.29 410.052 200.065L409.733 199.388C409.733 199.388 393.034 188.633 384.332 173.833C384.319 173.807 384.305 173.78 384.292 173.767C378.247 162.243 377.424 147.84 393.034 132.696L403.968 137.656C403.968 138.093 403.994 138.531 404.007 138.968C403.131 146.249 399.411 184.058 416.31 191.803C416.31 191.803 416.429 192.081 416.655 192.572C418.488 196.617 427.15 215.156 433.022 216.058C433.022 216.058 449.722 221.615 452.751 221.111C452.751 221.111 467.856 214.692 473.994 210.555Z" fill="#BB303F"/>
<path d="M429.73 241.825V496.674L420.178 498.464L423.14 496.674C423.14 496.674 425.997 489.035 415.78 486.767L407.344 475.415C408.872 471.331 408.885 465.018 397.075 461.557H397.062L396.583 460.92L405.684 462.088L416.312 484.327C416.312 484.327 422.901 486.847 420.869 479.275L418.849 471.689C418.849 471.689 430.487 457.539 416.312 452.499C408.261 449.622 395.786 448.388 386.048 446.731L353.566 402.98L349.009 406.521L379.02 445.285C375.181 444.304 372.484 443.07 371.78 441.373C371.78 441.373 298.857 458.334 347.973 512.004L324.325 516.434L323.701 513.118C323.701 513.118 315.092 440.365 358.109 440.365C358.109 440.365 347.999 423.695 298.392 418.139C298.392 418.139 322.027 358.912 320.074 338.33C319.994 337.402 319.848 336.553 319.649 335.797C315.092 318.106 307.891 280.059 294.858 252.435L286.568 214.029C299.375 193.129 343.442 178.17 343.442 178.17C340.905 161.5 389.994 125.123 389.994 125.123L393.036 132.696C375.446 146.607 377.147 161.553 384.294 173.767C384.294 173.78 384.321 173.807 384.334 173.833C391.083 186.657 404.302 195.887 408.46 198.579C409.071 198.99 409.616 199.494 410.055 200.065L429.73 241.825Z" fill="#292839"/>
<path d="M415.781 486.767C425.998 489.035 423.141 496.674 423.141 496.674L415.781 486.767Z" fill="#F0BEB3"/>
<path d="M415.78 486.767L423.14 496.674L419.38 497.443L410.094 485.441L413.282 486.343C414.186 486.449 415.023 486.582 415.78 486.767Z" fill="#BB303F"/>
<path d="M420.867 479.275C422.9 486.847 416.311 484.327 416.311 484.327L405.682 462.088L396.582 460.92L386.047 446.731C395.785 448.388 408.26 449.622 416.311 452.499C430.486 457.539 418.848 471.689 418.848 471.689L420.867 479.275Z" fill="#F0BEB3"/>
<path d="M419.381 497.443L420.178 498.464L348.252 511.951L377.24 506.037L419.381 497.443Z" fill="#F0BEB3"/>
<path d="M379.365 476.689L410.094 485.441L419.38 497.443L377.24 506.036L348.251 511.951L347.972 512.004C298.857 458.334 371.779 441.373 371.779 441.373C372.483 443.07 375.18 444.304 379.02 445.285L390.512 460.138L389.993 460.072C390.179 460.098 390.352 460.125 390.525 460.151L405.245 479.182C405.205 479.248 405.178 479.275 405.178 479.275L379.365 476.689Z" fill="#F0BEB3"/>
<path d="M407.345 475.415L415.781 486.767C415.024 486.582 414.187 486.449 413.284 486.343L410.095 485.441L405.246 479.182C405.552 478.81 406.614 477.378 407.345 475.415Z" fill="#BB303F"/>
<path d="M410.094 485.441L379.365 476.689L405.178 479.275C405.178 479.275 405.205 479.248 405.245 479.182L410.094 485.441Z" fill="#F0BEB3"/>
<path d="M397.074 461.557C408.885 465.018 408.871 471.331 407.344 475.415L397.074 461.557Z" fill="#F0BEB3"/>
<path d="M397.075 461.557L407.344 475.415C406.614 477.378 405.551 478.81 405.245 479.182L390.525 460.151C393.036 460.536 395.202 461.013 397.062 461.557H397.075Z" fill="#BB303F"/>
<path d="M396.583 460.921L397.061 461.557C395.201 461.013 393.036 460.536 390.525 460.151H390.512L396.583 460.921Z" fill="#BB303F"/>
<path d="M386.047 446.731L396.583 460.92L390.511 460.138L379.02 445.285C381.079 445.829 383.47 446.293 386.047 446.731Z" fill="#BB303F"/>
<path d="M353.567 402.98L386.049 446.731C383.472 446.293 381.08 445.829 379.021 445.285L349.01 406.521L353.567 402.98Z" fill="#BB303F"/>
<path d="M298.392 418.139C347.999 423.695 358.109 440.365 358.109 440.365C315.092 440.365 323.7 513.118 323.7 513.118C244.892 524.457 225.004 440.365 225.004 440.365C212.357 410.062 275.116 240.314 284.735 217.57C285.24 216.376 285.851 215.196 286.568 214.029L294.858 252.435C307.891 280.059 315.092 318.106 319.648 335.797C319.848 336.553 319.994 337.402 320.073 338.33C322.026 358.912 298.392 418.139 298.392 418.139Z" fill="#35354C"/>
<path d="M479.777 212.305C479.777 212.305 525.811 205.064 536.279 150.877L479.777 212.305Z" fill="#BB303F"/>
<path d="M393.037 132.696C365.882 153.742 386.115 176.91 386.115 176.91C389.662 186.776 406.189 196.179 406.189 196.179C409.896 199.72 426.09 217.066 426.09 217.066L448.529 225.819C448.529 225.819 466.849 214.573 471.313 214.135C475.777 213.698 479.763 212.305 479.763 212.305L482.234 201.736C474.741 210.25 452.727 218.074 452.727 218.074C402.283 206.284 404.143 137.748 404.143 137.748V118.546C400.437 121.41 395.322 120.163 395.322 120.163L389.968 125.11" fill="#BB303F"/>
<path d="M479.511 212.212C482.075 212.212 482.075 208.234 479.511 208.234C476.947 208.234 476.947 212.212 479.511 212.212Z" fill="#BB303F"/>
<path d="M479.644 212.345C482.208 212.345 482.208 208.366 479.644 208.366C477.08 208.366 477.08 212.345 479.644 212.345Z" fill="#BB303F"/>
<path d="M550.945 306.489C550.945 306.489 545.379 198.712 548.421 194.336C551.463 189.959 591.306 225.832 591.306 225.832" fill="#2C2C3F"/>
<path d="M404.17 118.546C404.17 118.546 399.52 184.389 432.215 208.473L429.73 241.812L410.972 201.974C410.972 201.974 351.906 165.359 392.399 133.2L388.666 125.11L393.794 119.567C393.794 119.567 403.346 121.065 404.183 118.546H404.17Z" fill="#772232"/>
<path d="M432.214 208.472L446.283 101.597C446.283 101.597 415.474 108.109 404.169 118.546C404.169 118.546 396.317 188.938 432.214 208.472Z" fill="#BC8D86"/>
</svg>
