<svg width="934" height="1071" viewBox="0 0 934 1071" fill="none" xmlns="http://www.w3.org/2000/svg">
<g clip-path="url(#clip0_322_711)">
<path d="M246.561 141.054L246.413 145.192L247.265 146.293L245.504 151.921L242.258 153.662L245.355 156.059L245.428 158.51L245.626 159.026L245.758 160.515L246.399 161.04L246.623 161.623L248.291 162.586L250.841 164.654L250.939 168.338L254.299 170.278L256.501 170.344L259.751 168.594L261.462 170.786L263.731 173.314L263.069 169.304L264.376 167.041L269.859 166.579L275.087 157.524L278.265 153.322L272.661 150.086L271.808 148.985L267.493 142.27L265.77 140.071L263.902 141.506L259.465 140.654L257.827 140.913L255.031 139.299L254.959 136.847L254.035 134.954L254.064 134.517L252.905 132.644L248.993 130.385L247.355 130.644L245.263 134.268L245.336 136.72L246.561 141.054Z" fill="#BF2846"/>
<path d="M395.418 813.276L395.388 812.054L397.18 807.648L396.585 806.1L393.483 803.713L391.214 801.185L389.394 795.302L387.672 793.103L385.072 792.923L380.742 790.916L380.242 790.368L380.442 790.134L378.468 788.398L374.886 788.144L369.809 783.995L366.528 784.523L359.107 784.462L353.017 783.368L351.422 784.857L348.104 784.146L345.375 784.993L342.239 790.424L339.252 791.718L331.004 791.787L329.666 792.829L331.088 794.246L331.983 796.576L333.867 798.467L333.694 798.768L336.226 800.839L336.005 802.525L337.07 810.99L337.485 815.454L341.134 818.169L342.034 820.489L344.831 822.104L347.074 824.98L346.099 827.668L346.138 829.206L345.38 831.489L346.869 835.367L352.162 837.814L354.885 836.977L358.357 833.54L361.165 835.162L365.077 837.421L368.917 837.228L372.125 834.248L373.505 834.436L378.172 834.112L380.829 830.814L386.269 829.123L388.098 825.956L390.563 825.565L392.128 822.855L392.541 818.261L395.418 813.276Z" fill="#BF2846"/>
<path d="M836.731 446.774L840.385 449.479L842.544 448.317L846.168 449.8L847.806 449.541L852.13 447.206L854.523 444.364L853.598 440.811L851.281 437.064L845.125 433.51L841.549 433.246L838.298 434.996L836.206 438.62L836.579 441.854L836.731 446.774Z" fill="#BF2846"/>
<path d="M114.639 271.383L110.493 270.803L109.144 271.838L108.137 274.884L108.483 275.394L108.443 275.657L109.933 279.535L114.506 285.803L117.867 287.743L121.749 288.779L122.321 288.591L122.564 288.641L122.625 288.508L124.466 287.925L126.294 284.758L128.208 284.049L128.123 281.591L123.838 276.098L120.189 273.383L114.639 271.383Z" fill="#BF2846"/>
<path d="M81.6414 418.666L81.0747 418.65L79.7677 420.914L80.0561 421.689L82.631 424.99L82.4098 426.675L83.0345 429.446L86.1311 431.842L88.8905 432.218L91.8777 430.924L93.7063 427.757L92.5175 424.661L94.9039 421.802L95.9169 418.773L94.4277 414.895L91.0674 412.955L89.1293 412.432L86.4002 413.278L84.3502 418.132L82.1484 418.065L81.6414 418.666Z" fill="#BF2846"/>
<path d="M798.897 552.324L798.855 551.095L798.633 550.759L798.554 550.313L796.844 548.12L796.192 546.423L798.263 540.48L797.932 538.476L795.615 534.728L792.519 532.332L791.433 532.91L786.587 536.148L783.709 541.133L782.029 540.163L785.128 533.493L785.246 528.133L788.867 520.559L790.738 518.621L793.203 518.231L794.965 512.602L795.346 506.786L797.439 503.162L802.394 503.614L804.745 499.543L803.82 495.99L797.332 490.431L800.431 483.761L800.389 482.532L796.625 476.136L799.197 470.379L798.535 466.37L800.364 463.202L801.744 463.39L805.656 465.649L808.261 470.171L812.174 472.43L813.811 472.171L814.818 469.125L813.107 466.933L805.535 461.952L804.682 460.851L801.182 453.998L794.995 449.221L794.665 447.216L793.175 443.338L787.541 438.88L786.904 436.103L789.781 431.119L789.972 428.211L791.801 425.043L796.426 423.49L798.518 419.866L798.709 416.958L798.827 411.599L794.584 407.335L786.196 402.492L784.227 400.747L784.749 399.843L783.854 397.513L779.611 393.25L770.37 387.305L767.838 385.234L766.679 383.361L768.508 380.193L769.593 379.616L771.986 376.774L770.797 373.678L761.845 368.509L757.632 365.468L754.878 365.083L747.936 362.889L746.845 363.062L746.562 362.691L745.477 363.269L739.927 361.27L740.933 358.224L740.038 355.893L731.086 350.725L730.785 349.942L733.178 347.101L736.092 343.355L735.762 341.351L732.966 339.736L731.586 339.549L722.633 334.38L716.923 336.511L712.819 337.16L709.196 335.677L707.443 332.255L706.781 328.246L706.187 326.698L706.45 326.241L705.688 325.4L705.292 324.368L704.566 324.156L704.176 323.723L702.232 323.21L702.02 323.411L698.914 322.499L695.002 320.241L696.53 316.291L696.488 315.062L696.288 314.881L696.188 314.279L695.162 313.894L694.507 313.309L693.128 313.122L691.299 316.289L691.63 318.294L689.495 320.688L682.668 322.175L677.118 320.175L675.217 320.891L670.85 321.997L667.79 320.839L667.566 313.468L669.394 310.301L671.596 310.367L675.699 309.718L676.706 306.672L674.431 304.154L666.704 303.32L662.792 301.061L662.652 296.148L662.058 294.601L661.104 293.869L660.636 293.184L659.674 292.771L658.956 292.214L657.499 291.826L656.448 291.375L655.46 291.284L655.074 291.177L654.963 291.23L651.492 290.923L647.316 289.121L646.422 286.791L643.889 284.72L643.168 284.666L641.645 283.424L639.179 283.814L636.947 282.525L635.679 276.961L632.619 275.804L629.153 279.23L625.529 277.747L625.42 274.056L623.709 271.864L620.795 275.609L617.735 274.452L612.995 272.324L613.899 265.604L613.304 264.056L612.71 262.508L607.681 259.605L607.639 258.376L607.566 255.924L607.203 255.39L606.972 254.376L606.228 253.947L605.555 252.95L601.643 250.691L598.583 249.533L594.48 250.182L592.91 252.903L591.933 257.171L593.422 261.049L596.482 262.207L598.576 262.211L602.853 262.647L603.599 262.935L602.922 266.547L603.229 269.95L602.012 273.276L599.259 272.891L595.983 273.41L593.633 277.48L591.137 276.648L578.603 271.225L574.498 270.021L574.157 269.863L574.212 269.934L572.213 269.35L566.166 269.486L560.425 270.395L560.105 270.728L557.702 271.232L554.384 270.521L552.44 270.007L551.324 269.363L548.57 268.978L541.862 265.105L539.66 265.038L538.874 265.375L537.198 265.534L537.194 265.429L533.119 265.835L527.044 266.214L521.261 265.893L516.894 266.999L510.258 265.578L505.855 265.445L500.593 264.221L493.363 261.251L492.535 261.382L491.996 261.679L487.905 262.945L484.323 262.691L480.675 259.975L476.762 257.717L473.745 257.788L468.335 260.701L465.017 259.99L460.841 258.188L459.683 256.315L454.502 248.492L453.841 244.483L452.352 240.605L449.555 238.99L443.484 237.894L441.994 234.016L441.885 230.326L441.248 227.548L441.101 227.36L440.948 226.766L440.175 226.165L437.821 223.147L437.159 219.138L438.988 215.971L437.763 211.636L436.686 203.164L435.46 198.829L434.162 197.613L434.608 197.728L432.075 195.657L433.682 194.175L434.286 193.462L434.774 193.588L436.081 191.324L434.634 188.675L430.158 186.091L425.49 186.414L423.92 189.135L423.962 190.364L425.23 195.928L425.934 201.166L422.271 207.511L423.166 209.841L423.76 211.389L422.262 216.561L422.924 220.57L423.849 224.123L424.294 226.789L423.994 229.026L418.848 231.482L413.107 232.391L408.673 231.036L409.416 228.446L413.931 223.203L415.459 219.253L414.271 216.157L411.474 214.543L410.095 214.355L404.906 215.582L402.937 213.837L400.141 212.223L398.503 212.482L394.621 211.445L394.287 211.498L393.23 211.251L392.42 211.794L391.328 211.967L391.293 212.555L390.801 212.88L391.161 214.474L391.132 214.884L391.309 215.104L391.438 215.657L391.247 218.565L387.584 224.91L381.728 222.137L377.294 220.782L374.197 218.386L373.493 213.147L372.004 209.269L368.092 207.01L364.817 207.529L362.682 209.924L363.013 211.928L363.152 216.841L363.424 218.449L363.526 220.075L363.719 220.238L363.826 220.857L363.083 223.446L362.255 223.577L360.618 223.837L359.01 225.318L358.598 229.912L356.284 235.222L355.572 239.034L351.129 246.729L344.973 243.174L343.556 241.748L339.908 239.032L337.184 239.869L334.688 239.037L333.241 236.388L330.666 233.088L326.19 230.504L325.363 230.635L323.755 232.116L324.128 235.35L324.351 235.685L324.429 236.132L323.452 240.4L320.135 239.69L314.724 242.603L312.756 240.857L311.788 236.076L310.863 232.523L308.067 230.909L306.429 231.168L303.484 233.691L300.913 239.448L297.637 239.966L296.888 240.544L296.546 240.554L295.832 241.347L293.589 243.07L289.413 241.268L288.586 241.399L285.929 244.697L284.291 244.956L281.495 243.342L281.195 242.56L280.533 238.551L279.872 234.541L279.541 232.537L277.157 226.328L275.934 225.869L274.925 225.04L274.097 225.171L270.434 231.515L271.66 235.85L271.817 235.993L272.254 237.398L270.947 239.662L270.493 243.026L273.068 246.327L274.557 250.205L273.724 252.95L273.287 253.708L273.434 253.896L272.052 258.423L273.763 260.615L275.922 259.452L281.515 262.681L279.944 265.402L275.429 270.645L272.369 269.487L272.078 269.436L271.817 269.169L267.671 268.589L263.759 266.33L263.458 265.548L263.342 265.61L261.142 261.801L257.781 259.86L255.316 260.251L251.543 262.905L251.064 265.037L252.253 268.133L259.377 276.469L258.37 279.516L257.254 278.871L251.771 279.333L248.232 280.308L248.029 284.595L246.819 287.938L245.934 287.531L245.703 287.294L241.527 285.492L239.062 285.882L236.002 284.724L236.787 283.364L236.879 281.902L237.008 281.678L236.966 280.449L235.213 277.027L231.301 274.769L229.663 275.028L226.867 273.414L223.807 272.256L222.721 272.834L222.242 274.967L225.081 277.81L224.626 281.175L224.104 282.078L224.405 282.861L229.031 288.123L229.766 290.037L229.759 290.382L227.493 294.308L225.07 295.927L221.709 293.987L220.409 291.721L219.067 288.225L219.019 288.198L218.804 285.133L218.927 283.313L218.667 283.098L218.627 282.53L215.267 280.59L214.439 280.721L212.471 278.976L211.588 278.259L211.613 277.885L209.932 276.915L206.657 277.433L204.522 279.828L204.853 281.833L205.526 282.467L205.705 282.933L208.392 285.236L211.407 289.853L210.401 292.899L207.935 293.289L204.839 290.892L203.571 285.328L201.818 281.907L197.906 279.648L198.127 277.962L196.307 272.079L192.658 269.364L185.759 268.399L182.22 269.374L180.251 267.629L179.757 267.46L179.135 266.984L177.755 266.797L176.148 268.278L177.073 271.831L181.316 276.094L181.911 277.642L185.007 280.039L189.11 279.389L192.471 281.329L195.527 285.736L197.858 289.984L199.182 294.259L198.176 297.305L194.816 295.365L195.337 294.462L195.024 293.84L195.049 293.686L194.767 293.316L193.602 291.038L190.505 288.641L186.402 289.29L184.832 292.011L184.641 294.919L188.595 298.407L191.243 304.159L191.094 308.296L185.502 305.067L184.65 303.966L182.687 302.626L182.117 301.895L178.757 299.955L176.291 300.345L174.721 303.066L174.584 306.795L174.003 306.887L172.886 306.243L171.176 304.05L172.938 298.422L171.749 295.326L170.825 293.821L170.29 292.67L169.946 292.407L169.432 291.579L168.226 291.09L167.2 290.29L165.82 290.102L163.355 290.493L161.526 293.66L161.599 296.111L160.028 298.832L156.446 298.578L153.981 298.968L153.153 299.099L152.7 299.524L150.994 300.262L148.461 298.191L144.837 296.707L142.445 299.549L143.081 302.326L146.514 306.718L152.37 309.49L156.21 309.297L158.56 305.226L159.273 301.414L160.389 302.059L159.346 303.866L159.699 304.446L159.646 304.648L160.071 305.049L160.499 305.749L160.993 305.918L163.031 307.82L166.464 312.212L166.315 316.349L167.241 319.902L167.325 319.95L167.529 320.677L173.121 323.906L170.729 326.748L168.309 327.501L165.908 327.669L165.798 327.528L164.16 327.787L159.684 325.203L156.845 322.359L157.58 321.086L157.823 321.11L161.555 323.265L164.02 322.874L164.763 320.285L161.594 315.437L157.118 312.852L154.916 312.786L153.609 315.05L154.504 317.38L156.214 319.572L155.429 320.932L152.933 320.1L150.54 322.942L150.841 323.724L151.141 324.507L157.586 328.836L156.236 329.871L154.857 329.683L154.377 331.816L158.026 334.531L158.854 334.4L159.681 334.27L160.725 332.462L161.618 331.774L162.159 332.085L162.417 334.048L162.513 337.291L161.54 339.669L160.167 341.493L159.894 341.634L159.855 341.896L159.367 342.547L159.589 343.88L159.439 344.999L159.939 345.935L160.046 346.553L160.738 347.433L162.282 350.358L162.635 351.714L162.562 353.836L161.429 355.798L160.313 355.154L157.037 355.672L156.669 356.781L155.988 357.489L156.133 358.376L156.019 358.711L156.655 361.489L157.219 361.814L157.52 362.596L163.112 365.825L161.02 369.449L160.192 369.58L159.713 371.713L160.655 372.659L159.522 374.621L157.884 374.88L154.418 378.307L150.242 376.505L147.555 378.581L143.152 378.448L141.845 380.712L141.917 383.163L141.174 385.753L138.973 385.686L136.771 385.62L136.644 385.728L135.949 385.741L135.76 386.539L135.163 387.101L135.758 388.649L140.086 395.371L142.121 397L142.054 397.116L148.241 401.893L146.37 403.831L139.844 406.1L133.912 409.917L129.948 415.479L128.689 415.387L128.574 415.282L124.171 415.149L122.674 415.8L122.269 415.865L122.121 416.038L121.183 416.442L120.731 417.697L119.871 418.716L120.016 419.629L119.896 419.948L120.089 420.112L120.196 420.73L119.925 421.921L118.889 422.994L118.061 423.125L113.737 425.46L111.908 428.628L112.239 430.632L120.364 435.932L121.811 438.581L121.068 441.17L117.529 442.145L108.058 446.937L105.222 453.151L105.595 456.385L105.969 459.618L103.355 464.146L98.7297 465.699L97.159 468.419L97.7958 471.196L101.156 473.137L104.996 472.944L106.833 473.642L108.356 474.884L108.656 475.666L109.551 477.996L110.576 479.741L110.998 480.645L111.191 480.782L112.98 483.836L112.787 485.306L112.002 486.666L108.23 489.32L105.652 489.904L106.286 488.807L102.704 488.552L99.9809 489.39L99.663 489.608L96.1781 490.821L93.191 492.115L88.0021 493.342L81.2122 496.068L77.673 497.043L71.4104 498.855L64.8418 499.895L61.2603 499.64L55.7773 500.102L49.994 499.781L44.2531 500.69L42.1184 503.085L42.1324 503.754L41.5967 503.988L41.3481 504.752L40.8114 505.349L40.8388 506.271L40.5901 507.035L40.8904 508.011L40.9209 509.039L41.3144 509.383L42.4101 512.917L41.0607 513.952L37.7852 514.47L35.9401 514.895L34.5041 514.998L34.2238 515.29L32.4018 515.702L29.0092 515.453L27.6294 515.265L25.9917 515.525L25.7458 515.784L24.0903 516.24L22.2616 519.408L19.5749 521.484L11.9629 524.331L5.95833 525.696L-4.7135 527.385L-7.29294 528.305L-12.0618 529.775L-12.1252 530.023L-15.0489 531.069L-22.9549 533.15L-27.3585 533.017L-31.9834 534.57L-35.823 534.763L-40.1898 535.869L-40.0306 536.064L-41.2755 536.447L-47.6532 534.578L-49.855 534.512L-50.254 534.981L-50.9407 535.09L-51.393 536.344L-52.2533 537.363L-52.0041 538.012L-52.211 538.592L-51.5567 539.177L-51.3585 539.693L-50.7632 539.882L-50.2305 540.345L-48.3946 540.601L-46.9126 541.055L-46.5467 540.865L-44.7108 541.122L-42.4363 543.64L-41.9771 544.008L-41.5782 544.731L-40.7444 545.005L-39.8981 545.701L-39.2312 545.516L-39.0704 545.57L-38.9271 545.433L-36.347 544.733L-28.8903 544.206L-28.6622 544.338L-26.1968 543.948L-25.8715 543.384L-22.4244 541.294L-18.5848 541.101L-13.7387 537.862L-9.33508 537.995L-9.09728 537.86L-8.5194 537.857L-7.53596 537.013L-5.005 535.65L0.183906 534.423L5.37282 533.195L6.88834 532.593L7.2862 532.486L7.31425 532.438L12.1747 530.477L16.5391 529.486L17.088 529.699L19.5744 529.023L22.841 528.797L27.3173 531.382L28.145 531.251L28.9726 531.12L29.02 530.927L29.1017 530.896L30.874 530.404L34.9772 529.755L35.1278 529.66L35.7993 529.633L36.1471 529.031L38.486 527.557L42.3256 527.364L43.7023 527.253L45.3551 527.3L45.5673 527.099L47.8029 526.913L53.9169 529.238L55.0207 529.266L55.2967 529.425L56.1244 529.294L63.5454 529.356L63.6832 529.228L64.3731 529.225L65.1858 528.787L65.2008 529.094L67.6239 527.474L71.4634 527.282L74.7142 525.531L80.7188 524.166L83.1842 523.776L84.0119 523.645L83.9631 523.591L84.6659 523.427L84.822 523.517L88.3611 522.542L91.679 523.252L94.1444 522.862L94.4081 522.406L96.3095 521.69L105.344 520.26L107.339 521.736L107.318 521.996L108.998 522.966L114.187 521.738L120.301 524.063L126.636 524.703L126.747 524.65L129.544 524.905L131.982 525.781L135.516 527.42L136.555 527.644L138.018 528.269L148.651 534.408L150.031 534.595L150.146 534.506L152.238 534.652L160.627 539.495L160.105 540.399L160.742 543.176L160.911 543.326L162.273 548.283L162.786 556.43L160.915 558.368L156.621 561.926L154.75 563.864L155.344 565.412L158.993 568.127L158.471 569.031L153.956 574.274L151.042 578.019L151.168 579.103L151.078 579.258L151.225 579.641L151.409 581.263L147.446 586.825L144.308 586.218L143.564 585.789L142.736 585.92L135.646 587.863L131.843 589.294L129.751 592.918L130.676 596.471L130.338 598.996L129.7 600.739L130.096 601.771L130.03 602.744L130.685 603.329L131.183 604.627L130.471 608.439L130.72 609.088L130.513 609.668L131.473 611.026L131.671 611.542L132.597 615.094L130.504 618.718L129.677 618.849L126.953 619.686L126.628 620.25L125.604 620.721L121.501 621.37L121.231 621.642L120.415 621.948L119.63 623.308L117.759 625.247L116.091 624.893L115.251 624.408L113.613 624.667L113.319 625.702L112.57 626.474L113.164 628.022L114.21 628.898L114.58 629.449L116.133 630.501L120.215 633.907L120.258 635.136L118.908 636.17L117.338 638.891L118.19 639.992L122.102 642.25L123.291 645.346L123.92 645.865L124.144 646.447L125.129 646.848L125.824 647.417L135.562 651.226L136.389 651.095L141.681 653.541L144.147 653.151L150.261 655.476L152.726 655.086L159.668 657.28L159.731 657.226L166.04 659.159L169.813 656.505L176.976 657.013L186.149 660.496L186.714 660.822L189.209 661.654L193.601 663.775L195.885 665.417L196.818 667.847L196.928 667.768L197.124 668.62L199.135 671.595L201.631 672.427L206.107 675.011L210.511 675.144L210.678 675.02L211.333 675.023L215.245 677.281L216.662 678.708L218.078 680.135L232.359 688.989L234.328 690.734L238.24 692.993L241.079 695.837L245.247 697.764L246.606 698.873L247.278 700.62L247.32 701.85L247.518 702.366L247.981 705.859L246.717 709.352L245.71 712.398L244.925 713.758L244.704 715.444L241.868 721.657L241.911 722.887L227.352 741.646L220.18 750.188L219.552 751.276L217.691 753.583L217.535 753.493L214.357 757.695L209.842 762.939L200.553 773.872L193.093 781.639L189.915 785.841L186.185 789.724L169.724 809.2L165.994 813.083L160.766 822.138L161.067 822.92L159.238 826.088L158.152 826.665L155.238 830.411L155.875 833.188L160.903 836.091L161.731 835.96L164.718 834.666L172.339 822.769L180.062 814.546L185.994 810.73L189.694 805.624L194.995 799.02L200.001 791.651L201.351 790.617L206.099 783.694L213.793 774.249L216.479 772.173L227.118 760.204L228.946 757.037L237.713 747.007L241.677 741.445L242.763 740.867L248.321 733.816L252.285 728.254L253.37 727.676L253.598 727.393L259.566 723.403L261.798 724.692L262.098 725.474L262.693 727.022L266.083 730.184L271.633 732.184L279.649 733.793L282.114 733.403L289.799 733.008L292.744 730.485L301.141 726.278L302.712 723.557L306.964 718.77L310.437 718.962L310.545 719.025L312.747 719.091L323.27 721.539L329.126 724.312L331.16 725.084L336.797 727.626L337.773 728.708L337.819 728.683L338.135 729.383L338.079 729.48L340.42 734.46L340.53 738.15L341.425 740.48L344 743.78L348.064 750.959L349.062 751.807L348.916 752.06L352.565 754.775L353.202 757.552L355.476 760.07L357.972 760.903L358.443 760.695L358.8 760.772L358.973 760.47L359.736 760.147L359.622 760.65L360.971 759.616L364.031 760.773L364.519 762.506L364.362 762.778L364.565 762.675L364.769 763.376L364.662 763.56L365.256 765.108L367.789 767.179L371.438 769.895L373.381 770.408L376.368 769.114L380.281 771.373L385.13 777.191L386.233 777.97L387.111 778.944L387.516 778.879L389.907 780.558L392.181 783.076L397.294 788.437L401.207 790.696L404.855 793.412L408.479 794.895L411.539 796.053L412.134 797.601L424.998 805.028L427.2 805.095L438.385 811.552L440.85 811.162L441.041 808.254L440.031 802.243L440.18 798.105L443.804 799.589L452.12 801.981L457.118 803.661L458.725 802.18L458.394 800.175L460.745 796.104L462.094 795.07L464.296 795.136L471.268 798.553L476.818 800.552L478.389 797.832L480.59 797.898L488.691 801.966L495.326 803.388L496.934 801.906L495.195 798.35L495.488 796.123L496.409 793.753L498.568 792.59L503.002 793.945L510.956 795.467L511.018 795.554L511.615 795.601L512.392 795.752L514.833 796.54L514.882 796.594L521.824 798.788L524.51 796.712L534.47 798.835L540.283 800.378L542.918 798.725L545.172 798.368L551.55 800.236L555.389 800.044L561.172 800.364L565.012 800.172L567.362 796.101L570.086 795.263L573.968 796.3L577.549 796.554L579.191 795.235L579.972 794.935L581.183 793.613L584.518 790.914L586.653 788.519L585.991 784.51L588.538 777.521L588.687 773.383L591.037 769.312L590.964 766.861L590.37 765.313L589.815 755.937L589.933 750.578L587.74 741.461L590.315 744.761L592.025 746.954L594.558 749.025L595.385 748.894L597.023 748.634L598.594 745.914L599.028 744.247L599.858 742.421L599.574 742.166L599.828 741.199L598.903 737.646L600.689 733.25L600.473 732.322L600.647 732.02L600.346 731.238L600.107 730.737L600.046 730.456L601.053 727.41L603.285 728.698L603.063 730.384L605.596 732.455L607.234 732.196L609.063 729.029L611.222 727.866L611.965 725.277L614.461 726.109L617.405 723.586L622.145 725.713L624.016 723.775L624.993 719.507L624.398 717.959L622.776 716.75L623.546 716.858L620.75 715.244L622.926 711.474L625.265 710L628.965 704.895L628.561 700.439L629.759 694.484L629.531 693.355L629.716 693.255L628.791 689.703L629.907 690.347L630.031 690.354L640.24 695.704L641.589 694.669L640.885 689.431L639.31 687.42L639.727 687.557L637.452 685.039L635.111 680.06L633.4 677.868L633.922 676.964L642.88 664.026L643.966 663.448L647.108 659.225L647.132 659.239L650.573 654.58L651.659 654.002L654.537 649.018L654.494 647.789L655.237 645.199L657.439 645.266L661.351 647.525L662.246 649.855L662.72 650.336L663.111 650.963L663.675 651.288L666.513 654.132L666.034 656.265L666.334 657.047L666.071 657.504L666.923 658.605L670.283 660.545L671.111 660.414L671.548 659.656L674.061 657.881L678.686 656.328L679.458 655.906L679.502 656.19L682.753 654.44L683.196 653.893L684.102 653.405L685.931 650.238L689.77 650.045L701.337 650.686L705.843 654.493L715.391 661.21L720.419 664.113L722.621 664.179L724.449 661.012L723.855 659.464L720.495 657.524L714.007 651.965L709.243 648.605L705.81 644.214L703.535 641.696L704.057 640.792L704.47 639.606L706.107 635.939L706.187 634.664L706.328 634.253L707.335 631.207L708.12 629.847L707.977 628.987L708.078 628.618L708.226 624.48L708.448 622.794L708.304 622.711L708.47 619.18L708.673 616.888L710.494 608.884L709.599 606.554L707.631 604.808L704.613 604.88L700.701 602.621L701.223 601.718L700.034 598.622L700.513 596.489L704.88 595.383L707.825 592.86L709.654 589.693L710.066 585.099L713.135 577.206L713.589 573.841L716.725 568.41L717.81 567.832L722.508 568.731L726.39 569.767L728.813 568.148L731.691 563.164L731.287 558.708L733.24 550.171L734.064 540.983L738.661 529.141L741.76 522.471L745.299 521.496L749.775 524.08L750.412 526.857L750.073 533.903L747.195 538.887L746.342 537.786L742.982 535.846L741.603 535.658L739.468 538.053L740.32 539.154L740.884 539.48L743.723 542.323L742.458 545.816L741.524 551.314L739.696 554.481L737.794 555.197L736.788 558.243L738.541 561.665L743.869 565.35L742.341 569.3L746.326 574.01L750.208 575.046L754.12 577.305L756.131 580.28L759.755 581.763L764.27 576.52L765.098 576.389L768.458 578.329L769.311 579.43L771.064 582.851L773.559 583.683L775.015 577.282L778.151 571.851L778.711 563.12L778.622 562.887L778.669 561.891L778.353 562.188L778.117 561.572L777.074 563.379L775.914 569.627L775.128 571.57L773.801 572.954L771.005 571.34L771.345 564.294L771.12 556.923L772.906 552.527L772.576 550.522L772.296 549.454L772.657 543.923L771.58 535.451L773.187 533.97L778.216 536.873L780.184 538.618L779.705 540.751L779.743 541.045L779.484 542.437L779.998 543.265L780.078 543.985L780.642 544.311L781.801 546.184L780.867 551.682L784.407 554.308L784.288 556.066L786.299 559.041L791.038 561.169L795.442 561.302L797.271 558.134L797.228 556.905L799.015 552.508L798.897 552.324ZM175.747 320.551L173.803 320.037L175.962 318.874L177.269 316.611L176.675 315.063L177.154 312.93L178.258 312.958L179.098 313.443L180.808 315.636L179.544 319.129L178.458 319.707L175.735 320.544L175.747 320.551ZM172.959 309.886L172.812 309.503L172.84 309.26L173.354 309.674L172.959 309.886Z" fill="#BF2846"/>
<path d="M60.5114 309.568L56.5991 307.309L53.2812 306.598L48.0987 307.842L45.4423 311.141L45.8155 314.374L48.1203 318.115L51.4806 320.055L54.2344 320.44L58.9017 320.116L61.8464 317.593L62.2706 313.006L60.5114 309.568Z" fill="#BF2846"/>
<path d="M608.459 776.275L604.535 774.009L603.161 773.812L597.966 775.049L595.874 778.673L596.595 783.908L599.722 787.527L602.213 788.369L608.481 786.547L610.573 782.923L610.47 779.249L608.459 776.275Z" fill="#BF2846"/>
<path d="M573.572 248.954L574.149 250.09L574.461 251.268L574.881 251.51L575.325 252.375L579.801 254.96L581.733 255.466L585.021 254.955L585.836 254.817L586.74 253.668L587.186 253.782L588.751 251.072L588.684 248.61L588.199 247.787L588.089 247.062L587.633 246.799L586.078 244.088L582.154 241.822L578.831 241.121L575.843 242.415L573.493 246.486L573.535 247.715L573.572 248.954Z" fill="#BF2846"/>
<path d="M53.8744 354.652L48.7278 357.109L47.1572 359.829L47.309 364.749L50.3992 367.129L53.7171 367.84L60.5494 366.344L62.378 363.176L62.3053 360.725L60.5581 357.294L56.6458 355.035L53.8744 354.652Z" fill="#BF2846"/>
<path d="M641.963 710.483L646.066 709.833L647.895 706.666L647.828 704.204L645.481 699.235L642.384 696.838L638.281 697.488L635.403 702.472L635.734 704.477L638.051 708.224L641.963 710.483Z" fill="#BF2846"/>
<path d="M501.004 211.876L506.032 214.779L509.056 214.724L512.307 212.974L513.049 210.385L511.824 206.05L508.17 203.344L504.594 203.08L501.607 204.374L499.551 209.237L501.004 211.876Z" fill="#BF2846"/>
<path d="M150.649 243.879L155.389 246.007L156.284 248.337L158.558 250.855L161.834 250.336L163.405 247.616L162.51 245.286L157.181 241.6L155.692 237.722L153.154 235.661L149.572 235.407L148.007 238.117L148.338 240.122L150.649 243.879Z" fill="#BF2846"/>
<path d="M107.597 256.448L109.608 259.423L112.098 260.265L116.465 259.159L118.336 257.221L115.4 250.694L112.304 248.297L110.924 248.109L107.636 248.621L106.366 252.123L107.597 256.448Z" fill="#BF2846"/>
<path d="M307.835 167.984L310.139 171.724L312.341 171.791L313.912 169.07L314.366 165.706L312.504 158.594L309.924 155.303L306.648 155.822L304.819 158.989L304.862 160.218L307.835 167.984Z" fill="#BF2846"/>
<path d="M204.544 262.91L208.715 264.722L212.818 264.072L213.242 259.485L211.741 255.6L207.829 253.341L204.811 253.413L202.13 255.479L202.228 259.163L204.544 262.91Z" fill="#BF2846"/>
<path d="M144.443 321.806L143.069 321.609L141.456 323.1L135.415 323.226L133.544 325.164L135.591 329.378L138.129 331.439L139.479 330.404L141.159 331.374L140.632 332.288L142.342 334.48L143.349 331.434L147.354 327.101L146.981 323.867L144.443 321.806Z" fill="#BF2846"/>
<path d="M832.694 560.968L829.376 560.257L825.832 561.242L825.077 563.824L826.566 567.702L832.722 571.257L836.003 570.729L837.832 567.561L836.343 563.683L832.694 560.968Z" fill="#BF2846"/>
<path d="M10.9359 509.98L10.9484 510.402L12.3585 511.812L15.4248 512.986L19.2276 511.555L20.4922 508.062L19.003 504.183L15.9184 501.794L13.1526 501.402L10.1655 502.695L8.59483 505.416L8.93757 507.427L10.9359 509.98Z" fill="#BF2846"/>
<path d="M640.1 277.091L643.718 278.585L646.999 278.056L647.785 276.696L649.613 273.529L648.424 270.433L644.776 267.718L643.384 267.523L638.501 269.523L636.931 272.243L637.825 274.573L640.1 277.091Z" fill="#BF2846"/>
<path d="M201.369 693.391L201.933 693.717L202.755 693.595L203.834 693.001L204.656 692.879L205.088 692.326L205.994 691.838L206.482 690.604L207.301 689.574L207.211 688.732L207.534 687.895L206.639 685.565L206.075 685.239L204.365 683.047L200.219 682.467L196.974 684.208L195.14 687.385L195.446 688.158L198.02 691.458L200.553 693.529L201.369 693.391Z" fill="#BF2846"/>
<path d="M140.046 534.816L136.385 532.094L135.006 531.906L132.54 532.296L130.418 534.698L130.521 538.372L132.268 541.803L135.628 543.743L136.456 543.612L140.259 542.18L141.272 539.151L140.046 534.816Z" fill="#BF2846"/>
<path d="M107.887 423.87L109.758 421.932L109.679 419.464L113.255 419.728L113.752 417.592L110.098 414.887L106.216 413.85L101.855 414.947L99.4987 419.027L100.688 422.123L104.048 424.063L107.887 423.87Z" fill="#BF2846"/>
<path d="M134.536 224.783L134.144 224.686L132.794 225.72L132.579 227.396L133.804 231.731L138.269 234.309L142.12 234.123L144.506 231.265L144.434 228.813L142.423 225.838L139.063 223.898L136.045 223.97L134.536 224.783Z" fill="#BF2846"/>
<path d="M124.578 393.659L123.983 392.111L119.44 387.065L116.08 385.125L112.541 386.1L110.712 389.268L112.459 392.699L115.819 394.639L122.719 395.604L124.578 393.659Z" fill="#BF2846"/>
<path d="M319.029 220.928L321.702 227.912L324.468 228.304L325.775 226.041L324.507 220.477L322.95 214.137L319.848 211.75L317.383 212.14L316.076 214.404L316.412 216.399L319.029 220.928Z" fill="#BF2846"/>
<path d="M154.595 256.417L150.683 254.158L148.217 254.548L143.814 254.416L142.507 256.679L143.702 259.792L146.762 260.95L149.749 259.656L159.708 261.779L160.751 259.971L159.593 258.098L156.496 255.701L154.595 256.417Z" fill="#BF2846"/>
<path d="M97.7214 349.77L101.412 353.715L101.485 356.166L102.974 360.044L105.434 359.664L106.177 357.074L105.282 354.744L105.473 351.836L109.361 352.863L107.829 347.755L104.469 345.815L98.4643 347.181L97.7214 349.77Z" fill="#BF2846"/>
<path d="M49.6256 563.525L46.2774 561.592L42.7262 562.56L40.8975 565.728L41.8347 569.287L44.1092 571.805L47.6907 572.059L50.9359 570.318L51.6788 567.729L49.6256 563.525Z" fill="#BF2846"/>
<path d="M73.443 448.664L74.8227 448.852L78.3619 447.877L80.4542 444.253L79.2654 441.157L75.9052 439.217L74.5254 439.029L70.9743 439.997L69.1456 443.164L70.0828 446.724L73.443 448.664Z" fill="#BF2846"/>
<path d="M258.957 179.004L258.214 181.593L260.034 187.476L263.382 189.409L265.032 189.157L267.455 187.537L267.345 183.847L265.856 179.969L262.496 178.029L258.957 179.004Z" fill="#BF2846"/>
<path d="M70.6903 485.718L74.3022 487.195L76.7676 486.804L79.1603 483.963L77.6711 480.084L74.5689 477.698L70.993 477.434L68.8703 479.835L68.9431 482.287L70.6903 485.718Z" fill="#BF2846"/>
<path d="M199.64 709.299L196.58 708.141L195.98 708.183L195.206 707.944L193.614 708.346L191.925 708.472L191.811 708.808L190.839 709.05L189.011 712.217L188.82 715.125L189.102 715.495L189.12 715.907L189.527 716.311L189.421 716.69L190.831 718.1L191.783 718.779L193.363 720.171L194.24 720.509L195.607 721.466L196.149 721.222L196.423 721.329L202.397 718.741L203.968 716.021L203.043 712.468L199.64 709.299Z" fill="#BF2846"/>
<path d="M136.978 218.472L140.823 218.27L142.91 214.656L142.015 212.325L138.931 209.936L136.987 209.422L134.263 210.259L132.435 213.427L133.329 215.757L136.978 218.472Z" fill="#BF2846"/>
<path d="M174.536 289.059L177.964 293.46L182.182 296.491L183.777 295.003L182.925 293.902L181.694 289.577L179.64 285.373L176.556 282.983L174.906 283.235L173.899 286.281L174.536 289.059Z" fill="#BF2846"/>
<path d="M292.979 232.458L296.076 234.855L298.793 234.001L299.242 230.646L297.716 225.529L295.178 223.467L292.724 223.865L291.159 226.575L291.49 228.58L292.979 232.458Z" fill="#BF2846"/>
<path d="M345.011 772.709L347.367 768.628L346.142 764.293L342.973 759.445L340.434 757.384L338.624 757L338.496 756.861L337.585 756.776L337.117 756.673L335.953 756.61L332.161 756.222L332.06 756.396L331.333 756.353L327.339 760.692L328.265 764.245L329.202 767.804L326.406 766.19L325.44 766.228L325.019 765.986L323.376 766.255L323.196 766.345L322.566 766.383L321.266 767.083L320.653 767.092L318.23 768.711L317.777 769.966L316.923 770.975L317.133 771.718L316.965 772.204L318.148 775.31L318.592 775.566L319.006 776.401L322.93 778.667L326.77 778.474L333.038 776.652L336.768 772.769L338.142 772.966L340.022 772.898L340.344 773.033L345.011 772.709Z" fill="#BF2846"/>
<path d="M75.3722 347.127L75.6726 347.91L78.5111 350.753L81.5286 350.682L82.6143 350.104L82.8815 349.17L83.6577 348.297L83.0513 346.742L83.2175 342.602L78.4351 339.245L77.6131 339.366L77.3138 340.411L76.5641 341.183L76.9559 341.668L76.8701 341.955L77.4341 342.281L78.2866 343.382L76.9372 344.417L75.3722 347.127Z" fill="#BF2846"/>
<path d="M120.183 551.122L119.091 551.295L118.803 550.935L116.08 551.772L115.337 554.361L116.262 557.914L119.622 559.854L122.898 559.335L124.468 556.615L122.979 552.737L120.183 551.122Z" fill="#BF2846"/>
<path d="M61.3125 614.344L57.7614 615.312L56.4967 618.805L57.6799 621.91L60.7398 623.068L63.7269 621.774L65.8616 619.38L64.6608 616.277L61.3125 614.344Z" fill="#BF2846"/>
<path d="M128.603 408.665L129.915 406.392L128.978 402.832L125.324 400.126L122.306 400.198L121.03 403.684L121.925 406.014L125.579 408.72L128.603 408.665Z" fill="#BF2846"/>
<path d="M241.51 276.402L243.215 278.604L246.233 278.532L246.583 276.014L246.945 274.72L246.824 274.21L246.921 273.488L246.332 272.346L246.02 271.168L245.512 270.745L245.168 270.067L241.507 267.344L240.691 267.482L239.384 269.746L240.021 272.523L241.51 276.402Z" fill="#BF2846"/>
<path d="M575.573 798.341L572.555 798.413L570.396 799.575L571.622 803.91L574.154 805.981L577.172 805.91L579.043 803.972L578.369 799.955L575.573 798.341Z" fill="#BF2846"/>
<path d="M90.0942 361.677L94.0065 363.935L95.8775 361.997L96.8537 357.729L93.2051 355.013L90.1756 355.078L88.911 358.571L90.0942 361.677Z" fill="#BF2846"/>
<path d="M151.363 295.604L152.106 293.015L150.875 288.689L148.343 286.618L146.705 286.878L143.827 291.862L144.68 292.963L149.72 295.873L151.363 295.604Z" fill="#BF2846"/>
<path d="M25.6946 331.128L21.5914 331.777L20.0208 334.498L20.6152 336.045L23.9754 337.986L27.2509 337.467L29.6493 334.616L29.0549 333.068L25.6946 331.128Z" fill="#BF2846"/>
<path d="M137.293 303.181L138.93 302.922L140.801 300.983L139.834 296.202L138.117 293.993L135.922 293.943L133.529 296.785L134.754 301.119L137.293 303.181Z" fill="#BF2846"/>
<path d="M106.653 530.629L109.046 527.787L108.151 525.457L104.791 523.517L101.51 524.045L99.9446 526.755L100.539 528.303L105.015 530.888L106.653 530.629Z" fill="#BF2846"/>
<path d="M363.972 179.254L367.321 181.187L369.119 176.797L368.746 173.564L366.213 171.492L363.484 172.339L362.741 174.929L363.972 179.254Z" fill="#BF2846"/>
<path d="M578.21 822.21L574.371 822.403L573.064 824.666L573.946 826.99L576.479 829.061L579.509 828.996L581.079 826.276L580.184 823.945L578.21 822.21Z" fill="#BF2846"/>
<path d="M201.394 239.961L200.376 243.001L202.129 246.422L204.109 248.174L206.838 247.328L207.318 245.195L205.828 241.317L203.848 239.564L201.394 239.961Z" fill="#BF2846"/>
<path d="M61.6561 487.148L63.2994 486.879L65.7345 485.267L67.2628 481.317L66.3624 478.996L62.1497 475.955L60.77 475.768L58.9182 476.564L58.8742 476.474L57.7829 477.061L55.9542 480.229L57.1798 484.564L61.6561 487.148Z" fill="#BF2846"/>
<path d="M168.494 271.087L167.008 276.266L167.603 277.814L170.963 279.754L171.779 279.616L173.086 277.353L173.535 273.998L170.702 271.144L168.494 271.087Z" fill="#BF2846"/>
<path d="M102.878 329.197L104.858 330.949L106.76 330.233L107.239 328.1L104.07 323.252L100.985 320.862L99.3475 321.122L98.8505 323.257L102.542 327.202L102.878 329.197Z" fill="#BF2846"/>
<path d="M127.946 386.549L127.124 386.67L125.265 388.615L126.448 391.721L128.986 393.782L130.624 393.523L133.047 391.903L131.294 388.482L127.946 386.549Z" fill="#BF2846"/>
<path d="M116.418 378.08L114.853 380.79L115.454 382.355L117.428 384.091L123.733 383.508L123.402 381.503L118.62 378.146L116.418 378.08Z" fill="#BF2846"/>
<path d="M135.082 265.685L132.623 266.065L131.316 268.329L131.947 271.116L134.743 272.73L137.994 270.98L138.173 268.065L135.082 265.685Z" fill="#BF2846"/>
<path d="M855.446 568.066L852.086 566.126L849.896 566.067L848.025 568.005L848.92 570.335L852.268 572.268L853.918 572.016L855.777 570.071L855.446 568.066Z" fill="#BF2846"/>
<path d="M189.556 675.106L185.453 675.755L185.262 678.664L187.8 680.725L191.903 680.075L192.658 677.493L189.556 675.106Z" fill="#BF2846"/>
<path d="M681.783 305.471L681.643 305.908L681.733 306.168L681.673 307.13L682.09 307.073L683.132 309.786L687.308 311.588L691.669 310.492L693.24 307.772L692.315 304.219L689.476 301.376L685.895 301.121L683.996 302.137L683.993 301.837L683.462 302.424L682.65 302.862L682.401 303.625L681.864 304.222L681.783 305.471Z" fill="#BF2846"/>
<path d="M68.3099 423.963L65.7774 421.892L62.7479 421.957L61.4776 425.459L64.0158 427.521L67.0333 427.449L68.9043 425.511L68.3099 423.963Z" fill="#BF2846"/>
<path d="M128.281 221.897L129.103 221.776L130.974 219.838L130.632 217.826L127.805 214.989L126.431 214.792L124.56 216.73L125.485 220.283L128.281 221.897Z" fill="#BF2846"/>
<path d="M727.541 333.612L729.964 331.993L729.34 329.222L725.979 327.282L724.342 327.542L723.035 329.805L724.787 333.227L727.541 333.612Z" fill="#BF2846"/>
<path d="M106.093 539.36L108.553 538.979L109.559 535.933L106.475 533.544L105.083 533.349L102.396 535.425L103.297 537.746L106.093 539.36Z" fill="#BF2846"/>
<path d="M124.005 374.001L121.828 375.166L122.765 378.726L126.419 381.432L128.29 379.493L126.538 376.072L124.005 374.001Z" fill="#BF2846"/>
<path d="M112.223 356.938L111.81 361.532L114.607 363.147L115.422 363.009L116.987 360.298L116.368 357.518L113.836 355.447L112.223 356.938Z" fill="#BF2846"/>
<path d="M342.945 211.794L345.147 211.86L344.774 208.626L343.284 204.748L340.488 203.134L339.445 204.941L340.076 207.728L342.945 211.794Z" fill="#BF2846"/>
<path d="M74.8878 608.902L72.5071 611.751L75.0453 613.812L78.5844 612.837L80.1495 610.127L78.181 608.381L74.8878 608.902Z" fill="#BF2846"/>
<path d="M92.961 328.303L93.4827 327.4L91.7298 323.978L88.0692 321.256L86.6895 321.068L85.6461 322.875L88.7851 326.501L92.961 328.303Z" fill="#BF2846"/>
<path d="M106.254 406.022L104.947 408.286L106.669 410.485L109.724 411.653L111.625 410.937L111.558 408.476L107.082 405.891L106.254 406.022Z" fill="#BF2846"/>
<path d="M235.417 228.812L234.037 228.624L232.994 230.431L234.177 233.537L237.801 235.02L238.85 233.204L237.949 230.883L235.417 228.812Z" fill="#BF2846"/>
<path d="M33.4501 342.251L31.8123 342.51L30.5053 344.774L31.6517 346.64L34.9696 347.351L36.8406 345.413L36.2463 343.865L33.4501 342.251Z" fill="#BF2846"/>
<path d="M349.332 204.612L348.283 206.429L351.194 211.724L352.568 211.922L353.875 209.658L352.68 206.545L349.332 204.612Z" fill="#BF2846"/>
<path d="M112.892 314.458L110.72 315.614L112.21 319.492L115.264 320.66L116.313 318.843L114.866 316.194L112.892 314.458Z" fill="#BF2846"/>
<path d="M205.927 152.014L207.565 151.755L208.32 149.172L206.039 146.638L204.659 146.45L202.8 148.395L203.131 150.4L205.927 152.014Z" fill="#BF2846"/>
<path d="M85.3748 396.986L82.8422 394.914L80.6348 394.858L79.3278 397.122L79.6338 397.894L82.9821 399.827L84.8955 399.118L85.3748 396.986Z" fill="#BF2846"/>
<path d="M120.622 195.142L121.929 192.878L121.628 192.096L118.79 189.252L117.974 189.39L116.103 191.328L118.114 194.303L120.622 195.142Z" fill="#BF2846"/>
<path d="M120.261 600.07L119.776 602.213L122.315 604.274L123.952 604.015L125.517 601.304L123.549 599.559L120.261 600.07Z" fill="#BF2846"/>
<path d="M73.0677 603.02L71.6935 602.822L69.0068 604.898L67.3995 606.38L70.4537 607.547L74.2565 606.116L74.4897 604.437L73.0677 603.02Z" fill="#BF2846"/>
<path d="M114.695 338.441L112.836 340.386L114.282 343.035L117.606 343.736L118.361 341.154L114.695 338.441Z" fill="#BF2846"/>
<path d="M121.392 313.925L123.667 316.443L121.544 318.845L121.875 320.849L124.671 322.464L126.309 322.204L127.616 319.941L124.519 317.544L126.654 315.149L126.059 313.601L123.263 311.987L121.392 313.925Z" fill="#BF2846"/>
<path d="M169.982 237.526L170.797 237.388L171.246 234.033L168.162 231.644L166.291 233.582L167.185 235.912L169.982 237.526Z" fill="#BF2846"/>
<path d="M219.226 229.724L216.951 227.206L215.572 227.018L213.713 228.963L214.859 230.83L217.919 231.988L219.226 229.724Z" fill="#BF2846"/>
<path d="M132.212 372.702L129.109 370.315L128.588 371.219L131.757 376.067L134.295 378.128L134.774 375.995L132.212 372.702Z" fill="#BF2846"/>
<path d="M122.166 266.078L123.779 264.587L123.184 263.039L121.204 261.286L120.388 261.424L118.517 263.363L119.112 264.91L122.166 266.078Z" fill="#BF2846"/>
<path d="M156.757 264.311L156.596 264.451L155.935 264.433L155.759 265.237L155.15 265.793L155.357 267.596L155.038 271.169L153.91 270.518L152.272 270.777L152.081 273.685L154.878 275.299L155.963 274.722L155.823 274.576L157.576 273.23L162.796 273.225L164.103 270.962L162.049 266.758L158.137 264.499L156.757 264.311Z" fill="#BF2846"/>
<path d="M144.918 337.78L143.201 335.571L142.385 335.709L142.359 336.031L142.121 336.166L142.246 337.779L142.194 338.617L142.334 343.53L137.005 339.845L133.351 337.139L129.8 338.107L129.32 340.24L131.632 343.997L131.514 349.357L132.714 352.459L135.799 354.849L138.264 354.459L139.793 350.509L141.855 345.663L144.014 344.5L145.321 342.236L145.217 341.114L145.279 341.007L144.918 337.78Z" fill="#BF2846"/>
<path d="M90.8731 638.056L89.5661 640.32L90.4241 641.411L93.19 641.803L95.049 639.858L92.5165 637.787L90.8731 638.056Z" fill="#BF2846"/>
<path d="M85.2276 438.562L83.3686 440.507L85.9011 442.578L87.5445 442.309L88.8515 440.046L87.4294 438.629L85.2276 438.562Z" fill="#BF2846"/>
<path d="M133.252 361.838L130.983 359.31L128.818 360.483L129.713 362.813L132.251 364.874L133.252 361.838Z" fill="#BF2846"/>
<path d="M104.284 302.234L106.708 300.615L113.98 304.813L116.992 304.752L118.305 302.478L117.859 296.793L117.197 292.784L112.457 290.656L107.65 286.067L104.884 285.675L101.345 286.65L99.5109 289.827L99.6507 294.74L101.182 299.847L104.284 302.234Z" fill="#BF2846"/>
<path d="M-0.386106 341.435L-0.769212 341.045L-1.28091 339.105L-6.8733 335.876L-8.25302 335.688L-12.8779 337.241L-13.8552 338.491L-14.2273 338.276L-15.7923 340.987L-15.4192 344.22L-11.5069 346.479L-10.1328 346.677L-9.85413 346.527L-7.10329 346.612L-1.92639 345.378L-0.35574 342.657L-0.582439 341.775L-0.386106 341.435Z" fill="#BF2846"/>
<path d="M830.006 461.001L833.066 462.158L834.373 459.895L831.835 457.833L829.933 458.549L830.006 461.001Z" fill="#BF2846"/>
<path d="M518.175 244.135L518.769 245.683L518.889 245.753L519.07 246.466L525.226 250.02L526.606 250.208L527.98 250.405L528.244 249.949L529.071 249.818L532.42 251.751L538.245 253.3L544.244 251.945L545.815 249.224L545.705 245.534L543.4 241.794L543.123 241.582L542.536 240.686L539.446 238.306L535.564 237.269L531.461 237.919L530.154 240.183L529.89 240.639L531.613 242.838L530.827 244.199L528.889 243.676L527.43 241.02L526.123 240.485L525.198 239.731L525.502 240.23L523.818 239.543L519.452 240.649L518.145 242.913L518.349 243.834L518.175 244.135Z" fill="#BF2846"/>
<path d="M739.911 611.865L739.101 611.993L737.488 613.484L740.026 615.545L742.492 615.155L742.707 613.479L739.911 611.865Z" fill="#BF2846"/>
<path d="M112.562 349.893L113.721 351.766L117.039 352.477L116.972 350.016L114.175 348.402L112.562 349.893Z" fill="#BF2846"/>
<path d="M85.2837 477.238L82.7511 475.167L81.1014 475.419L81.1805 477.887L83.6763 478.719L85.2837 477.238Z" fill="#BF2846"/>
<path d="M168.022 264.17L169.66 263.911L169.881 262.225L167.349 260.154L166.533 260.292L166.042 262.418L168.022 264.17Z" fill="#BF2846"/>
<path d="M65.3368 398.1L66.9499 396.609L64.9637 394.866L63.5896 394.668L62.8467 397.258L65.3368 398.1Z" fill="#BF2846"/>
<path d="M710.691 321.474L710.36 319.469L707 317.529L706.215 318.89L709.869 321.595L710.691 321.474Z" fill="#BF2846"/>
<path d="M126.854 238.587L126.068 239.947L127.791 242.147L129.65 240.202L128.233 238.775L126.854 238.587Z" fill="#BF2846"/>
<path d="M320.342 200.558L320.575 198.879L318.037 196.817L316.994 198.624L318.398 200.044L320.342 200.558Z" fill="#BF2846"/>
<path d="M79.8761 360.001L80.6615 358.641L78.6929 356.895L77.8653 357.026L77.386 359.159L79.8761 360.001Z" fill="#BF2846"/>
<path d="M81.3316 316.16L79.7242 317.642L81.1407 319.068L83.3057 317.896L81.3316 316.16Z" fill="#BF2846"/>
<path d="M14.4588 563.741L16.4273 565.487L18.0403 563.995L15.2441 562.381L14.4588 563.741Z" fill="#BF2846"/>
<path d="M306.478 724.488L308.447 726.234L310.348 725.518L307.81 723.457L306.478 724.488Z" fill="#BF2846"/>
<path d="M123.273 340.376L121.305 338.631L120.256 340.447L122.23 342.183L123.273 340.376Z" fill="#BF2846"/>
<path d="M191.201 239.518L193.187 241.26L193.972 239.9L191.986 238.157L191.201 239.518Z" fill="#BF2846"/>
<path d="M551.683 224.839L550.015 223.876L548.666 224.911L550.64 226.647L551.683 224.839Z" fill="#BF2846"/>
<path d="M88.8123 447.873L88.2906 448.777L90.2591 450.522L91.0444 449.162L90.1864 448.071L88.8123 447.873Z" fill="#BF2846"/>
<path d="M197.299 166.957L198.348 165.14L196.668 164.17L195.883 165.53L197.299 166.957Z" fill="#BF2846"/>
<path d="M180.754 248.578L179.859 246.248L178.51 247.282L180.754 248.578Z" fill="#BF2846"/>
<path d="M213.547 186.597L211.879 185.634L211.094 186.994L212.21 187.639L213.547 186.597Z" fill="#BF2846"/>
<path d="M99.515 336.323L101.158 336.054L99.7363 334.637L99.515 336.323Z" fill="#BF2846"/>
<path d="M234.957 185.68L234.172 187.041L235.3 187.692L235.827 186.779L234.957 185.68Z" fill="#BF2846"/>
<path d="M224.302 706.632L223.186 705.987L222.664 706.891L223.78 707.535L224.302 706.632Z" fill="#BF2846"/>
<path d="M122.932 569.615L121.816 568.97L121.295 569.874L122.411 570.518L122.932 569.615Z" fill="#BF2846"/>
</g>
<defs>
<clipPath id="clip0_322_711">
<rect width="869.342" height="734.151" fill="white" transform="translate(181.076) rotate(30)"/>
</clipPath>
</defs>
</svg>
