<svg width="928" height="726" viewBox="0 0 928 726" fill="none" xmlns="http://www.w3.org/2000/svg">
<g clip-path="url(#clip0_527_683)">
<path d="M803.705 503.476C801.142 503.471 798.801 503.527 796.469 503.426C795.474 503.383 794.507 502.967 793.51 502.803C792.47 502.633 791.41 502.482 790.356 502.469C789.104 502.452 787.83 502.498 786.604 502.696C785.747 502.834 784.954 503.273 784.102 503.753C783.447 504.976 782.823 506.023 781.827 507.106C779.197 506.994 776.94 506.847 774.682 506.7C773.68 506.385 772.673 506.084 771.681 505.746C771.453 505.669 771.189 505.304 771.098 505.344C767.636 506.866 765.673 503.861 763.257 502.944C760.146 501.762 757.983 502.114 755.432 503.379C755.113 503.537 754.419 503.384 754.059 503.169C750.94 501.313 747.769 500.433 744.063 502.013C743.491 502.257 741.953 501.55 741.408 500.919C738.844 497.953 738.125 497.492 734.583 499.508C731.46 501.285 728.287 500.241 725.169 500.481C724.279 500.549 723.246 499.188 721.895 498.202C718.78 499.451 714.857 498.602 710.881 498.305C708.223 498.106 705.554 498.411 703.161 497.045C700.835 495.717 698.744 493.407 695.516 495.518C692.585 492.795 688.66 494.962 685.353 493.95C684.057 493.553 682.429 493.782 682.444 495.302C682.45 495.888 683.908 496.705 684.869 496.993C687.404 497.753 689.939 498.369 692.752 497.485C693.45 497.266 694.809 498.664 695.865 499.318C695.764 499.522 695.663 499.726 695.562 499.931C693.644 499.931 691.725 499.941 689.807 499.926C688.937 499.919 688.052 499.76 687.205 499.866C686.701 499.93 685.971 500.312 685.871 500.665C685.774 501.012 686.262 501.802 686.637 501.883C688.682 502.323 690.767 502.85 692.847 502.879C695.503 502.915 698.171 502.33 700.827 502.372C701.953 502.39 703.06 503.321 704.569 503.869C706.316 504.039 707.669 504.178 709.022 504.318C711.603 505.853 714.581 504.834 717.32 505.326C718.019 505.451 718.946 505.637 719.285 506.08C720.78 508.037 721.46 508.104 723.461 506.039C724.084 505.837 724.473 505.801 724.861 505.765C729.062 507.353 733.149 509.286 737.51 510.381C739.676 510.925 740.79 511.971 742.249 513.115C743.227 513.882 744.867 514.279 746.232 514.321C748.477 514.391 749.912 514.832 750.075 517.076C750.144 518.024 750.669 518.966 751.102 519.869C752.561 522.919 750.723 525.368 747.385 526.871C744.365 528.232 741.464 528.946 738.223 528.675C736.247 528.51 734.302 528.029 732.361 527.623C731.995 527.547 731.428 527.146 731.439 526.912C731.591 523.684 727.789 523.105 726.289 520.99C726.012 520.599 725.148 520.372 724.539 520.344C717.586 520.017 710.632 519.702 703.674 519.494C702.359 519.454 700.906 519.674 699.728 520.165C698.125 520.832 696.896 520.9 695.403 519.925C693.118 518.433 691.872 518.723 690.353 520.879C689.255 522.435 687.857 522.63 686.139 521.768C685.763 521.578 685.428 521.184 685.052 521.161C683.538 521.07 682.016 521.075 680.501 521.127C680.456 521.128 680.225 522.172 680.471 522.515C681.388 523.795 681.264 525.707 684.072 525.817C685.857 525.887 687.551 527.297 689.332 528.02C690.649 528.554 692.04 528.948 692.767 529.192C694.159 527.416 694.97 525.44 696.551 524.657C697.856 524.01 700.154 524.552 701.84 525.031C702.457 525.206 702.885 526.717 702.876 527.615C702.844 531.05 702.36 531.865 699.028 535.384C700.357 536.31 701.422 536.994 702.857 535.294C703.241 534.838 705.133 534.849 705.917 535.258C708.382 536.541 710.653 538.111 712.99 539.581C714.147 540.308 715.283 541.061 716.653 541.947C716.589 542.151 716.422 542.691 716.315 543.035C720.455 544.486 724.432 545.879 728.621 547.346C727.793 544.888 726.923 542.42 729.17 540.583C730.807 540.031 732.444 539.478 734.128 538.91C735.247 540.573 738.684 540.505 740.024 538.526C742.148 535.388 744.134 535.076 747.432 537.364C747.501 537.411 747.555 537.48 747.631 537.513C749.394 538.282 752.179 539.075 751.271 540.952C750.406 542.736 747.954 544.095 745.895 545.206C744.734 545.832 742.918 545.449 741.472 545.777C740.697 545.953 739.717 546.559 739.469 547.17C738.893 548.589 738.496 549.917 736.328 549.886C736.065 549.882 735.793 550.395 735.175 551.027C736.94 551.862 738.604 552.463 740.011 553.37C741.286 554.192 742.401 555.269 743.363 556.382C744.243 557.4 745.046 557.707 746.464 557.233C747.265 556.966 748.388 556.972 749.18 557.255C750.86 557.855 752.25 558.256 754.059 557.246C755.385 556.507 756.571 557.284 756.615 558.817C756.645 559.87 756.621 560.925 756.621 561.39C759.6 562.395 762.034 563.706 764.6 563.949C767.337 564.209 770.148 565.875 772.132 565.568C776.361 564.913 779.645 566.902 783.413 567.131C784.332 567.187 785.274 566.938 786.222 566.827C786.799 567.361 787.393 567.912 788.045 568.581C788.166 568.709 788.23 568.719 788.294 568.729C792.983 568.948 797.221 570.337 801.283 572.354C803.5 573.454 806.298 575.364 808.192 574.899C812.188 573.918 814.745 576.871 818.314 576.633C820.142 576.511 822.317 577.164 823.859 578.082C824.922 578.715 825.445 580.356 825.721 581.628C826.271 584.168 823.896 586.284 820.98 586.324C817.826 586.366 814.965 585.904 812.139 584.461C810.385 583.566 807.993 583.693 805.975 583.124C801.374 581.826 796.83 580.373 792.253 579.009C791.772 578.865 791.114 578.698 790.728 578.869C788.189 579.993 786.588 578.692 784.521 577.601C781.61 576.063 778.254 575.089 774.705 576.53C774.194 576.738 773.199 576.672 772.811 576.363C770.105 574.207 766.698 573.848 763.35 573.194C761.803 572.892 760.42 571.989 758.92 571.451C754.397 569.829 749.48 569.1 745.452 566.328C744.184 565.456 742.048 565.26 740.311 565.265C736.671 565.276 735.785 565.012 733.928 562.253C733.559 562.501 733.199 562.743 732.773 563.029C732.593 562.749 732.419 562.571 732.356 562.367C731.651 560.087 730.385 558.344 727.645 557.435C725.834 556.834 724.211 555.744 722.599 554.753C720.317 553.351 717.799 552.57 715.083 552.167C714.413 552.068 713.41 551.983 713.176 551.602C711.31 548.551 707.229 548.8 704.496 547.013C701.812 545.258 698.7 544.012 695.811 542.49C695.088 542.109 694.514 541.515 693.854 541.038C693.257 540.606 692.635 540.202 692.023 539.786C691.737 540.02 691.45 540.255 691.163 540.49C692.197 541.648 693.148 542.874 694.283 543.95C696.392 545.948 698.632 547.838 700.756 549.824C701.116 550.16 701.171 550.747 701.236 550.904C702.208 551.181 703.258 551.208 703.781 551.683C704.983 552.773 705.875 554.12 706.99 555.292C708.526 556.906 709.913 558.666 712.677 558.945C713.217 559 713.807 560.093 714.04 560.793C714.733 562.877 715.16 565.031 715.914 567.096C716.143 567.723 717.029 568.507 717.726 568.606C721.769 569.179 722.799 572.82 725.732 574.515C726.281 574.832 726.16 576.039 726.39 577.009C728.732 577.277 731.226 577.562 733.725 577.847C733.725 579.014 733.725 580.122 733.719 581.404C733.714 581.578 733.771 581.568 733.771 581.568C735.52 582.685 738.055 583.248 737.693 585.926C740.097 586.428 741.947 587.359 743.282 589.478C744.069 590.727 746.279 591.426 748.003 592.038C749.237 592.475 749.77 592.844 749.826 594.095C749.959 597.096 750.833 597.692 754.109 597.599C755.789 597.551 756.992 597.838 757.547 599.65C757.935 600.919 759.245 602.06 760.383 603.045C762.362 604.758 764.901 606.065 766.51 607.989C768.22 610.035 769.089 612.615 770.397 614.93C770.87 615.768 771.42 616.63 772.162 617.282C773.695 618.627 775.429 619.795 776.991 621.117C779.595 623.322 782.341 625.436 784.642 627.869C787.805 631.213 791.8 633.665 795.559 636.373C797.021 637.426 798.78 638.155 800.36 639.088C801.78 639.927 803.097 640.902 804.538 641.708C805.74 642.38 807.126 642.804 808.307 643.498C810.84 644.988 813.847 646.208 815.627 648.235C817.509 650.378 819.268 650.676 821.885 650.194C822.449 650.09 823.208 650.801 824.205 651.298C826.737 651.714 828.942 651.97 831.336 652.243C831.779 652.271 832.032 652.281 832.285 652.291C832.375 652.292 832.465 652.294 832.751 652.435C833.952 653.099 834.957 653.623 835.962 654.148C836.87 654.73 837.777 655.312 838.936 656.056C839.338 656.331 839.488 656.445 839.709 656.619C839.88 656.755 839.991 656.818 840.251 656.896C840.483 656.943 840.576 656.96 840.742 657.043C840.917 657.195 841.028 657.27 841.153 657.357C841.158 657.379 841.176 657.422 841.176 657.422C841.971 657.946 842.767 658.47 843.688 659.246C843.81 659.704 843.807 659.909 843.804 660.114C844.483 661.379 845.162 662.643 845.832 664.203C845.812 666.744 848.136 665.33 849.074 666.091C854.091 665.45 855.383 669.039 857.384 671.769C858.13 672.786 858.637 673.937 859.366 675.143C860.903 676.43 862.196 677.767 863.778 678.742C868.01 681.347 872.398 683.755 876.654 686.331C878.257 687.301 879.596 688.603 881.181 689.601C883.689 691.178 886.314 692.612 888.868 694.134C890.894 695.341 892.859 696.628 894.906 697.806C896.038 698.458 897.346 698.879 898.455 699.555C899.367 700.112 900.103 700.893 900.913 701.755C900.908 701.935 900.952 701.914 900.952 701.914C902.656 702.119 904.372 702.266 906.059 702.547C907.493 702.786 909.04 702.817 908.222 704.964C907.434 707.031 909.959 706.888 910.84 706.606C913.18 705.858 914.693 706.559 916.454 707.776C917.276 708.344 918.807 708.148 920.023 708.243C920.521 708.281 921.079 708.035 921.533 708.152C924.868 709.008 929.056 715.816 927.758 718.717C926.736 721.001 924.595 722.537 921.594 722.514C919.342 722.497 917.058 722.339 914.867 721.925C914.215 721.802 913.538 720.647 913.37 719.881C912.573 716.233 909.973 714.055 905.865 713.326C904.777 713.133 903.48 712.133 903.039 711.221C902.159 709.404 900.806 708.505 898.724 707.929C897.354 707.55 896.007 706.73 894.996 705.815C893.124 704.119 891.612 702.09 888.561 701.491C885.777 699.951 882.996 698.97 880.674 696.757C877.568 693.796 873.071 691.954 869.168 689.637C868.881 689.467 868.564 689.338 868.064 688.961C866.316 687.459 864.765 686.187 863.215 684.915C861.231 683.887 859.248 682.859 857.038 681.608C855.799 681.029 854.787 680.672 853.774 680.315C853.601 680.336 853.373 680.302 853.264 680.386C848.113 684.367 844.941 680.658 841.516 678.048C840.007 676.898 838.525 675.711 837.147 674.445C836.687 674.021 836.496 673.314 836.342 672.706C835.983 671.296 835.392 670.354 833.495 671.181C831.727 671.952 830.284 671.371 829.009 670.274C828.403 669.752 827.864 668.725 827.278 668.716C825.603 668.688 823.677 668.689 822.297 669.373C820.429 670.298 819.59 669.848 818.364 668.642C817.758 668.045 816.302 667.617 815.438 667.813C813.08 668.348 811.794 668.215 812.429 665.676C812.509 665.357 812.247 664.973 812.147 664.63C806.544 665.312 803.762 663.966 802.337 660.585C800.641 659.818 799.547 659.447 798.611 658.877C796.325 657.485 794.088 656.029 791.882 654.541C791.064 653.989 790.106 653.391 789.698 652.618C788.597 650.535 787.346 648.773 785.055 647.376C783.626 646.505 783.19 644.454 782.115 643.046C780.955 641.526 779.473 640.195 778.312 638.676C777.416 637.505 776.799 636.171 776.499 634.722C775.634 634.245 774.789 633.737 773.894 633.307C773.48 633.109 772.6 632.9 772.555 632.977C771.068 635.504 767.15 634.5 765.43 636.781C765.005 637.344 763.707 637.584 762.785 637.637C760.649 637.759 758.498 637.676 755.933 637.676C756.344 638.816 756.566 639.604 756.908 640.35C757.814 642.326 756.579 643.895 754.973 644.605C753.563 645.229 751.083 645.93 750.495 643.24C750.466 643.107 750.329 642.93 750.195 642.887C747.022 641.879 743.823 640.931 740.675 639.866C739.462 639.456 738.01 639.021 737.286 638.185C735.652 636.299 733.061 634.813 733.245 631.814C733.241 631.63 733.239 631.633 733.276 631.578C733.36 631.396 733.335 631.278 733.24 631.17L733.242 631.171C733.062 628.965 732.881 626.758 732.652 623.948C730.652 625.152 729.032 626.159 727.37 627.109C726.907 627.373 726.281 627.411 725.796 627.656C723.659 628.734 721.399 629.682 719.461 630.993C717.049 632.624 714.847 634.512 712.684 636.403C711.932 637.06 711.475 638.023 711.039 638.905C709.742 641.527 708.482 644.164 707.29 646.823C706.635 648.282 707.361 649.286 708.87 650.028C710.622 650.888 712.318 651.839 714.005 652.796C714.428 653.036 714.822 653.404 715.059 653.793C716.506 656.172 717.654 658.734 717.146 661.397C716.96 662.373 715.158 663.7 713.958 663.818C711.449 664.065 708.902 663.944 706.4 662.773C704.139 661.715 701.608 661.146 699.776 659.4C699.443 659.082 698.678 659.111 698.28 659.018C696.855 661.843 695.773 664.658 694.042 667.122C693.236 668.27 692.198 670.199 689.764 669.622C686.746 668.907 685.95 667.592 685.92 665.044C685.883 661.946 687.068 659.349 688.68 656.668C691.105 652.635 692.56 648.083 695.457 644.369C696.756 642.704 695.957 640.595 697.911 639.401C702.031 636.882 703.436 632.507 706.705 629.397C708.474 627.714 709.87 625.504 712.015 624.401C716.128 622.287 718.081 617.892 723.035 616.75C723.713 616.593 724.081 615.563 724.71 615.046C725.58 614.331 726.561 613.718 727.494 613.062C727.86 613.097 728.225 613.133 728.591 613.168C727.988 612.138 727.529 611.014 726.752 610.096C725.278 608.355 723.365 606.868 722.096 605.03C719.47 601.23 718.292 600.612 713.141 601.206C711.821 601.358 709.878 600.977 709.289 601.608C708.199 602.774 707.767 604.475 707.296 606.009C706.287 609.3 703.311 611.541 699.27 611.815C697.359 611.944 695.442 612.022 693.525 612.083C689.963 612.198 688.892 613.175 688.447 616.281C688.293 617.36 687.514 618.371 686.971 619.516C687.265 619.733 687.567 620.151 687.91 620.179C692.322 620.539 693.678 624.095 696.279 626.322C697.581 627.437 697.116 628.485 695.618 629.312C694.744 629.794 693.928 630.391 693.204 631.038C691.309 632.731 688.926 633.019 686.727 631.532C684.524 630.042 682.534 628.312 680.329 626.826C679.265 626.109 677.921 625.71 676.703 625.167C676.472 625.399 676.24 625.632 676.009 625.864C677.173 627.586 678.148 629.438 679.542 631.002C681.943 633.694 682.716 636.571 681.243 638.789C679.58 641.292 674.948 643.03 671.59 641.817C669.946 641.224 668.423 639.553 667.683 638.052C666.682 636.022 666.316 633.704 666.026 631.475C665.902 630.52 666.654 629.477 667.043 628.372C665.669 626.894 666.104 624.759 668.854 623.763C671.659 622.748 672.533 620.968 673.457 618.769C675.224 614.561 678.353 611.616 683.801 611.818C683.191 609.214 682.642 606.874 682.099 604.56C678.805 605.529 676.145 604.828 674.581 602.067C674.191 601.378 674.551 599.679 675.156 599.388C676.294 598.842 677.864 598.862 679.249 598.885C680.119 598.899 680.966 599.513 681.846 599.568C683.748 599.687 684.935 599.044 686.17 597.465C688.838 594.054 692.87 592.209 697.575 591.284C701.563 590.5 701.83 589.324 699.333 586.418C696.086 582.64 696.182 580.219 699.687 576.498C699.948 576.221 700.02 575.808 700.201 575.293C700.222 575.128 700.225 575.125 700.225 575.125C701.808 575.253 702.833 574.134 702.448 572.656C702.314 572.141 701.841 571.617 701.923 571.151C702.31 568.943 702.483 567.119 698.772 568.178C698.314 568.309 697.475 567.415 696.792 566.983C697.415 566.083 697.886 565.403 698.623 564.337C695.384 564.113 693.109 563.057 692.74 559.89C691.799 560.62 691.307 561.001 690.789 561.403C689.607 560.89 688.4 560.366 686.734 559.643C687.275 561.964 687.836 564.015 685.248 564.619C682.195 562.855 679.385 561.256 676.611 559.611C675.966 559.229 674.921 558.646 674.968 558.234C675.074 557.298 675.699 556.392 676.201 555.513C676.5 554.988 677.409 554.359 677.267 554.089C676.963 553.505 676.2 552.785 675.549 552.721C673.587 552.528 671.623 552.328 670.558 554.574C669.677 556.432 668.18 556.304 666.437 555.013C665.101 554.024 664.015 553.082 663.33 551.609C662.538 549.911 661.719 548.48 664.239 547.395C664.511 547.277 664.701 546.536 664.54 546.257C664.378 545.976 663.657 545.697 663.306 545.788C661.241 546.322 660.056 545.44 658.923 544.079C657.546 542.422 653.887 542.077 652.057 543.289C650.981 544.002 651.442 546.544 652.288 548.267C653.042 549.803 652.853 551.676 653.448 553.297C654.359 555.78 652.718 556.726 650.715 557.867C649.22 558.719 648.122 560.101 646.825 561.227C644.729 563.044 643.79 562.995 642.022 561.01C640.015 558.756 639.039 558.583 636.127 559.966C633.532 561.197 632.288 560.963 630.619 558.929C629.226 557.231 626.816 556.768 624.728 557.878C623.468 558.548 622.369 559.473 621.061 560.039C619.916 560.535 618.579 560.689 617.156 561.035C616.182 563.104 614.97 565.589 613.858 568.108C613.628 568.628 613.472 569.474 613.786 569.827C615.228 571.451 614.594 572.942 613.81 574.548C612.853 576.51 611.471 577.057 609.343 575.997C607.76 575.208 605.981 574.484 604.83 573.321C602.924 571.396 601.001 572.101 599.011 572.778C597.043 573.448 595.255 573.98 594.544 576.362C593.987 578.227 592.058 580.19 590.122 581.22C587.747 582.485 587.123 584.311 586.254 586.218C586.063 586.638 585.944 587.201 585.576 587.423C582.661 589.18 579.718 590.902 576.733 592.565C575.529 593.235 574.199 593.73 572.553 594.474C572.231 594.35 571.461 594.056 570.25 593.592C570.187 594.413 569.99 595.035 570.121 595.599C571.003 599.407 570.686 600.218 566.628 601.782C564.999 602.41 563.612 602.962 562.615 604.381C561.681 605.709 560.203 605.76 558.782 604.425C557.521 605.861 556.199 607.191 555.139 608.666C554.755 609.201 554.996 610.081 555.009 611.084C555.202 613.596 555.314 615.83 555.498 618.059C555.526 618.397 555.887 618.714 556.094 619.041C556.794 621.926 557.495 624.811 558.195 627.696C557.952 627.787 557.708 627.878 557.465 627.97C558.129 628.051 558.815 628.065 559.455 628.224C563.423 629.203 563.586 629.6 561.328 632.571C559.706 634.707 560.026 635.831 563.115 638.719C563.054 639.945 562.74 640.88 562.74 641.815C562.74 642.478 563.096 643.173 563.456 643.78C563.527 643.898 564.542 643.83 564.786 643.588C566.593 641.795 568.314 639.936 570.063 638.098C571.268 638.197 572.474 638.296 573.679 638.396C573.684 638.577 573.688 638.759 573.693 638.94C574.52 638.504 575.348 638.068 576.356 637.616C575.748 638.653 576.124 639.133 577.311 639.911C579.08 641.07 581.051 642.524 581.768 644.23C582.428 645.801 582.012 648.046 581.212 649.67C580.429 651.259 578.567 652.441 577.171 653.795C576.383 654.559 575.58 655.309 574.62 656.22C570.424 653.871 565.88 651.739 563.515 647.514C561.16 648.767 558.908 650.251 556.391 651.188C555.116 651.662 553.27 651.415 551.841 651.035C546.985 649.745 547.31 645.915 546.706 642.55C546.52 641.516 546.335 640.396 545.75 639.52C544.685 637.924 544.058 636.524 545.834 634.99C546.163 634.706 546.248 633.973 546.101 633.536C545.193 630.832 544.186 628.153 543.099 625.334C542.837 624.692 542.689 624.18 542.507 623.328C541.954 622.029 541.435 621.07 540.915 620.112C541.748 618.708 542.877 617.314 540.875 615.826C540.73 616.216 540.564 616.664 540.212 617.245C539.796 617.37 539.566 617.363 539.336 617.356C539.207 616.854 539.077 616.351 538.881 615.551C538.81 615.046 538.806 614.84 538.802 614.634C538.207 613.318 537.612 612.002 536.846 610.482C537.189 608.558 535.742 608.759 534.607 608.655C534.372 608.523 534.138 608.391 533.683 608.129C533.334 607.886 533.204 607.774 533.075 607.662C532.997 607.227 532.919 606.791 532.856 606.439C532.057 606.439 531.419 606.439 530.486 606.302C529.563 606.077 528.935 605.989 528.135 605.901C527.732 605.902 527.502 605.903 527.098 605.888C526.694 605.85 526.464 605.827 526.133 605.708C525.591 605.502 525.151 605.391 524.71 605.279C524.82 605.648 524.93 606.017 525.064 606.554C525.122 607.059 525.154 607.397 525.187 607.734C525.252 608.254 525.152 608.851 525.414 609.278C526.091 610.378 526.928 611.403 527.739 612.8C527.781 613.507 527.785 613.871 527.788 614.235C527.783 614.55 527.777 614.865 527.775 615.51C527.953 616.373 528.127 616.907 528.302 617.441C528.193 617.664 528.084 617.887 527.724 618.277C527.05 619.163 526.628 619.883 526.206 620.603C525.501 620.598 524.797 620.592 523.846 620.448C522.73 620.085 521.862 619.862 520.993 619.638C520.072 619.074 519.075 618.583 518.247 617.929C516.472 616.526 515.946 614.804 517.281 612.579C512.823 612.534 508.892 612.747 505.468 615.043C504.98 615.37 503.963 615.819 503.796 615.674C502.268 614.348 501.017 614.77 499.438 615.702C498.065 616.512 495.498 615.127 494.712 613.261C494.192 612.027 493.65 612.021 492.212 612.375C490.464 612.805 488.48 612.527 486.6 612.496C486.03 612.486 485.257 612.01 484.932 612.204C482.511 613.647 480.068 612.511 477.621 612.476C475.512 612.446 473.082 611.416 471.056 613.595C470.223 613.787 469.663 613.801 469.103 613.816C467.901 613.516 466.716 613.128 465.491 612.936C463.87 612.682 462.217 612.581 460.264 612.358C459.951 612.302 459.708 612.266 459.708 612.266C457.99 611.766 456.455 611.332 454.528 612.248C452.422 613.249 451.418 611.09 450.685 610.049C449.631 608.554 448.464 608.236 446.684 608.155C443.788 608.023 440.907 607.636 437.758 607.231C437.388 606.991 437.278 606.877 437.165 606.766C435.88 604.805 433.788 605.316 431.602 605.42C431.377 605.412 431.332 605.407 431.207 605.324C430.684 605.158 430.285 605.073 429.873 604.96C429.861 604.931 429.823 604.879 429.823 604.879C428.888 604.631 427.952 604.382 426.74 603.974C425.99 603.49 425.517 603.167 424.781 602.665C424.65 603.531 424.576 604.02 424.502 604.509C424.565 605.23 424.578 605.959 424.701 606.672C424.909 607.872 425.71 609.21 425.335 610.227C424.385 612.801 422.922 615.229 421.656 617.712C421.587 617.847 421.387 617.941 421.349 618.076C420.518 620.985 419.597 623.878 418.919 626.814C418.404 629.039 418.823 631.195 419.901 633.332C420.211 633.948 419.258 635.054 418.832 636.086C417.518 637.305 417.142 638.408 418.046 639.91C418.365 640.44 418.081 641.717 417.556 642.082C415.952 643.195 415.552 644.364 416.096 646.078C416.416 647.084 416.155 648.233 416.155 649.612C417.49 648.809 418.659 648.083 419.856 647.393C421.431 646.485 422.85 646.705 424.001 647.987C424.905 648.993 426.079 649.957 426.512 651.118C427.671 654.222 424.6 657.047 420.941 656.449C418.822 656.103 416.701 655.764 415.009 655.49C414.377 657.259 413.773 658.908 413.208 660.567C413.085 660.926 412.95 661.368 413.079 661.693C414.047 664.145 413.275 665.917 411.659 668.224C409.984 670.617 410.31 674.073 409.686 677.052C409.541 677.747 409.283 678.553 408.753 679.036C406.749 680.867 406.362 682.174 408.147 684.208C409.552 685.809 409.334 686.859 407.718 688.086C405.986 689.402 405.76 691.12 406.626 692.9C407.285 694.254 407.065 695.213 405.947 696.412C404.568 697.888 403.284 699.585 405.032 701.745C405.486 702.307 405.141 703.819 404.557 704.49C402.746 706.576 402.177 709.889 403.565 712.329C404.356 713.718 404.348 714.983 402.76 715.967C400.604 717.302 400.882 719.184 401.738 720.853C402.425 722.191 402.445 723.083 401.27 724.113C399.895 725.32 398.743 726.554 396.369 725.736C394.669 725.15 394.058 724.265 394.121 722.805C394.131 722.577 394.184 722.276 394.047 722.13C391.32 719.199 394.014 716.971 395.207 714.477C396.649 711.462 397.985 708.385 397.471 704.973C397.388 704.425 397.666 703.76 397.99 703.254C399.845 700.364 400.656 697.434 399.395 694.12C399.032 693.164 399.42 691.829 399.89 690.821C401.235 687.936 402.207 685.135 400.745 682.003C400.402 681.27 400.816 680.014 401.358 679.261C402.997 676.988 403.507 674.692 402.638 672.078C402.411 671.397 402.694 670.421 403.12 669.77C404.533 667.609 405.177 665.512 404.052 663.022C403.712 662.269 404.263 660.917 404.906 660.169C406.556 658.248 406.633 656.402 405.806 654.166C405.431 653.152 405.818 651.573 406.54 650.667C408.179 648.606 408.484 646.688 407.768 644.228C407.308 642.649 407.938 640.745 408.408 639.057C409.077 636.654 410.91 634.384 408.967 631.718C408.737 629.571 408.604 627.519 411.239 626.392C411.411 626.318 411.182 625.524 411.045 624.94C410.986 624.191 411.023 623.568 411.155 622.89C411.186 622.538 411.122 622.24 411.05 621.75C411.179 620.014 411.315 618.469 411.452 616.924C411.664 615.572 411.834 614.214 412.101 612.871C412.332 611.705 412.729 610.564 412.95 609.397C413.158 608.3 413.232 607.183 413.549 605.791C413.984 603.88 414.328 602.258 414.451 600.622C414.539 599.459 413.677 599.223 412.536 599.591C409.364 599.15 406.768 597.531 403.705 596.232C403.357 595.978 403.231 595.884 403.084 595.811C402.997 595.808 402.909 595.806 402.648 595.711C402.177 595.672 401.88 595.724 401.583 595.777C399.393 595.779 397.203 595.781 394.615 595.79C392.322 596.094 390.428 596.393 388.535 596.691C387.333 597.276 386.132 597.861 384.651 598.614C384.13 599.172 383.888 599.562 383.646 599.952C383.646 599.952 383.673 599.938 383.571 599.987C383.337 600.136 383.231 600.254 383.151 600.39C382.005 600.871 380.858 601.351 379.328 601.828C376.106 601.246 372.973 603.361 369.94 601.204C369.244 601.377 368.168 601.644 367.093 601.912C366.449 601.962 365.564 601.794 365.201 602.1C363.479 603.556 361.53 602.911 360.183 602.109C357.428 600.469 354.996 598.407 352.469 596.481C352.037 596.152 351.533 595.643 351.51 595.2C351.418 593.356 350.383 593.602 348.868 593.956C347.184 594.349 345.767 594.004 344.804 592.358C343.544 590.204 342.097 588.076 340.334 586.227C339.195 585.032 337.346 584.358 335.585 583.381C335.287 583.278 335.218 583.244 335.149 583.21C335.25 583.272 335.35 583.334 335.45 583.396C335.999 586.804 334.995 587.659 330.914 587.259C330.962 590.291 331.218 593.254 333.608 595.737C334.079 596.227 334.288 596.979 334.416 597.641C335.046 600.89 336.035 603.976 338.742 606.455C339.153 606.831 339.346 607.543 339.334 608.094C339.29 610.049 339.02 612.001 339.011 613.955C338.999 616.418 339.503 616.656 342.462 615.357C342.78 616.908 342.897 618.383 343.422 619.736C343.805 620.721 344.871 621.488 345.378 622.454C346.715 625.001 347.843 627.633 349.203 630.17C349.71 631.116 350.435 632.166 351.399 632.694C354.173 634.213 353.912 636.495 353.739 638.773C353.691 639.408 353.314 640.066 352.93 640.631C351.795 642.3 350.381 643.846 349.444 645.592C347.976 648.326 344.858 649.615 341.73 648.476C341.422 648.364 341.11 648.177 340.904 647.951C340.009 646.971 339.19 645.936 338.27 644.974C337.327 643.988 336.299 643.064 335.201 642.01C335.654 641.393 336.188 640.879 336.442 640.275C337.008 638.932 336.908 637.755 334.801 637.763C332.447 637.772 332.264 636.617 332.71 635.03C332.83 634.603 333.149 634.035 332.957 633.752C330.263 629.797 330.964 625.18 329.669 620.954C328.916 618.497 328.652 615.926 328.09 613.42C327.945 612.774 327.467 612.191 327.209 611.558C326.869 610.725 326.596 609.872 326.239 608.873C325.44 607.675 324.356 606.34 323.615 604.873C322.177 602.026 321.051 599.053 319.527 596.245C319.117 595.491 317.648 594.606 316.816 594.709C314.328 595.018 311.913 595.782 309.473 596.381C309.225 596.441 308.997 596.682 308.771 596.671C303.869 596.438 301.568 600.216 298.054 602.094C296.741 602.796 296.062 604.355 294.923 605.376C293.247 606.878 291.403 608.237 289.657 609.681C288.724 610.453 287.845 611.276 286.727 612.294C286.4 612.758 286.287 613.005 286.175 613.253C286.175 613.253 286.186 613.25 286.022 613.254C285.485 613.354 285.112 613.452 284.739 613.55C284.873 613.756 285.007 613.963 285.141 614.169C284.31 615.138 283.478 616.107 282.445 617.22C282.157 617.37 282.07 617.376 281.982 617.382C280.63 619.433 279.277 621.484 277.86 623.677C274.921 625.612 273.658 628.275 272.077 630.928C271.141 632.498 270.01 634.298 268.505 635.838C266.038 638.361 262.115 639.881 261.153 643.671C260.744 645.284 258.907 646.622 257.704 648.076C257.352 648.501 256.676 648.865 256.613 649.307C255.897 654.31 250.533 657.347 249.533 662.223C249.477 662.494 248.948 662.691 248.542 662.994C248.34 660.282 248.145 657.753 247.972 655.224C247.952 654.925 247.925 654.503 248.121 654.335C250.916 651.945 250.73 648.505 252.16 645.64C252.265 645.43 252.347 645.144 252.541 645.047C255.143 643.744 255.626 641.175 257.247 639.11C257.382 639.01 257.353 638.983 257.353 638.983C259.021 635.537 260.688 632.091 262.489 628.548C262.623 628.453 262.598 628.415 262.598 628.415C264.417 625.23 266.256 622.053 268.044 618.854C268.577 617.9 268.968 616.886 269.459 615.728C270.964 614.544 272.433 613.531 274.049 612.417C272.042 610.743 274.407 609.279 275.192 607.297C276.483 605.871 277.66 604.74 278.836 603.609C279.735 603.14 280.776 602.795 281.486 602.164C282.047 601.665 282.255 600.829 282.508 600.112C282.593 599.872 282.15 599.468 282.255 599.256C283.595 596.552 282.316 596.187 279.603 596.803C279.345 596.861 278.471 595.882 278.397 595.331C278.126 593.303 276.73 592.892 274.883 593.405C272.217 594.146 270.781 593.115 269.728 591.138C269.469 590.652 268.933 590.243 268.434 589.899C267.587 589.315 266.669 588.81 265.909 588.089C264.068 587.676 262.58 588.192 261.419 589.752C260.428 591.083 257.712 590.317 256.669 588.532C255.133 585.907 252.76 583.96 250.04 582.3C249.76 582.129 249.188 581.965 249.203 581.837C249.457 579.57 248.201 577.88 246.735 576.164C245.911 575.199 245.389 573.968 245.021 572.787C244.549 571.275 244.343 569.696 244.074 568.139C243.931 567.312 243.898 566.471 243.995 565.44C246.156 564.241 246.338 563.06 244.731 561.117C244.392 561.201 244.118 561.369 243.856 561.687C243.825 562.133 243.783 562.43 243.741 562.727C240.506 562.739 237.298 562.781 234.569 560.779C234.005 560.366 232.899 560.429 232.044 560.431C229.215 560.44 226.845 559.921 226.434 556.961C226.007 557.009 225.588 556.971 225.536 557.075C224.076 559.962 221.17 559.21 218.795 558.829C216.273 558.424 216.332 556.012 215.495 554.339C215.171 553.69 214.83 552.899 214.217 552.534C209.502 549.731 208.882 543.734 213.257 540.763C214.333 540.032 216.07 539.81 217.507 539.8C218.788 539.791 219.639 540.012 219.811 538.499C220.059 536.309 221.811 535.44 224.243 536.044C225.594 536.379 226.968 536.647 228.537 536.991C227.921 533.675 229.408 532.073 233.677 531.647C236.524 531.362 238.434 530.075 240.32 528.453C241.23 527.67 242.345 527.071 243.351 526.399C242.896 524.35 240.062 523.378 240.424 520.963C240.669 519.327 244.699 515.358 246.486 514.993C250.428 514.186 254.384 513.362 258.196 512.197C258.874 511.99 259.486 509.881 259.079 509.043C258.25 507.337 256.512 505.99 257.235 503.811C257.372 503.401 256.866 502.639 256.407 502.294C253.002 499.729 249.594 497.161 246.064 494.731C243.486 492.957 240.781 491.309 238.018 489.762C235.661 488.443 231.747 489.303 229.615 491.183C229.102 491.634 227.943 491.522 226.627 491.747C225.803 492.813 225.115 494.918 222.269 494.049C222.118 494.002 221.469 494.587 221.525 494.76C221.673 495.217 221.993 495.883 222.4 495.984C225.674 496.795 226.09 499.075 226.3 501.507C226.332 501.883 226.362 502.5 226.592 502.583C228.973 503.446 227.685 504.707 227.047 506.036C226.483 506.338 225.892 506.395 225.544 506.68C224.426 507.595 223.93 509.413 221.651 508.439C220.208 507.821 218.609 507.461 217.222 506.767C215.958 506.134 214.885 505.207 213.56 504.358C213.286 502.537 212.406 500.675 214.44 498.938C215.096 498.15 215.504 497.553 215.912 496.956C215.404 496.833 214.897 496.709 214.39 496.585C214.564 495.972 214.738 495.36 215.006 494.416C212.593 494.417 210.105 496.892 207.676 494.207C205.737 492.546 204.038 491.099 202.34 489.653C201.048 488.549 199.779 487.424 198.459 486.348C197.588 485.638 198.276 482.386 199.651 481.257C201.047 480.111 202.623 479.118 203.912 477.89C204.743 477.099 205.199 476.006 205.692 474.672C202.154 475.909 199.347 474.926 196.577 473.328C195.913 472.945 194.717 473.271 194.396 473.271C193.031 472.251 192.029 471.535 191.072 470.776C190.56 470.369 189.76 469.913 189.718 469.437C189.551 467.505 187.746 467.354 186.32 466.779C184.305 465.966 183.401 467.214 182.223 468.31C181.579 468.91 180.326 469.008 179.588 469.252C178.95 470.195 178.507 471.677 177.668 471.876C176.62 472.124 175.035 471.563 174.054 470.918C171.222 469.055 169.113 469.505 167.967 472.412C167.819 472.787 167.303 473.398 167.104 473.357C163.411 472.595 161.55 475.273 159.3 476.799C157.142 478.261 155.685 476.582 153.917 476.587C153.61 476.587 153.317 475.173 152.981 474.425C152.801 474.023 152.543 473.648 152.321 473.261C151.76 473.527 150.951 473.669 150.681 474.082C149.656 475.651 148.651 475.528 147.289 474.04C146.407 473.406 145.753 472.711 145.032 472.651C143.275 472.505 141.486 472.674 139.71 472.682C133.383 472.71 127.056 472.725 120.729 472.744C117.16 472.902 114.917 475.134 112.365 476.872C111.964 477.144 111.681 477.549 111.211 478.029C109.2 476.485 108.291 477.63 107.011 479.031C106.013 480.125 104.159 480.59 102.784 481.454C99.7564 483.358 96.8787 485.454 93.774 487.251C90.9375 488.893 87.4696 489.852 85.0263 491.823C81.8323 494.4 77.953 493.84 74.0058 494.766C73.017 494.94 72.4235 495.065 71.83 495.19C70.6589 494.13 69.7972 493.981 69.1479 495.661C68.936 496.209 68.0807 496.567 67.2565 496.988C66.8386 496.917 66.6963 496.941 66.5667 497.035C66.5667 497.035 66.5844 497.034 66.3603 497.018C64.8712 497.16 63.6062 497.317 62.3412 497.475C61.0001 497.606 59.659 497.737 58.0722 497.892C57.4689 498.354 56.429 499.042 55.557 499.867C55.1538 500.248 54.7093 501.08 54.913 501.393C56.4108 503.697 54.4113 504.322 52.4016 505.253C50.9172 505.515 49.7749 505.753 48.6239 505.791C46.7568 505.852 44.8841 505.783 43.0138 505.77C42.4765 505.422 41.6934 505.177 41.4408 504.711C39.4639 501.062 37.5887 497.37 35.846 493.485C36.6016 492.54 37.1932 491.802 37.7849 491.065C39.1963 490.137 40.6077 489.21 42.4151 488.023C41.7423 486.216 43.7079 484.952 45.7205 484.532C48.083 484.039 50.7746 483.031 53.1299 484.995C53.7628 485.523 54.8341 486.03 55.6338 485.957C59.4908 485.604 62.9965 485.013 65.9736 482.084C68.3238 479.771 68.9297 476.563 72.0176 474.676C73.8372 473.564 74.9827 472.989 77.0346 474.123C79.1095 475.271 81.5107 476.819 83.719 476.759C89.2641 476.611 94.8283 475.866 100.291 474.936C103.257 474.431 106.56 474.017 108.574 471.495C109.168 470.751 109.782 470.014 110.454 469.323C111.356 468.396 112.323 467.518 113.417 466.47C111.775 464.293 114.733 463.75 115.977 462.34C116.758 462.797 117.421 463.185 118.083 463.573C116.338 459.224 119.808 455.618 119.663 451.618C121.108 451.618 122.357 451.813 123.466 451.553C124.268 451.364 124.926 450.607 125.567 450.033C125.911 449.725 126.003 449.003 126.346 448.924C129.047 448.303 131.19 445.914 134.595 447.348C136.385 448.101 138.203 447.131 138.896 445.36C139.284 444.368 139.342 443.27 139.484 442.213C139.643 441.03 140.225 440.592 141.601 441.011C142.524 441.292 143.514 441.406 144.416 441.583C144.233 439.921 143.389 438.129 144.072 437.267C145.673 435.246 148.015 433.679 150.036 431.91C150.643 431.378 151.199 430.8 151.752 430.223C152.689 429.244 153.385 427.77 154.572 427.351C158.173 426.08 158.515 423.188 159.473 420.613C159.749 419.871 159.28 418.917 159.153 418.059C158.197 418.218 157.241 418.374 156.287 418.539C156.034 418.583 155.788 418.656 155.671 418.685C153.973 417.088 152.261 415.612 150.736 414C149.624 412.825 149.792 411.732 152.014 411.122C152.954 410.484 153.53 409.902 154.106 409.319C154.106 409.319 154.131 409.303 154.237 409.23C154.465 409.062 154.571 408.954 154.661 408.834C155.17 408.5 155.908 408.259 156.144 407.814C156.772 406.628 157.184 405.355 157.88 403.854C158.333 402.885 158.587 402.179 158.841 401.473C159.255 400.755 159.67 400.037 160.306 399.261C160.573 399.155 160.668 399.085 160.655 399.063C160.585 398.943 160.488 398.836 160.4 398.725C160.4 398.725 160.4 398.729 160.421 398.555C160.599 397.581 160.756 396.78 160.913 395.98C160.917 395.64 160.921 395.3 161.016 394.683C161.046 394.007 160.985 393.607 160.924 393.207C160.976 389.454 160.367 385.839 157.326 382.971C156.533 382.224 157.467 379.829 154.496 380.775C151.748 380.929 149.299 381.086 146.746 381.346C146.515 381.697 146.388 381.946 146.261 382.194C143.223 383.485 140.084 384 136.425 383.016C134.681 380.92 133.105 381.531 131.496 382.652C130.055 383.047 128.615 383.443 126.887 383.926C126.599 384.014 126.339 384.018 126.339 384.018C124.483 383.129 122.956 383.559 121.94 385.077C119.921 388.095 116.524 388.581 112.786 389.103C112.389 389.308 112.275 389.42 112.179 389.546C110.895 392.817 109.161 393.201 105.758 391.733C104.635 391.249 101.661 391.85 101.323 392.587C100.22 394.989 97.718 395.248 95.438 396.374C95.1426 396.439 94.8945 396.436 94.8945 396.436C93.4386 396.999 91.9827 397.561 90.257 398.261C89.856 398.498 89.7386 398.609 89.635 398.731C89.1309 399.243 88.6267 399.755 88.1012 400.419C85.9774 400.619 83.9428 400.715 82.4515 398.896C82.034 398.387 80.7099 398.284 79.7985 398.277C74.2161 398.227 68.5095 397.641 63.0916 398.472C59.2125 399.067 54.7629 398.3 51.3345 400.871C51.0426 401.09 50.347 401.041 49.8996 400.93C47.798 400.407 46.0165 400.674 44.4509 402.14C43.9899 402.571 43.0749 402.819 42.3635 402.826C37.1304 402.881 31.8961 402.855 26.6622 402.845C26.3171 402.845 25.8678 402.881 25.6428 402.717C22.1619 400.166 17.8008 401.262 13.9074 400.464C11.6497 400.002 9.46793 399.174 7.33517 398.346C5.11982 397.486 2.95786 396.496 0.879798 395.405C0.379718 395.143 0.113757 394.271 0.070137 393.661C-0.0297831 392.264 -0.03858 390.844 0.147449 389.458C0.227845 388.858 0.88153 388.318 1.46163 387.742C4.2848 389.043 6.89564 390.466 10.4134 389.268C14.2662 391.583 18.572 391.089 22.5339 391.843C22.5339 391.843 22.5503 391.854 22.6916 391.945C23.2667 392.125 23.7005 392.212 24.1343 392.3C25.1932 392.457 26.2521 392.613 27.5364 392.785C27.7618 392.8 27.7831 392.83 27.7831 392.83C30.7589 393.123 33.7292 393.592 36.7118 393.662C40.2209 393.745 43.7407 393.481 47.6234 393.209C49.452 391.765 51.1745 391.802 53.0921 392.051C56.5891 392.506 59.5053 391.376 61.8496 389.082C62.4503 388.832 63.0509 388.582 63.9201 388.267C64.1888 388.202 64.4412 388.225 64.451 388.321C64.4608 388.416 64.4722 388.609 64.653 388.712C67.0327 388.974 69.332 389.922 71.2908 388.187C71.2908 388.187 71.3162 388.182 71.4476 388.185C71.5789 388.188 71.8258 388.204 71.8258 388.204C72.8212 388.25 73.8178 388.281 74.8115 388.346C75.7886 388.411 76.7626 388.511 78.095 388.711C80.4385 389.067 82.425 389.307 84.5536 389.496C84.9555 389.179 85.2154 388.914 85.6028 388.644C85.7302 388.639 85.9849 388.626 85.9849 388.626C88.257 388.629 90.529 388.632 93.1381 388.773C95.0554 390.139 96.1262 389.504 97.0049 388.169C100.613 388.292 102.883 385.814 105.84 384.672C106.632 384.366 107.386 383.985 108.447 383.685C110.341 384.47 109.937 383.313 110.061 382.654C111.023 382.402 112.079 382.289 112.922 381.858C113.707 381.457 114.266 380.717 114.954 379.9C115.177 379.462 115.372 379.25 115.624 379.028C115.682 379.019 115.795 378.996 115.944 378.942C116.37 378.615 116.647 378.342 116.925 378.069C117.083 377.706 117.241 377.342 117.44 376.676C117.985 375.25 118.49 374.128 118.994 373.007C121.65 370.784 124.426 368.658 126.929 366.311C129.388 364.005 131.979 361.709 133.046 358.546C133.954 355.855 135.272 355.34 138.14 356.329C138.799 356.556 139.826 355.963 140.683 355.748C140.185 355.155 139.741 354.099 139.179 354.049C136.227 353.785 136.955 352.782 138.71 351.272C137.763 351.171 137.149 351.085 136.532 351.045C135.935 351.007 135.165 351.222 134.763 350.969C132.113 349.302 129.364 347.705 126.997 345.758C124.862 344.002 122.514 342.371 120.352 342.202C122.831 339.774 120.571 339.175 118.68 338.055C117.319 337.25 116.571 335.679 115.427 334.545C114.902 334.024 114.115 333.451 113.389 333.384C110.145 333.087 109.734 332.749 110.033 329.852C110.172 328.501 109.807 327.684 108.169 327.028C104.309 325.482 100.541 323.725 96.9052 321.806C96.0159 321.337 95.7812 319.915 95.101 318.857C95.0846 317.818 95.2127 316.852 95.4373 315.72C98.4713 313.823 101.563 314.346 104.991 315.224C108.305 316.719 112.934 316.411 114.483 314.766C117.639 315.775 118.873 312.675 121.387 312.276C122.124 312.159 122.807 311.63 123.527 311.608C126.458 311.519 127.941 310.28 127.838 307.616C127.743 305.165 127.975 302.701 125.767 300.582C124.632 299.493 124.326 297.744 123.624 296.301C123.46 295.963 123.303 295.514 122.987 295.358C118.651 293.214 117.396 289.84 117.296 285.678C117.246 283.612 117.44 281.768 118.571 280.018C118.963 279.412 119.646 278.949 120.393 278.413C120.591 278.405 120.566 278.375 120.566 278.375C120.82 278.02 121.074 277.665 121.17 277.532C122.279 278.15 123.301 278.574 124.119 279.203C126.269 280.855 128.43 282.515 130.365 284.351C130.945 284.901 130.794 286.041 130.921 286.643C134 286.643 137.235 287.122 140.168 286.505C142.968 285.915 145.49 284.234 148.025 282.876C148.287 282.736 147.893 281.5 147.641 280.818C147.342 280.008 146.368 279.13 146.563 278.486C147.178 276.459 146.024 275.217 144.721 273.844C144.184 273.279 143.886 272.386 143.86 271.633C143.809 270.123 144.617 268.384 144.012 267.133C142.173 263.332 143.496 259.754 144.251 256.093C144.307 255.821 144.299 255.37 144.115 255.256C141.45 253.593 143.797 252.073 144.33 250.071C143.494 249.397 142.431 248.541 141.066 247.628C140.672 247.575 140.581 247.579 140.491 247.584C140.491 247.584 140.486 247.593 140.499 247.424C140.331 246.747 140.15 246.241 139.969 245.734C139.8 244.662 139.631 243.589 139.458 242.131C139.437 239.556 139.42 237.367 139.551 235.12C139.653 234.486 139.607 233.909 139.531 233.186C139.457 232.842 139.413 232.646 139.369 232.451C139.476 231.432 139.219 230.215 139.77 229.438C140.683 228.151 142.116 227.148 143.655 226.081C145.767 226.996 147.552 227.854 149.338 228.712C150.2 229.345 150.994 230.082 151.953 230.568C152.481 230.836 153.287 230.683 154.232 230.614C156.668 229.022 156.707 227.616 154.67 224.346C154.796 223.221 154.922 222.097 155.4 220.925C156.361 220.76 157.25 220.822 157.525 220.491C158.418 219.418 157.468 215.598 156.212 214.572C156.394 213.214 156.647 211.86 156.741 210.497C156.866 208.679 157.624 207.278 159.588 206.472C161.616 205.639 162.322 204.512 160.843 202.685C160.4 202.137 160.289 201.183 160.455 200.495C160.928 198.528 160.22 197.078 158.324 196.076C157.687 195.74 156.896 195.618 156.167 195.424C155.532 195.255 154.623 195.306 154.287 194.941C152.836 193.365 151.079 193.525 149.069 193.908C148.943 193.834 148.845 193.819 148.845 193.819C147.506 193.609 146.167 193.399 144.537 193.144C143.601 194.985 142.397 194.537 140.076 193.781C137.174 192.837 136.007 190.259 133.211 189.508C132.811 189.4 132.328 188.843 132.302 188.472C132.189 186.844 131.401 185.958 129.451 185.835C129.094 185.813 128.719 185.09 128.491 184.637C128.044 183.749 127.531 182.846 127.351 181.904C127.195 181.085 127.081 179.763 127.599 179.422C130.949 177.217 130.864 173.327 133.336 170.79C135.648 168.418 138.322 166.319 140.793 164.063C142.889 162.149 145.541 161.385 148.434 161.218C150.522 161.097 152.626 161.195 154.614 161.195C155.949 157.07 155.882 157.076 152.097 155.151C150.265 154.22 148.621 153.004 146.954 151.603C147.128 149.729 147.417 148.159 147.298 146.614C147.202 145.36 146.616 144.136 146.248 142.898C145.099 140.473 143.731 138.106 142.859 135.606C141.783 132.524 141.147 129.325 140.256 126.191C140.097 125.633 139.618 125.144 139.129 124.331C138.947 122.052 138.923 120.066 138.9 118.08C138.907 117.888 138.915 117.695 139.077 117.269C140.135 115.961 141.039 114.888 142.083 113.647C140.241 112.927 139.024 113.139 138.402 114.846C136.611 114.845 134.82 114.844 132.772 114.689C131.152 113.565 129.789 112.596 128.427 111.627C127.551 110.778 126.831 109.713 125.769 109.123C123.335 107.772 122.857 105.462 121.743 103.462C121.537 103.092 121.434 102.516 121.615 102.167C123.199 99.118 124.657 95.993 126.61 93.1304C127.253 92.1877 129.235 91.9465 131.299 91.0996C132.239 88.0313 135.703 87.3837 139.743 87.2573C144.035 87.123 147.926 87.706 150.921 90.6526C151.842 91.5584 152.307 92.9023 154.167 92.7584C154.433 92.7377 154.92 93.373 155.05 93.7691C155.873 96.2698 157.758 97.8364 160.436 98.829C161.117 99.0815 161.898 99.5494 162.189 100.099C162.799 101.251 162.55 103.037 165.074 102.34C165.235 102.296 165.981 103.228 166.074 103.757C166.659 107.111 167.349 110.47 167.544 113.848C167.62 115.162 166.784 116.706 165.865 117.834C163.913 120.231 161.527 122.357 159.567 124.751C159.111 125.308 159.649 126.491 159.764 127.767C159.59 128.184 159.228 129.046 158.882 130.21C158.679 132.008 157.521 133.667 159.855 134.716C160.704 136.62 162.192 138.508 162.253 140.431C162.346 143.361 164.914 144.452 166.447 146.332C166.93 146.924 166.764 147.899 167.006 148.672C167.251 149.454 167.633 150.203 167.955 150.966C168.771 150.6 169.589 150.236 170.404 149.868C170.956 149.619 171.502 149.151 172.056 149.145C175.128 149.11 178.152 149.494 180.708 151.093C181.794 151.771 182.604 152.821 183.431 153.774C184.19 154.648 184.918 155.573 185.432 156.565C185.694 157.071 185.742 157.964 185.401 158.362C182.184 162.114 182.607 163.541 187.704 165.615C188.639 165.996 189.539 166.458 190.504 166.761C191.02 166.923 191.776 167.026 192.19 166.81C193.578 166.089 194.979 165.32 196.132 164.347C196.659 163.902 196.62 162.941 196.927 161.919C198.03 161.98 199.567 162.215 201.067 162.096C202.073 162.016 203.024 161.431 204.003 161.078C204.521 160.89 205.124 160.469 205.555 160.574C208.246 161.235 210.946 161.908 213.554 162.784C216.359 163.725 218.977 165.197 221.851 165.838C223.342 166.17 225.909 165.684 226.759 164.728C228.403 162.876 230.228 162.106 232.777 162.183C231.327 159.46 231.603 158.82 234.954 157.294C235.948 156.841 237.05 156.57 238.297 156.198C238.49 156.181 238.489 156.18 238.489 156.18C239.489 156.623 240.919 156.989 240.753 155.592C240.513 153.568 241.525 153.018 243.408 152.749C243.708 152.706 243.923 152.204 244.318 151.632C245.107 150.667 245.758 149.984 246.408 149.301C246.527 149.211 246.636 149.113 246.894 148.852C247.169 148.602 247.274 148.497 247.367 148.383C248.324 147.971 249.281 147.558 250.518 147.016C250.883 146.468 250.968 146.051 251.053 145.634C251.555 144.364 252.058 143.094 252.783 141.592C254.92 139.318 254.728 136.004 252.641 135.057C252.385 134.799 252.128 134.541 251.671 134.119C251.356 133.841 251.224 133.746 251.076 133.669C251.076 133.669 251.07 133.67 250.956 133.589C250.571 133.416 250.301 133.324 250.031 133.233C249.773 133.098 249.515 132.963 249.016 132.655C247.796 131.797 246.815 131.111 245.835 130.425C245.957 128.71 246.08 126.995 246.467 125.113C247.35 124.826 247.969 124.706 248.658 124.573C248.354 123.778 248.138 123.213 247.922 122.648C247.922 122.571 247.923 122.493 248.086 122.273C248.662 121.993 249.075 121.857 249.488 121.72C250.373 121.311 251.586 121.088 252.058 120.446C252.623 119.678 252.999 118.407 252.663 117.613C252.02 116.095 252.158 114.98 253.83 113.84C254.558 113.217 255.357 112.714 255.364 112.203C255.412 108.662 255.294 105.12 255.227 101.421C255.064 100.88 254.903 100.496 254.743 100.112C254.436 98.9784 254.436 98.9784 257.623 94.048C256.543 93.7564 255.525 93.4817 254.266 93.1049C253.746 92.4645 253.467 91.9262 253.187 91.3879C252.842 90.2826 252.496 89.1772 252.134 87.9032C252.117 87.7345 252.109 87.7255 252.109 87.7255C254.828 86.7028 253.438 85.9082 251.883 85.1469C252.587 83.532 253.293 81.936 250.598 80.7738C249.667 79.6395 249.061 78.6308 248.455 77.6222C246.126 76.1965 246.935 74.2632 247.353 72.0004C247.345 67.8387 247.337 64.0698 247.33 60.3008C245.474 57.2257 249.049 55.7369 250.024 53.4979C250.171 53.1608 251.525 53.2275 252.449 53.2043C252.578 53.3013 252.655 53.2989 252.655 53.2989C254.853 53.3044 256.751 53.5933 257.659 55.7968C257.952 56.5068 259.205 56.9128 260.143 57.5413C259.865 58.1414 259.589 58.738 259.294 59.3754C262.949 61.927 262.035 65.4562 261.993 68.7511C261.941 72.9446 261.767 77.1387 261.53 81.3275C261.461 82.5502 260.838 83.748 260.76 84.9714C260.697 85.9628 261.072 86.9755 261.396 88.091C261.702 90.0701 262.829 91.9655 261.248 93.7951C261.105 93.9604 261.588 94.5414 262.027 95.0703C262.392 95.3111 262.504 95.4169 262.609 95.5284C263.762 96.7453 265.083 97.8942 263.563 99.6451C263.306 99.9407 263.571 100.659 263.734 101.146C264.306 102.858 264.938 104.555 265.64 106.588C265.733 107.265 265.733 107.614 265.732 107.963C265.061 109.256 264.376 110.506 266.604 111.281C266.985 111.413 267.077 112.187 267.322 112.983C267.508 113.658 267.674 114.015 267.84 114.372C268.623 116.035 270.618 117.494 268.891 119.778C268.76 120.131 268.795 120.254 268.913 120.361C269.062 120.702 269.211 121.042 269.287 121.635C269.279 122.3 269.345 122.714 269.41 123.127C271.995 125.466 270.125 128.057 269.83 130.836C269.085 131.663 268.467 132.206 267.849 132.749C267.045 133.313 266.231 133.866 265.444 134.446C265.105 134.696 264.822 135.004 264.589 135.513C264.669 135.817 264.673 135.894 264.677 135.971C264.776 136.59 264.935 137.207 264.957 137.828C264.977 138.421 265.121 139.287 264.752 139.566C262.989 140.897 263.824 141.965 265.041 142.982C266.038 143.815 267.883 144.295 266.303 145.945C266.714 146.14 267.126 146.334 267.777 146.617C268.121 146.809 268.236 146.905 268.361 146.991C268.486 147.074 268.606 147.161 268.873 147.434C269.169 147.716 269.314 147.818 269.458 147.921C270.189 148.062 270.92 148.203 271.938 148.512C274.077 148.729 275.929 148.778 277.78 148.827C278.823 148.595 279.866 148.362 281.347 148.032C280.851 148.787 280.59 149.184 280.33 149.581C280.435 149.712 280.541 149.844 280.646 149.975C281.447 149.544 282.314 149.183 283.035 148.667C284.459 147.648 285.373 147.522 285.965 149.379C286.134 149.908 287.201 150.216 287.856 150.625C288.211 150.011 288.566 149.398 289.075 148.626C291.27 149.004 292.358 148.124 292.969 146.535C293.103 146.452 293.229 146.36 293.574 146.181C293.893 146.097 293.986 146.092 294.079 146.087C294.079 146.087 294.3 146.086 294.439 146.165C294.754 146.185 294.928 146.126 295.103 146.066C295.662 142.264 298.49 140.477 302.436 139.567C304.667 139.053 304.701 137.463 304.279 135.884C303.52 133.05 303.706 132.786 306.837 132.358C307.232 132.304 307.908 131.528 307.815 131.364C305.953 128.062 306.969 124.877 308.163 121.677C308.291 121.334 308.177 120.921 308.32 120.239C308.746 119.483 309.249 119.037 309.27 118.573C309.486 113.797 309.625 109.017 309.785 104.238C308.173 101.265 310.83 99.2671 311.897 96.8764C312.975 94.4627 313.557 91.8719 314.725 89.4986C315.988 86.9332 317.095 83.9245 319.364 82.2422C321.264 80.8337 323.36 79.4751 325.315 78.0128C327.905 76.0744 330.606 74.2432 333.343 72.4656C333.827 72.1513 334.734 72.2323 335.425 72.2976C336.11 72.3623 336.77 72.6377 337.14 72.7388C337.621 69.2436 338.061 66.0398 338.553 62.4474C338.759 59.4577 338.912 56.8566 339.066 54.2555C340.043 53.4065 340.991 52.5294 342.005 51.7164C343.053 50.8766 345.438 51.3984 346.638 52.4468C347.494 53.195 348.581 53.8404 349.701 54.2352C351.729 54.9499 353.39 55.7286 353.899 57.8773C354.164 58.9949 355.04 60.0872 355.914 60.9873C357.133 62.244 357.255 63.3384 355.691 64.2675C351.291 66.8802 350.859 70.8495 351.228 74.8755C351.358 76.2913 352.732 77.7285 353.848 78.9366C355.07 80.261 356.65 81.3319 358.165 82.5886C357.826 83.2225 357.516 83.8028 357.237 84.3253C359.898 85.9219 362.749 87.1637 364.856 89.0452C366.518 90.5291 367.308 92.7816 368.403 94.7284C369.224 96.1882 369.84 97.7372 370.68 99.1879C371.772 101.075 372.191 102.81 370.524 104.695C369.508 105.845 368.402 107.191 369.721 109.062C369.952 110.652 370.02 112.006 370.088 113.361C369.564 115.427 369.041 117.493 368.323 119.743C367.893 119.931 367.658 119.935 367.367 119.825C366.986 119.644 366.66 119.578 366.334 119.512C366.379 119.952 366.424 120.393 366.501 121.013C367.001 122.891 367.47 124.589 367.939 126.287C368.155 126.851 368.278 127.462 368.604 127.971C370.53 130.973 370.494 131.287 367.575 133.843C367.355 135.281 367.25 136.404 367.155 137.528C367.018 139.141 366.889 140.754 366.756 142.367C366.493 143.261 366.41 144.238 365.934 145.035C364.479 147.476 363.005 149.928 361.238 152.196C360.747 152.826 359.203 153.109 358.164 153.072C355.616 152.982 355.244 153.374 355.816 155.475C356.084 156.462 355.67 157.591 355.362 158.93C355.047 159.733 354.937 160.262 354.826 160.79C355.114 161.762 355.403 162.735 355.885 163.913C356.367 164.077 356.656 164.034 356.945 163.99C357.505 163.988 358.064 163.986 358.937 164.096C360.246 165.758 361.184 164.951 362.043 164.116C363.044 163.142 363.976 162.113 365.007 161.036C364.801 160.342 364.525 159.416 364.249 158.49C365.073 157.353 365.896 156.216 366.927 154.829C367.856 153.824 368.534 153.03 369.311 152.321C371.278 150.525 373.29 148.768 375.283 146.995C377.219 146.684 379.155 146.373 381.011 146.075C380.447 143.371 379.881 140.659 379.359 137.61C379.578 134.727 379.752 132.182 379.927 129.637C381.25 128.155 382.551 126.657 383.91 125.201C384.219 124.871 384.708 124.65 385.152 124.439C386.202 123.942 387.275 123.482 388.338 123.006C388.273 122.776 388.207 122.546 388.142 122.316C389.159 122.415 390.177 122.513 391.628 122.607C393.512 122.72 394.974 122.989 396.413 122.912C397.892 122.832 400.242 123.508 399.753 120.853C400.452 119.899 401.031 118.851 401.887 118.022C402.576 117.355 403.598 116.953 404.477 116.439C404.543 116.4 404.693 116.436 404.725 116.393C406.426 114.049 408.979 113.494 411.962 113.326C412.47 113.297 412.956 111.128 413.199 109.909C413.388 108.956 412.998 107.908 413.229 106.971C413.361 106.432 414.546 105.557 414.702 105.64C417.327 107.029 419.737 101.855 422.329 105.457C422.646 105.897 422.917 106.364 423.186 106.782C426.197 106.16 429.132 105.572 432.053 104.931C432.509 104.831 432.896 104.491 433.314 104.261C435.522 103.044 437.729 101.826 440.374 100.599C444.811 100.623 448.812 100.657 452.814 100.69C454.249 101.259 455.685 101.827 457.232 102.44C456.897 103.297 456.657 103.911 456.406 104.552C456.727 104.715 456.988 104.955 457.149 104.912C458.464 104.558 459.841 104.287 461.045 103.733C463.922 102.408 466.385 102.68 469.112 104.323C470.656 105.254 472.707 105.521 474.331 106.376C475.76 107.129 476.908 108.289 478.19 109.259C478.514 109.504 478.887 109.916 479.219 109.902C481.615 109.803 482.306 110.871 481.671 112.941C484.932 112.39 485.882 113.715 486.534 116.154C486.929 117.634 488.903 118.807 490.217 120.079C493.543 123.301 490.869 129.032 487.233 130.775C486.657 131.05 486.107 131.369 486.068 131.39C487.684 133.801 489.096 136.041 490.684 138.181C491.088 138.727 492.033 139.241 492.762 139.279C496.917 139.496 501.083 139.523 505.241 139.698C507.378 139.789 509.505 140.052 511.629 140.237C512.307 136.17 513.809 135.396 518.47 135.349C520.645 135.327 522.863 134.258 524.953 133.449C526.867 132.707 528.549 131.735 530.874 132.476C531.561 132.695 533.441 131.851 533.565 131.29C533.976 129.42 535.517 129.36 537.448 129.04C540.075 129.211 542.282 129.572 544.474 129.51C545.518 129.48 546.532 128.646 547.56 128.175C550.751 129.47 552.917 128.6 555.252 126.293C556.492 125.068 559.32 125.098 561.407 124.498C562.13 124.29 562.882 123.989 563.445 123.556C564.958 122.39 566.378 121.132 567.832 119.908C568.842 119.058 569.808 118.164 570.867 117.364C571.981 116.521 573.182 115.767 573.765 115.37C574.515 113.659 575.111 112.392 575.624 111.1C576.022 110.099 576.501 109.083 576.615 108.046C576.8 106.366 575.608 104.42 578.069 103.244C578.206 103.178 577.964 102.553 577.949 102.187C577.837 99.4535 577.735 96.7196 577.637 93.9856C577.632 93.8357 577.629 93.5908 577.721 93.5471C580.134 92.4066 579.138 90.1322 580.066 88.4348C580.242 88.5428 580.293 88.678 580.344 88.8132C580.309 88.6008 580.275 88.3883 580.24 88.1759C580.75 86.6308 580.74 84.7605 583.371 84.4655C583.103 82.4334 583.418 80.9539 586.513 81.1262C588.515 81.2377 589.49 79.4582 588.751 77.7982C587.48 74.9431 590.276 73.8246 592.096 72.1898C592.279 72.1635 592.268 72.1094 592.268 72.1094C592.854 71.4232 593.394 70.7014 594.041 70.0632C594.472 69.6387 595.387 69.4054 595.512 68.962C595.961 67.3747 596.927 67.1149 598.747 66.8092C600.703 66.4808 602.262 64.7929 601.853 62.446C603.114 62.3275 604.238 62.222 605.401 62.1127C604.483 58.9958 604.477 58.9919 606.869 55.8999C608.37 53.9596 609.853 51.9918 612.802 51.568C613.056 51.5315 613.428 51.5294 613.535 51.3886C614.923 49.5647 616.464 47.8027 617.578 45.8543C618.692 43.9055 619.368 41.7647 620.407 39.6397C620.577 39.5714 620.604 39.4741 620.604 39.4741C621.215 37.5787 621.365 35.411 622.557 33.858C623.989 31.9923 626.283 30.6426 624.672 28.0186C626.352 26.4444 625.971 24.551 625.873 22.6486C625.793 21.1006 627.883 18.5738 629.545 17.8457C628.897 14.6112 630.954 11.3006 634.536 10.1349C634.733 10.1374 634.71 10.1005 634.71 10.1005C633.718 8.2718 634.569 6.29329 636.5 4.42429C638.944 2.05822 641.947 0.779879 645.804 0.0184145C648.679 -0.00691755 651.12 -0.000693149 653.562 0.00551709C653.562 0.00551709 653.58 -0.000510879 653.677 0.0878781C654.048 0.265133 654.322 0.353999 654.597 0.442879C656.103 1.45433 657.498 2.65788 659.162 3.39489C659.976 3.75538 661.29 3.24792 662.957 3.07228C669.403 7.17411 669.891 8.03891 666.679 10.3211C667.749 10.7487 669.665 11.0803 669.745 11.6208C670.134 14.2419 670.084 16.9194 670.064 19.5761C670.058 20.3137 669.517 21.0369 669.41 21.7874C669.156 23.5688 668.555 24.9667 665.91 24.5936C665.902 26.411 665.266 27.5283 663.003 27.3718C662.573 27.342 661.715 28.1036 661.657 28.5589C661.345 31.013 659.375 31.3143 657.286 31.1012C655.122 30.8804 654.193 31.8168 653.222 33.2702C652.693 34.0625 651.395 35.0261 650.523 34.9697C648 34.8063 646.084 35.6321 643.994 36.6775C642.085 37.6322 639.678 37.8015 637.705 38.6853C635.844 39.519 634.263 40.6213 633.254 42.563C631.854 45.2575 633.046 48.5826 630.356 50.8586C631.753 53.9702 628.316 57.5246 631.594 60.524C632.628 61.4702 633.17 61.542 633.98 60.4956C634.664 59.6126 635.254 58.5918 636.178 57.9619C636.845 57.5077 638.021 57.421 638.908 57.537C639.214 57.5771 639.585 58.7559 639.486 59.3586C639.222 60.9556 639.205 62.8535 638.18 64.0128C637.02 65.3236 634.925 66.0714 633.097 66.7914C632.754 66.9263 631.782 65.7471 631.046 65.233C630.615 64.9319 630.013 64.4978 629.608 64.5795C629.202 64.6615 628.677 65.3068 628.67 65.7118C628.637 67.4926 628.031 69.3748 629.89 70.8955C630.222 71.1667 629.942 72.2587 629.627 72.8389C628.982 74.0253 628.13 75.126 627.346 76.2533C626.649 77.2559 626.034 78.3202 625.198 79.226C623.803 80.7364 623.135 82.2064 624.584 83.9857C625.846 85.5354 626.82 87.0596 624.781 88.8421C624.13 89.4118 624.223 90.5879 623.783 91.407C623.385 92.1484 622.724 92.7813 621.877 93.8392C621.931 93.9492 622.265 94.6253 622.606 95.6394C622.474 98.3885 622.334 100.8 622.194 103.211C622.478 104.219 622.461 105.419 623.107 106.197C624.704 108.12 623.839 109.723 622.922 111.54C621.874 113.618 621.15 115.823 620.306 117.979C620.226 118.182 620.384 118.467 620.283 118.65C617.851 123.06 615.684 127.713 610.445 130.194C609.076 130.842 607.138 130.564 605.122 130.742C605.318 134.68 601.489 133.638 598.361 133.898C599.772 136.308 598.396 136.977 596.177 137.23C593.202 137.57 592.506 139.38 593.725 141.854C595.808 146.08 597.361 150.507 599.457 154.727C600.362 156.549 602.029 158.091 603.418 159.715C604.356 160.811 605.413 161.828 606.114 162.564C604.896 165.021 603.83 167.302 602.614 169.519C602.34 170.02 601.568 170.585 600.975 170.632C597.367 170.913 595.37 172.79 595.436 176.013C595.443 176.376 595.505 176.857 595.28 177.083C594.019 178.352 595.253 179.339 596.082 179.749C598.967 181.174 602.023 182.335 605.034 183.559C605.274 183.656 605.669 183.461 605.798 183.438C605.299 181.559 604.828 179.789 604.496 177.791C605.583 176.404 606.531 175.247 607.48 174.09C607.48 174.09 607.452 174.097 607.555 174.04C607.772 173.862 607.887 173.741 608.001 173.621C608.001 173.621 607.975 173.632 608.081 173.579C608.3 173.403 608.414 173.282 608.527 173.16C608.527 173.16 608.498 173.169 608.618 173.179C608.737 173.188 608.992 173.166 608.992 173.166C611.429 173.371 613.07 173.033 612.634 170.248C612.365 168.532 614.307 168.89 615.483 168.749C616.406 168.638 617.361 168.727 618.129 168.727C617.459 164.686 616.855 161.04 616.459 157.164C617.474 156.074 618.28 155.211 619.086 154.349C623.175 152.347 627.034 153.856 630.936 154.918C631.994 155.206 633.109 155.331 634.444 155.575C634.033 156.562 633.692 157.379 633.232 158.484C635.507 159.581 637.771 160.691 640.056 161.767C641.411 162.404 642.389 161.982 643.274 160.802C645.896 161.926 644.88 164.01 645.256 165.716C645.224 166.251 645.397 166.887 645.127 167.304C643.268 170.184 645.073 172.356 646.761 174.611C647.211 175.213 647.264 176.033 647.627 176.699C647.923 177.242 648.327 178.023 648.833 178.124C649.491 178.255 650.303 177.834 651.039 177.624C653.862 176.82 656.674 175.983 659.515 175.23C659.773 175.162 660.244 175.573 660.556 175.821C661.91 176.895 662.686 176.568 663.552 175.215C664.159 174.268 665.312 173.569 666.301 172.843C666.671 172.571 667.321 172.612 667.751 172.38C670.244 171.034 670.235 171.02 671.966 172.645C673.051 171.061 674.158 169.443 675.438 167.773C675.609 167.72 675.612 167.652 675.612 167.652C676.061 166.097 676.509 164.542 677.014 162.787C674.946 162.918 672.376 163.581 671.978 160.463C671.912 159.619 672.165 158.845 671.891 158.26C670.536 155.371 673.573 154.28 674.906 152.544C675.487 151.787 681.895 152.646 682.635 153.41C683.198 153.992 683.726 154.6 684.283 155.186C686.375 157.388 686.377 157.386 684.966 159.872C685.12 160.043 685.274 160.214 685.428 160.385C687.598 158.795 689.907 157.328 691.907 155.588C695.632 152.348 699.892 149.953 704.82 148.389C706.472 147.865 707.925 146.711 709.6 146.416C713.665 145.7 717.807 145.32 722.076 144.751C722.555 145.213 722.876 145.728 723.248 146.537C723.468 147.198 723.636 147.565 723.805 147.933C723.499 148.589 723.194 149.246 722.719 150.116C722.424 150.441 722.3 150.552 722.175 150.663C722.175 150.663 721.952 150.66 721.741 150.73C721.404 150.898 721.29 151.007 721.189 151.126C720.947 152.594 720.005 153.116 718.326 153.577C715.367 154.389 712.482 155.587 709.812 156.985C706.216 158.869 702.904 161.165 699.365 163.139C698.095 163.848 696.506 164.108 695.089 164.628C692.955 165.412 690.799 166.168 688.741 167.09C687.771 167.525 687.05 168.369 686.142 168.936C684.06 170.237 681.925 171.472 679.827 172.754C678.85 173.351 677.516 173.815 677.022 174.649C674.94 178.164 673.087 181.784 671.204 185.387C669.974 187.741 669.002 190.213 667.576 192.468C666.97 193.427 665.498 193.965 664.239 194.732C664.059 194.768 664.06 194.769 664.06 194.769C663.726 194.91 663.16 194.991 663.091 195.2C661.805 199.085 658.398 201.084 654.539 202.698C652.142 203.701 649.755 204.721 647.347 205.702C645.799 206.333 644.439 208.601 645.457 209.442C646.194 210.052 647.921 210.11 649.071 209.884C650.955 209.514 652.744 208.745 654.538 208.074C655.069 207.875 655.619 207.517 655.933 207.1C658.094 204.229 661.334 203.211 665.015 202.727C666.526 202.528 668.083 202.066 669.403 201.396C672.219 199.969 674.49 201.076 676.102 202.766C676.987 203.694 677.082 205.591 676.784 206.922C675.939 210.708 673.486 213.709 669.858 216.133C669.669 216.286 669.556 216.309 669.177 216.368C668.734 216.481 668.558 216.557 668.382 216.633C667.725 216.923 667.068 217.214 666.274 217.612C665.289 217.661 664.443 217.603 663.508 217.54C663.508 216.075 663.508 214.805 663.508 213.395C659.54 213.246 656.48 214.051 654.204 217.223C652.94 218.984 650.742 220.567 648.555 221.399C645.476 222.568 643.99 224.962 641.802 226.789C640.066 228.237 637.997 229.485 637.364 231.862C637.196 232.491 635.076 232.719 633.496 233.252C635.729 236.111 633.682 239.034 632.523 242.016C635.419 240.596 637.814 240.729 640.138 242.261C640.591 242.559 641.485 242.352 642.175 242.362C643.451 242.379 644.73 242.346 646.003 242.403C647.516 242.47 649.027 242.713 650.535 242.69C652.081 242.668 653.642 242.499 655.157 242.228C655.823 242.109 656.532 241.68 656.979 241.213C658.198 239.941 659.473 239.262 661.538 239.017C663.265 238.811 664.78 237.242 666.536 236.191C668.08 236.111 669.478 236.077 670.872 236.131C673.715 236.241 675.119 237.882 674.469 240.316C674.376 240.665 674.199 241.153 673.899 241.278C671.322 242.346 668.707 243.345 665.451 244.62C665.943 245.604 666.736 246.757 667.083 248.004C667.45 249.323 667.409 250.731 667.512 252.102C667.56 252.749 667.527 253.4 667.531 254.049C668.206 253.703 669.15 253.498 669.502 252.982C670.367 251.717 670.96 250.309 671.784 248.724C670.878 246.395 670.923 246.564 674.249 245.881C675.501 245.624 676.931 244.572 677.498 243.55C678.414 241.9 679.717 241.32 681.738 241.192C682.293 241.011 683.009 240.927 683.051 240.731C683.669 237.864 686.77 237.706 688.946 236.683C691.455 235.502 694.177 234.106 696.886 233.962C700.059 233.794 703.035 233.42 705.997 232.506C706.473 232.359 707.148 232.766 707.743 232.843C708.458 232.936 709.186 232.95 709.909 232.998C709.838 232.434 709.694 231.867 709.717 231.305C709.736 230.844 709.946 229.997 710.082 229.995C710.973 229.983 711.953 229.989 712.74 230.304C714.314 230.933 715.783 231.765 717.766 232.747C718.325 234.586 717.548 235.827 714.832 236.534C714.176 236.705 713.421 236.848 712.939 237.227C709.163 240.2 704.582 240.4 699.897 240.172C699.27 240.141 698.712 239.499 698.057 239.319C696.719 238.949 695.343 238.659 693.958 238.496C693.862 238.485 693.613 239.811 693.343 240.486C693.118 241.046 692.903 241.706 692.433 242.078C689.673 244.26 686.831 246.363 684.036 248.512C682.992 249.314 682.001 250.171 680.714 251.172C678.432 252.528 676.367 253.648 674.429 254.919C672.748 256.021 671.274 256.299 669.969 254.56C668.359 256.012 669.339 256.93 670.664 257.522C672.508 258.347 673.998 259.306 674.642 261.157C674.826 261.688 675.737 262.424 676.265 262.394C678.064 262.289 679.948 262.103 681.571 261.486C682.202 261.247 682.18 259.763 682.538 258.872C682.764 258.306 683.143 257.787 683.454 257.247C685.829 256.906 688.228 256.656 690.572 256.195C692.326 255.85 692.196 254.204 689.964 252.397C691.086 252.215 691.976 251.853 692.76 251.983C695.218 252.394 697.096 252.322 696.68 249.212C697.467 251.731 696.927 254.558 701.259 255.561C699.948 255.982 699.453 256.219 698.927 256.297C696.518 256.655 696.094 257.334 696.978 259.405C697.34 260.255 697.627 261.132 697.895 262.009C698.291 263.31 697.825 264.112 696.158 264.124C694.005 264.139 693.115 265.205 693.432 266.935C693.891 269.44 693.692 272.606 695.368 274.207C696.99 275.756 697.826 277.392 698.973 279.054C700.091 280.676 704.063 280.619 705.828 279.412C706.445 278.989 707.428 278.977 708.425 278.817C709.127 279.503 709.647 280.15 710.493 281.2C709.225 282.494 707.963 284.228 706.203 285.376C705.393 285.904 703.579 285.398 702.272 285.15C700.833 284.877 699.087 283.473 698.187 285.241C697.645 286.302 698.455 287.893 698.678 289.385C697.826 289.998 696.457 290.892 695.237 291.921C694.928 292.181 694.925 292.919 695.083 293.353C695.287 293.912 695.772 294.4 696.174 294.896C698.761 298.087 699.254 298.047 701.137 294.519C702.482 292 705.255 291.714 707.364 293.903C708.304 294.879 709.171 295.909 710.116 297.072C710.161 297.229 710.171 297.44 710.083 297.616C709.875 297.89 709.766 297.997 709.668 298.113C710.375 299.376 710.787 300.073 708.555 300.908C706.988 301.495 706.152 303.697 703.82 303.87C702.359 303.979 700.903 304.126 699.469 304.253C698.489 306.897 699.935 308.405 702.768 309.652C706.498 309.966 710.015 310.973 713.215 309.035C712.807 311.013 712.398 312.991 711.873 315.533C713.147 316.503 714.898 317.836 716.822 319.214C716.993 319.258 716.993 319.259 716.993 319.259C717.979 321.001 717.649 322.352 716.233 324.011C714.734 325.766 713.559 328.015 715.306 330.38C715.62 330.805 715.781 331.4 715.769 331.912C715.73 333.59 717.101 334.136 718.485 334.081C720.815 333.989 722.352 334.733 723.224 336.552C723.916 337.995 725.219 337.993 726.097 337.115C728.007 335.204 729.578 336.268 730.562 337.58C731.613 338.98 732.131 340.752 732.521 342.426C732.633 342.907 731.63 343.796 730.916 344.179C727.92 345.786 727.874 347.583 731.057 349.15C733.778 350.49 736.686 351.536 739.417 352.862C741.399 353.824 743.226 355.032 745.551 356.378C746.171 356.5 747.419 356.837 748.694 356.97C750.129 357.12 751.911 357.578 752.98 357.041C756.499 355.274 760.069 355.665 763.498 356.624C765.522 357.19 768.413 356.962 769.252 359.569C769.314 359.763 770.212 359.946 770.603 359.83C773.281 359.036 775.865 357.91 778.603 357.396C780.458 357.048 782.588 357.269 784.463 357.689C787.182 358.298 789.679 359.744 792.703 358.862C793.123 358.739 793.775 359.227 794.482 359.749C795.061 360.275 795.495 360.69 795.889 360.662C799.754 360.39 803.612 360.045 807.472 359.72C808.333 359.418 809.172 359.041 810.062 358.834C810.935 358.632 812.093 358.247 812.719 358.562C814.758 359.59 815.833 358.518 817.171 357.515C817.902 356.968 818.973 356.77 820.305 356.455C822.625 356.537 824.552 356.437 826.428 356.664C828.026 356.858 828.659 356.234 829.055 355.096C830.621 355.403 832.187 355.709 833.893 356.044C834.814 358.253 832.369 359.398 831.128 360.633C829.076 362.675 827.925 358.34 825.611 359.528C825.529 359.658 825.343 359.83 825.385 359.915C826.631 362.432 827.512 364.81 824.504 367.046C823.86 367.524 823.824 369.176 824.208 370.052C824.921 371.68 824.248 372.287 822.646 372.718C821.002 373.159 819.362 373.625 817.763 374.176C817.2 374.371 816.762 374.847 816.267 375.195C816.704 375.623 817.069 376.332 817.588 376.434C820.428 376.991 823.314 377.362 826.167 377.872C827.601 378.129 828.998 378.546 830.824 378.93C833.345 378.955 835.455 378.939 837.564 378.844C837.564 378.764 837.563 378.605 837.723 378.579C838.098 378.535 838.313 378.519 838.528 378.502C840.469 378.438 842.052 379.274 843.791 379.808C846.368 380.6 849.157 382.173 852.4 380.493C853.717 379.811 855.961 380.443 857.771 380.589C858.414 380.64 859.023 381.023 860.022 381.363C862.733 381.711 865.067 381.95 867.545 382.139C867.949 381.824 868.209 381.558 868.472 381.287C868.474 381.282 868.491 381.282 868.491 381.282C873.082 385.232 878.497 382.217 883.5 382.684C886.145 382.931 888.745 383.541 891.731 384.107C895.021 384.158 897.954 386.008 900.874 384.204C902.516 385.169 904.159 386.133 905.907 387.306C906.065 387.889 906.12 388.265 906.174 388.641C906.006 390.935 908.554 389.474 909.497 390.563C908.539 391.981 907.505 393.527 909.462 395.094C909.637 395.235 909.28 396.032 909.001 396.434C908.074 397.771 907.07 399.068 905.745 400.852C908.831 400.487 910.702 401.071 911.816 403.182C912.111 403.74 913.412 403.862 914.205 404.255C915.154 404.725 916.054 405.271 916.975 405.783C916.712 405.861 916.45 405.938 916.187 406.016C916.131 407.185 916.089 408.355 916.015 409.523C915.944 410.65 915.951 411.793 915.721 412.897C915.446 414.219 914.837 415.49 914.591 416.814C914.291 418.427 913.48 418.7 911.886 418.018C910.945 417.615 909.898 417.404 908.899 417.106C908.791 417.319 908.683 417.532 908.575 417.744C908.984 418.154 909.394 418.563 910.289 419.458C907.586 420.033 905.288 420.483 903.018 421.026C902.208 421.219 901.467 421.635 900.383 422.082C899.292 422.492 898.511 422.769 897.73 423.046C897.421 423.167 897.017 423.217 896.819 423.421C895.23 425.051 893.578 425.037 891.421 423.581C884.328 423.66 877.643 423.804 870.959 423.941C869.273 423.975 867.585 423.984 865.899 424.004C865.559 424.07 865.08 424.297 864.902 424.177C862.102 422.303 859.525 423.914 856.763 424.331C853.192 424.871 849.491 424.755 845.446 424.826C844.241 424.324 843.413 423.54 842.637 423.577C839.371 423.734 836.121 424.137 832.866 424.449C830.696 425.497 828.588 426.32 826.09 424.916C825.642 424.665 824.11 425.383 823.483 425.98C821.433 427.928 817.34 428.367 814.919 426.787C812.686 425.329 810.407 423.925 808.115 422.542C807.631 422.25 806.99 421.969 806.436 421.988C801.074 422.168 796.178 420.644 791.262 419.053C790.539 418.819 789.219 419.302 788.538 419.82C787.235 420.811 786.408 420.646 785.221 419.656C783.08 417.87 780.319 417.525 777.655 418.303C774.956 419.091 772.768 419.162 770.34 417.532C769.27 416.814 767.154 416.752 765.727 417.09C762.063 417.955 760.898 417.84 758.444 415.429C757.331 414.335 756.231 413.723 754.347 414.452C751.691 415.482 749.052 415.976 746.287 414.025C744.263 412.597 741.975 413.506 740.964 415.555C739.586 418.347 738.759 418.716 735.304 418.252C734.103 418.091 732.875 418.089 731.392 417.846C730.456 415.106 728.408 416.846 726.976 416.66C723.496 416.184 720.866 417.089 720.035 419.297C719.845 419.826 719.753 420.073 719.66 420.319C719.564 420.32 719.468 420.32 719.084 420.353C718.545 420.513 718.294 420.641 718.042 420.769C718.042 420.769 718.038 420.774 717.891 420.803C717.494 420.965 717.243 421.096 716.993 421.228C716.993 421.228 716.991 421.234 716.84 421.265C716.429 421.429 716.168 421.562 715.907 421.694C712.898 422.821 709.886 423.943 706.885 425.086C706.678 425.165 706.491 425.388 706.4 425.582C705.56 427.384 704.744 429.194 703.851 431.302C703.446 431.963 703.112 432.324 702.777 432.686C699.18 433.468 696.55 432.287 693.987 430.019C692.374 428.591 690.986 430.342 690.07 431.497C687.961 434.153 685.985 436.891 683.971 439.604C683.076 440.811 682.094 441.129 680.807 440.004C679.54 438.898 678.768 439.229 677.751 440.496C676.682 441.827 675.065 442.822 673.599 444.036C671.692 443.937 669.51 442.552 667.756 444.786C667.497 445.116 665.676 444.71 664.71 444.362C663.085 443.775 662.062 443.073 660.411 444.934C659.322 446.161 656.264 446.749 654.271 446.498C651.061 446.093 651.125 445.701 651.082 448.906C650.423 448.754 649.808 448.612 648.744 448.365C649.059 449.238 649.306 449.836 649.488 450.448C649.809 451.527 650.184 452.603 650.364 453.702C650.584 455.042 650.652 456.402 650.734 457.756C650.769 458.35 650.954 459.214 650.595 459.505C647.768 461.801 649.3 464.577 649.171 467.458C647.686 470.887 648.123 472.909 650.451 474.374C650.795 475.605 651.138 476.836 651.478 478.054C654.159 478.471 656.97 479.305 659.74 479.209C661.792 479.138 663.904 478.028 665.774 477.061C667.273 476.287 668.433 475.017 669.773 473.997C670.818 473.201 671.909 472.451 673.384 471.388C673.688 472.025 674.157 473.007 674.336 473.383C676.238 473.787 677.765 474.129 679.303 474.428C679.872 474.538 680.469 474.609 681.049 474.593C683.69 474.516 686.588 473.763 688.896 474.481C691.188 475.194 693.059 477.241 694.778 478.962C695.8 479.985 697.339 480.691 698.622 479.905C703.702 476.797 706.8 476.899 711.59 480.3C711.952 480.557 712.606 480.916 712.87 480.797C716.6 479.105 719.94 481.474 723.491 481.587C724.373 481.615 725.291 482.559 726.045 483.213C726.539 483.642 726.767 484.307 727.113 484.866C727.489 484.31 727.865 483.755 728.23 483.216C729.61 486.224 733.037 486.155 735.788 487.32C738.808 488.598 741.374 486.316 744.415 487.507C747.5 488.59 750.241 489.298 753.012 487.677C755.396 487.697 757.811 487.505 760.157 487.778C766.534 488.518 772.842 489.825 779.694 489.376C781.561 490.176 783.082 490.842 784.602 491.508C784.604 491.859 784.606 492.209 784.606 492.905C784.61 493.59 784.616 493.93 784.622 494.271C784.45 494.629 784.277 494.988 784.084 495.494C784.106 496.304 784.148 496.968 784.152 497.019C786.662 497.156 788.837 497.274 791.192 497.444C792.624 497.952 793.839 498.679 795.133 498.813C798.235 499.135 801.375 499.179 804.91 499.444C807.646 499.844 809.971 500.133 812.297 500.423C812.177 500.851 812.162 501.599 811.922 501.66C809.278 502.326 806.6 502.885 803.705 503.476ZM697.581 547.978C697.581 547.978 697.588 548.033 697.619 548.072C697.619 548.072 697.611 548.013 697.581 547.978ZM670.325 297.636C670.325 297.636 670.351 297.666 670.526 297.968C672.106 298.963 673.474 298.866 674.66 297.833C674.605 297.531 674.55 297.228 674.495 296.926C673.112 297.174 671.729 297.422 670.325 297.636ZM678.334 502.807C678.804 503.055 679.273 503.303 679.743 503.551C679.832 503.343 679.921 503.134 680.01 502.926C679.409 502.801 678.808 502.675 678.116 502.309C678.456 502.044 678.946 501.493 679.113 501.56C680.305 502.038 681.431 502.642 682.929 503.378C683.252 502.56 683.959 501.675 683.759 500.996C683.59 500.425 682.424 499.909 681.592 499.7C680.149 499.338 678.623 499.233 677.043 499.007C675.387 501.323 675.568 501.957 678.334 502.807ZM251.048 452.431C251.048 452.431 251.068 452.476 250.871 452.733C249.139 454.143 247.407 455.552 245.437 457.154C249.757 457.673 253.695 458.146 257.822 458.641C257.612 454.983 257.417 451.585 257.222 448.188C256.894 448.067 256.566 447.947 256.237 447.827C255.009 448.976 253.789 450.134 252.546 451.272C252.083 451.696 251.564 452.074 251.048 452.431ZM432.407 116.216C432.407 116.216 432.41 116.218 432.371 115.944C431.805 114.597 431.105 115.255 430.606 115.927C430.169 116.515 429.955 117.231 429.559 118.067C428.811 117.524 428.259 117.124 427.66 116.689C427.606 119.511 427.602 119.475 424.438 119.732C423.24 119.83 422.065 120.139 420.684 120.411C420.607 120.553 420.529 120.695 420.452 120.837C420.593 120.674 420.734 120.512 421.168 120.473C421.331 120.722 421.688 121.017 421.627 121.214C420.72 124.164 417.548 126.504 414.471 126.809C414.799 128.613 415.13 130.433 415.416 132.005C416.51 132.481 418.058 132.915 419.261 133.737C420.722 134.735 422.263 135.893 423.086 137.291C423.919 138.705 423.835 140.516 424.301 142.12C424.914 144.229 423.769 148.016 422.007 148.251C418.623 148.701 415.93 149.522 413.378 151.931C411.247 153.943 407.59 154.753 404.538 155.959C403.049 156.547 403.022 157.314 403.753 158.294C404.461 159.243 405.307 160.114 405.982 160.892C407.137 160.691 408.625 160.006 409.279 160.396C411.356 161.637 413.162 160.91 414.948 160.232C418.257 158.976 421.389 157.323 424.769 156.262C427.786 155.314 431.038 154.941 434.314 154.289C434.293 154.247 434.091 153.854 433.862 153.408C435.424 152.837 437.486 152.644 438.322 151.654C439.743 149.97 440.926 149.585 442.345 150.584C445.74 150.273 444.787 144.912 449.101 146.735C449.544 146.014 449.885 145.458 450.226 144.902C450.589 145.242 450.958 145.578 451.315 145.924C451.798 146.393 452.326 147.29 452.739 147.249C453.469 147.178 454.654 146.593 454.717 146.126C454.913 144.682 455.331 142.68 454.465 141.822C452.333 139.707 452.721 137.359 452.283 134.91C453.198 135.402 453.882 135.769 454.566 136.136C454.635 135.458 454.571 134.74 454.814 134.114C455.036 133.538 455.487 132.95 456.022 132.567C456.754 132.043 458.057 131.885 458.421 131.259C459.692 129.078 461.202 129.927 462.951 130.595C463.922 130.965 465.288 131.315 466.144 130.995C468.604 130.074 469.492 127.691 468.629 125.304C468.497 124.939 468.385 124.569 468.245 124.207C467.26 121.659 467.178 118.475 462.814 118.294C462.629 118.286 462.46 117.985 462.237 117.778C462.506 117.268 462.773 116.763 463.099 116.145C462.573 116.014 462.238 115.834 461.937 115.87C458.695 116.255 458.708 116.266 459.03 113.363C459.162 112.165 458.698 111.656 457.192 112.023C455.112 112.53 453.003 113.005 450.871 113.267C449.025 113.494 447.882 114.035 447.393 115.772C446.921 117.442 445.463 118.265 443.388 117.938C439.727 117.363 436.066 116.789 432.407 116.216ZM749.039 408.857C751.752 408.965 754.465 409.074 757.61 409.209C757.957 409.192 758.324 409.231 758.65 409.148C762.454 408.181 766.054 408.541 769.728 409.897C772.498 410.92 775.494 411.763 778.615 410.999C783.173 409.884 787.626 409.373 791.898 411.883C792.513 412.244 793.602 411.914 794.409 412.107C797.516 412.847 802.086 410.571 802.994 415.63C803.77 415.259 804.237 415.093 804.631 414.839C806.792 413.444 808.789 413.567 810.977 415.011C811.633 415.444 812.707 415.612 813.558 415.554C815.742 415.405 817.188 415.758 816.506 418.33C817.991 418.047 819.235 417.754 820.501 417.593C821.117 417.514 821.773 417.692 822.413 417.738C823.314 417.802 824.217 417.881 825.12 417.904C827.014 417.952 829.361 416.008 830.629 418.895C830.7 419.055 831.57 419.173 831.75 419.021C832.136 418.696 832.592 418.148 832.531 417.749C832.249 415.904 833.576 415.536 835.164 415.3C838.051 414.871 841.078 414.771 843.787 413.907C847.837 412.616 851.638 410.68 856.363 412.111C855.577 408.228 858.115 410.472 859.114 410.432C859.951 409.617 860.515 408.534 861.328 408.364C866.883 407.198 871.66 404.012 877.833 404.183C880.743 404.264 883.724 402.384 887.102 401.249C885.829 399.709 884.972 398.367 883.778 397.322C882.797 396.465 884.074 393.708 880.921 394.601C881.144 395.096 881.333 395.519 881.523 395.941C881.211 396.04 880.836 396.292 880.596 396.216C878.112 395.429 875.386 394.929 873.262 393.661C871.435 392.57 870.072 392.732 868.225 393.154C865.348 393.811 862.367 395.459 859.47 393.05C859.149 392.783 858.472 392.847 857.599 392.567C855.08 392.316 852.562 392.064 849.661 391.862C847.288 393.201 844.808 393.799 842.094 392.675C841.079 392.255 840.078 391.81 838.728 391.185C836.05 390.933 833.37 390.462 830.694 390.474C824.423 390.502 818.154 390.762 811.508 390.97C811.11 391.115 810.653 391.194 810.321 391.417C807.681 393.188 804.977 393.594 801.744 392.476C799.775 391.796 797.473 391.694 795.314 391.662C794.033 391.644 792.468 391.973 791.506 392.658C789.437 394.132 784.669 394.72 783.326 392.939C781.23 390.159 780.041 392.041 778.841 393.315C777.584 394.649 776.32 395.125 774.309 394.836C773.005 394.649 771.129 394.834 770.268 395.551C768.659 396.893 767.049 397.511 764.901 397.37C763.583 397.284 762.505 397.526 762.354 399.023C762.217 400.371 761.328 400.781 760.028 399.903C758.814 399.083 758.143 399.623 757.149 400.352C755.477 401.58 753.653 403.185 751.686 403.449C748.253 403.911 747.272 406.416 745.161 408.353C746.324 408.488 747.487 408.624 749.039 408.857ZM679.083 490.873C674.652 490.932 671.186 488.769 667.537 487.027C667.464 486.992 667.368 486.986 667.282 486.981C664.649 486.824 662.015 486.668 659.288 486.507C658.957 487.018 658.552 487.643 658.268 488.08C661.507 489.724 663.559 492.122 665.636 494.509C666.135 495.083 666.796 495.548 667.367 496.076C668.323 496.961 669.266 497.858 670.216 498.749C670.622 499.13 671.031 499.507 671.439 499.886C671.931 499.429 672.744 499.021 672.849 498.503C673.07 497.423 672.916 496.285 672.916 495.243C675.649 494.968 678.219 494.71 681.394 494.39C680.611 493.134 679.984 492.13 679.083 490.873ZM666.953 291.457C666.503 289.891 666.128 288.302 665.559 286.769C665.365 286.247 664.681 285.866 664.221 285.421C663.834 285.923 663.106 286.437 663.128 286.926C663.188 288.274 663.567 289.612 663.81 290.955C664.14 292.784 664.886 292.984 666.953 291.457ZM150.819 112.47C150.56 111.638 150.264 110.08 150.049 110.089C148.396 110.154 146.923 110.69 146.551 112.694C147.989 112.694 149.243 112.694 150.819 112.47ZM689.395 298.565C688.272 298.698 687.148 298.83 686.024 298.963C686.073 299.178 686.122 299.394 686.172 299.61C688.051 299.61 689.931 299.61 691.811 299.61C691.831 299.375 691.851 299.139 691.871 298.904C691.19 298.792 690.509 298.679 689.395 298.565ZM660.951 247.197C661.201 246.873 661.45 246.548 661.699 246.224C661.068 245.953 660.437 245.682 659.806 245.411C659.534 245.705 659.261 245.998 658.989 246.291C659.551 246.557 660.112 246.822 660.951 247.197ZM595.055 135.579C595.499 135.642 595.943 135.704 596.388 135.767C596.288 135.459 596.188 135.152 596.088 134.845C595.692 135.023 595.296 135.201 595.055 135.579ZM702.104 239.284C702.181 239.254 702.276 239.238 702.328 239.188C702.361 239.155 702.338 239.021 702.332 239.02C701.953 238.992 701.573 238.973 701.194 238.952C701.187 239.026 701.18 239.099 701.173 239.173C701.413 239.215 701.653 239.258 702.104 239.284ZM674.969 499.932C674.889 499.834 674.809 499.736 674.73 499.638C674.642 499.724 674.554 499.809 674.466 499.895C674.598 499.941 674.729 499.986 674.969 499.932ZM755.148 598.509C755.074 598.607 755 598.706 754.927 598.805C755.003 598.822 755.136 598.867 755.145 598.852C755.207 598.753 755.243 598.641 755.148 598.509ZM109.952 475.477C110.024 475.433 110.095 475.389 110.167 475.345C110.097 475.357 110.026 475.37 109.952 475.477ZM154.023 472.838C154.096 472.838 154.06 472.838 154.023 472.838Z" fill="#BF2846"/>
<rect x="244" y="444" width="27" height="30" fill="#BF2846"/>
</g>
<defs>
<clipPath id="clip0_527_683">
<rect width="928" height="726" fill="white"/>
</clipPath>
</defs>
</svg>
